<ttFont>
    <TTGlyph name=".notdef" xMin="138" yMin="0" xMax="1229" yMax="1530">
      <contour>
        <pt x="1229" y="1530" on="1"/>
        <pt x="1209" y="1466" on="0"/>
        <pt x="1209" y="1345" on="1"/>
        <pt x="1209" y="185" on="1"/>
        <pt x="1209" y="64" on="0"/>
        <pt x="1229" y="0" on="1"/>
        <pt x="138" y="0" on="1"/>
        <pt x="138" y="0" on="0"/>
        <pt x="146" y="31" on="1"/>
        <pt x="158" y="76" on="0"/>
        <pt x="158" y="185" on="1"/>
        <pt x="158" y="1345" on="1"/>
        <pt x="158" y="1454" on="0"/>
        <pt x="150" y="1484" on="1"/>
        <pt x="138" y="1530" on="1"/>
      </contour>
      <contour>
        <pt x="896" y="100" on="1"/>
        <pt x="1016" y="100" on="0"/>
        <pt x="1062" y="160" on="1"/>
        <pt x="1079" y="182" on="0"/>
        <pt x="1079" y="213" on="1"/>
        <pt x="1079" y="1317" on="1"/>
        <pt x="1079" y="1372" on="0"/>
        <pt x="985" y="1404" on="1"/>
        <pt x="911" y="1430" on="0"/>
        <pt x="826" y="1430" on="1"/>
        <pt x="471" y="1430" on="1"/>
        <pt x="351" y="1430" on="0"/>
        <pt x="304" y="1370" on="1"/>
        <pt x="288" y="1348" on="0"/>
        <pt x="288" y="1317" on="1"/>
        <pt x="288" y="213" on="1"/>
        <pt x="288" y="156" on="0"/>
        <pt x="347" y="126" on="1"/>
        <pt x="396" y="100" on="0"/>
        <pt x="471" y="100" on="1"/>
      </contour>
      <contour>
        <pt x="459" y="885" on="1"/>
        <pt x="412" y="908" on="0"/>
        <pt x="412" y="1097" on="1"/>
        <pt x="412" y="1208" on="0"/>
        <pt x="451" y="1304" on="0"/>
        <pt x="469" y="1311" on="1"/>
        <pt x="498" y="1271" on="0"/>
        <pt x="539" y="1266" on="0"/>
        <pt x="573" y="1266" on="0"/>
        <pt x="608" y="1271" on="0"/>
        <pt x="628" y="1274" on="1"/>
        <pt x="677" y="1283" on="0"/>
        <pt x="784" y="1283" on="0"/>
        <pt x="879" y="1258" on="0"/>
        <pt x="913" y="1231" on="1"/>
        <pt x="984" y="1175" on="0"/>
        <pt x="986" y="1062" on="1"/>
        <pt x="988" y="947" on="0"/>
        <pt x="840" y="819" on="1"/>
        <pt x="768" y="755" on="1"/>
        <pt x="690" y="683" on="0"/>
        <pt x="690" y="628" on="1"/>
        <pt x="690" y="577" on="0"/>
        <pt x="710" y="545" on="0"/>
        <pt x="717" y="535" on="1"/>
        <pt x="559" y="535" on="1"/>
        <pt x="551" y="634" on="0"/>
        <pt x="610" y="726" on="1"/>
        <pt x="631" y="760" on="0"/>
        <pt x="655" y="792" on="1"/>
        <pt x="704" y="857" on="1"/>
        <pt x="792" y="973" on="0"/>
        <pt x="792" y="1203" on="0"/>
        <pt x="710" y="1203" on="1"/>
        <pt x="613" y="1203" on="0"/>
        <pt x="538" y="1094" on="1"/>
        <pt x="473" y="1001" on="0"/>
      </contour>
      <contour>
        <pt x="541" y="282" on="0"/>
        <pt x="523" y="324" on="0"/>
        <pt x="523" y="371" on="0"/>
        <pt x="541" y="413" on="0"/>
        <pt x="556" y="428" on="1"/>
        <pt x="588" y="462" on="0"/>
        <pt x="635" y="462" on="1"/>
        <pt x="682" y="462" on="0"/>
        <pt x="705" y="438" on="1"/>
        <pt x="747" y="394" on="0"/>
        <pt x="747" y="324" on="0"/>
        <pt x="729" y="282" on="0"/>
        <pt x="714" y="266" on="1"/>
        <pt x="682" y="233" on="0"/>
        <pt x="635" y="233" on="1"/>
        <pt x="588" y="233" on="0"/>
      </contour>
    </TTGlyph>
    <TTGlyph name="A" xMin="66" yMin="-1" xMax="1162" yMax="1530">
      <contour>
        <pt x="813" y="0" on="1"/>
        <pt x="826" y="63" on="0"/>
        <pt x="826" y="138" on="0"/>
        <pt x="823" y="176" on="0"/>
        <pt x="818" y="219" on="0"/>
        <pt x="811" y="272" on="0"/>
        <pt x="808" y="307" on="1"/>
        <pt x="785" y="546" on="0"/>
        <pt x="645" y="700" on="1"/>
        <pt x="583" y="768" on="0"/>
        <pt x="439" y="839" on="0"/>
        <pt x="346" y="839" on="0"/>
        <pt x="321" y="833" on="1"/>
        <pt x="265" y="665" on="0"/>
        <pt x="265" y="482" on="1"/>
        <pt x="265" y="320" on="0"/>
        <pt x="282" y="240" on="1"/>
        <pt x="309" y="120" on="0"/>
        <pt x="365" y="-1" on="1"/>
        <pt x="66" y="-1" on="1"/>
        <pt x="90" y="59" on="0"/>
        <pt x="90" y="444" on="0"/>
        <pt x="148" y="779" on="0"/>
        <pt x="241" y="1041" on="0"/>
        <pt x="356" y="1238" on="0"/>
        <pt x="471" y="1385" on="0"/>
        <pt x="573" y="1490" on="0"/>
        <pt x="607" y="1530" on="1"/>
        <pt x="922" y="1530" on="1"/>
        <pt x="879" y="1481" on="0"/>
        <pt x="879" y="1393" on="1"/>
        <pt x="879" y="1353" on="0"/>
        <pt x="892" y="1262" on="1"/>
        <pt x="917" y="1080" on="1"/>
        <pt x="1054" y="136" on="0"/>
        <pt x="1162" y="0" on="1"/>
      </contour>
      <contour>
        <pt x="362" y="939" on="1"/>
        <pt x="401" y="954" on="0"/>
        <pt x="487" y="954" on="0"/>
        <pt x="556" y="942" on="0"/>
        <pt x="590" y="928" on="1"/>
        <pt x="663" y="900" on="0"/>
        <pt x="712" y="839" on="1"/>
        <pt x="663" y="1096" on="0"/>
        <pt x="652" y="1153" on="1"/>
        <pt x="617" y="1328" on="1"/>
        <pt x="560" y="1260" on="1"/>
        <pt x="440" y="1116" on="0"/>
      </contour>
    </TTGlyph>
    <TTGlyph name="AE" xMin="66" yMin="0" xMax="1612" yMax="1530">
      <contour>
        <pt x="66" y="0" on="1"/>
        <pt x="100" y="113" on="0"/>
        <pt x="100" y="359" on="0"/>
        <pt x="135" y="583" on="0"/>
        <pt x="164" y="679" on="1"/>
        <pt x="245" y="948" on="0"/>
        <pt x="440" y="1188" on="1"/>
        <pt x="552" y="1325" on="0"/>
        <pt x="727" y="1494" on="0"/>
        <pt x="757" y="1530" on="1"/>
        <pt x="1508" y="1530" on="1"/>
        <pt x="1576" y="1506" on="0"/>
        <pt x="1601" y="1362" on="1"/>
        <pt x="1608" y="1322" on="0"/>
        <pt x="1608" y="1284" on="1"/>
        <pt x="1608" y="1206" on="0"/>
        <pt x="1585" y="1160" on="1"/>
        <pt x="1532" y="1268" on="1"/>
        <pt x="1477" y="1374" on="0"/>
        <pt x="1376" y="1410" on="1"/>
        <pt x="1320" y="1430" on="0"/>
        <pt x="1180" y="1430" on="0"/>
        <pt x="1120" y="1421" on="0"/>
        <pt x="1104" y="1404" on="1"/>
        <pt x="1078" y="1375" on="0"/>
        <pt x="1078" y="1212" on="0"/>
        <pt x="1086" y="1149" on="0"/>
        <pt x="1102" y="1129" on="1"/>
        <pt x="1132" y="1090" on="0"/>
        <pt x="1232" y="1090" on="1"/>
        <pt x="1546" y="1090" on="1"/>
        <pt x="1523" y="1032" on="0"/>
        <pt x="1499" y="1008" on="1"/>
        <pt x="1451" y="960" on="0"/>
        <pt x="1369" y="960" on="1"/>
        <pt x="1337" y="960" on="0"/>
        <pt x="1308" y="967" on="1"/>
        <pt x="1254" y="980" on="0"/>
        <pt x="1172" y="980" on="0"/>
        <pt x="1119" y="965" on="0"/>
        <pt x="1104" y="949" on="1"/>
        <pt x="1078" y="921" on="0"/>
        <pt x="1078" y="848" on="1"/>
        <pt x="1078" y="371" on="1"/>
        <pt x="1078" y="183" on="0"/>
        <pt x="1120" y="113" on="0"/>
        <pt x="1180" y="100" on="0"/>
        <pt x="1320" y="100" on="0"/>
        <pt x="1434" y="140" on="0"/>
        <pt x="1511" y="212" on="0"/>
        <pt x="1561" y="311" on="0"/>
        <pt x="1585" y="370" on="1"/>
        <pt x="1612" y="333" on="0"/>
        <pt x="1612" y="193" on="0"/>
        <pt x="1600" y="110" on="0"/>
        <pt x="1587" y="76" on="1"/>
        <pt x="1557" y="0" on="0"/>
        <pt x="1508" y="0" on="1"/>
        <pt x="803" y="0" on="1"/>
        <pt x="830" y="73" on="0"/>
        <pt x="830" y="347" on="0"/>
        <pt x="757" y="616" on="0"/>
        <pt x="643" y="790" on="0"/>
        <pt x="503" y="872" on="0"/>
        <pt x="437" y="872" on="1"/>
        <pt x="427" y="872" on="1"/>
        <pt x="281" y="598" on="0"/>
        <pt x="281" y="149" on="0"/>
        <pt x="365" y="0" on="1"/>
      </contour>
      <contour>
        <pt x="831" y="1359" on="1"/>
        <pt x="759" y="1292" on="1"/>
        <pt x="599" y="1140" on="0"/>
        <pt x="482" y="964" on="1"/>
        <pt x="500" y="967" on="0"/>
        <pt x="575" y="967" on="0"/>
        <pt x="669" y="936" on="0"/>
        <pt x="708" y="908" on="1"/>
        <pt x="786" y="854" on="0"/>
        <pt x="831" y="755" on="1"/>
      </contour>
    </TTGlyph>
    <TTGlyph name="AEacute" xMin="66" yMin="0" xMax="1612" yMax="1992">
      <contour>
        <pt x="66" y="0" on="1"/>
        <pt x="100" y="113" on="0"/>
        <pt x="100" y="359" on="0"/>
        <pt x="135" y="583" on="0"/>
        <pt x="164" y="679" on="1"/>
        <pt x="245" y="948" on="0"/>
        <pt x="440" y="1188" on="1"/>
        <pt x="552" y="1325" on="0"/>
        <pt x="727" y="1494" on="0"/>
        <pt x="757" y="1530" on="1"/>
        <pt x="1508" y="1530" on="1"/>
        <pt x="1576" y="1506" on="0"/>
        <pt x="1601" y="1362" on="1"/>
        <pt x="1608" y="1322" on="0"/>
        <pt x="1608" y="1284" on="1"/>
        <pt x="1608" y="1206" on="0"/>
        <pt x="1585" y="1160" on="1"/>
        <pt x="1532" y="1268" on="1"/>
        <pt x="1477" y="1374" on="0"/>
        <pt x="1376" y="1410" on="1"/>
        <pt x="1320" y="1430" on="0"/>
        <pt x="1180" y="1430" on="0"/>
        <pt x="1120" y="1421" on="0"/>
        <pt x="1104" y="1404" on="1"/>
        <pt x="1078" y="1375" on="0"/>
        <pt x="1078" y="1212" on="0"/>
        <pt x="1086" y="1149" on="0"/>
        <pt x="1102" y="1129" on="1"/>
        <pt x="1132" y="1090" on="0"/>
        <pt x="1232" y="1090" on="1"/>
        <pt x="1546" y="1090" on="1"/>
        <pt x="1523" y="1032" on="0"/>
        <pt x="1499" y="1008" on="1"/>
        <pt x="1451" y="960" on="0"/>
        <pt x="1369" y="960" on="1"/>
        <pt x="1337" y="960" on="0"/>
        <pt x="1308" y="967" on="1"/>
        <pt x="1254" y="980" on="0"/>
        <pt x="1172" y="980" on="0"/>
        <pt x="1119" y="965" on="0"/>
        <pt x="1104" y="949" on="1"/>
        <pt x="1078" y="921" on="0"/>
        <pt x="1078" y="848" on="1"/>
        <pt x="1078" y="371" on="1"/>
        <pt x="1078" y="183" on="0"/>
        <pt x="1120" y="113" on="0"/>
        <pt x="1180" y="100" on="0"/>
        <pt x="1320" y="100" on="0"/>
        <pt x="1434" y="140" on="0"/>
        <pt x="1511" y="212" on="0"/>
        <pt x="1561" y="311" on="0"/>
        <pt x="1585" y="370" on="1"/>
        <pt x="1612" y="333" on="0"/>
        <pt x="1612" y="193" on="0"/>
        <pt x="1600" y="110" on="0"/>
        <pt x="1587" y="76" on="1"/>
        <pt x="1557" y="0" on="0"/>
        <pt x="1508" y="0" on="1"/>
        <pt x="803" y="0" on="1"/>
        <pt x="830" y="73" on="0"/>
        <pt x="830" y="347" on="0"/>
        <pt x="757" y="616" on="0"/>
        <pt x="643" y="790" on="0"/>
        <pt x="503" y="872" on="0"/>
        <pt x="437" y="872" on="1"/>
        <pt x="427" y="872" on="1"/>
        <pt x="281" y="598" on="0"/>
        <pt x="281" y="149" on="0"/>
        <pt x="365" y="0" on="1"/>
      </contour>
      <contour>
        <pt x="831" y="1359" on="1"/>
        <pt x="759" y="1292" on="1"/>
        <pt x="599" y="1140" on="0"/>
        <pt x="482" y="964" on="1"/>
        <pt x="500" y="967" on="0"/>
        <pt x="575" y="967" on="0"/>
        <pt x="669" y="936" on="0"/>
        <pt x="708" y="908" on="1"/>
        <pt x="786" y="854" on="0"/>
        <pt x="831" y="755" on="1"/>
      </contour>
      <contour>
        <pt x="1426" y="1992" on="1"/>
        <pt x="1329" y="1848" on="0"/>
        <pt x="1157" y="1734" on="1"/>
        <pt x="1114" y="1706" on="0"/>
        <pt x="1087" y="1692" on="1"/>
        <pt x="939" y="1692" on="1"/>
        <pt x="956" y="1708" on="0"/>
        <pt x="979" y="1736" on="1"/>
        <pt x="979" y="1736" on="0"/>
        <pt x="1079" y="1860" on="1"/>
        <pt x="1169" y="1976" on="0"/>
        <pt x="1169" y="1992" on="1"/>
      </contour>
    </TTGlyph>
    <TTGlyph name="Aacute" xMin="66" yMin="-1" xMax="1162" yMax="1992">
      <contour>
        <pt x="813" y="0" on="1"/>
        <pt x="826" y="63" on="0"/>
        <pt x="826" y="138" on="0"/>
        <pt x="823" y="176" on="0"/>
        <pt x="818" y="219" on="0"/>
        <pt x="811" y="272" on="0"/>
        <pt x="808" y="307" on="1"/>
        <pt x="785" y="546" on="0"/>
        <pt x="645" y="700" on="1"/>
        <pt x="583" y="768" on="0"/>
        <pt x="439" y="839" on="0"/>
        <pt x="346" y="839" on="0"/>
        <pt x="321" y="833" on="1"/>
        <pt x="265" y="665" on="0"/>
        <pt x="265" y="482" on="1"/>
        <pt x="265" y="320" on="0"/>
        <pt x="282" y="240" on="1"/>
        <pt x="309" y="120" on="0"/>
        <pt x="365" y="-1" on="1"/>
        <pt x="66" y="-1" on="1"/>
        <pt x="90" y="59" on="0"/>
        <pt x="90" y="444" on="0"/>
        <pt x="148" y="779" on="0"/>
        <pt x="241" y="1041" on="0"/>
        <pt x="356" y="1238" on="0"/>
        <pt x="471" y="1385" on="0"/>
        <pt x="573" y="1490" on="0"/>
        <pt x="607" y="1530" on="1"/>
        <pt x="922" y="1530" on="1"/>
        <pt x="879" y="1481" on="0"/>
        <pt x="879" y="1393" on="1"/>
        <pt x="879" y="1353" on="0"/>
        <pt x="892" y="1262" on="1"/>
        <pt x="917" y="1080" on="1"/>
        <pt x="1054" y="136" on="0"/>
        <pt x="1162" y="0" on="1"/>
      </contour>
      <contour>
        <pt x="362" y="939" on="1"/>
        <pt x="401" y="954" on="0"/>
        <pt x="487" y="954" on="0"/>
        <pt x="556" y="942" on="0"/>
        <pt x="590" y="928" on="1"/>
        <pt x="663" y="900" on="0"/>
        <pt x="712" y="839" on="1"/>
        <pt x="663" y="1096" on="0"/>
        <pt x="652" y="1153" on="1"/>
        <pt x="617" y="1328" on="1"/>
        <pt x="560" y="1260" on="1"/>
        <pt x="440" y="1116" on="0"/>
      </contour>
      <contour>
        <pt x="1127" y="1992" on="1"/>
        <pt x="1030" y="1848" on="0"/>
        <pt x="858" y="1734" on="1"/>
        <pt x="815" y="1706" on="0"/>
        <pt x="788" y="1692" on="1"/>
        <pt x="640" y="1692" on="1"/>
        <pt x="657" y="1708" on="0"/>
        <pt x="680" y="1736" on="1"/>
        <pt x="680" y="1736" on="0"/>
        <pt x="780" y="1860" on="1"/>
        <pt x="870" y="1976" on="0"/>
        <pt x="870" y="1992" on="1"/>
      </contour>
    </TTGlyph>
    <TTGlyph name="Abreve" xMin="66" yMin="-1" xMax="1162" yMax="1980">
      <contour>
        <pt x="813" y="0" on="1"/>
        <pt x="826" y="63" on="0"/>
        <pt x="826" y="138" on="0"/>
        <pt x="823" y="176" on="0"/>
        <pt x="818" y="219" on="0"/>
        <pt x="811" y="272" on="0"/>
        <pt x="808" y="307" on="1"/>
        <pt x="785" y="546" on="0"/>
        <pt x="645" y="700" on="1"/>
        <pt x="583" y="768" on="0"/>
        <pt x="439" y="839" on="0"/>
        <pt x="346" y="839" on="0"/>
        <pt x="321" y="833" on="1"/>
        <pt x="265" y="665" on="0"/>
        <pt x="265" y="482" on="1"/>
        <pt x="265" y="320" on="0"/>
        <pt x="282" y="240" on="1"/>
        <pt x="309" y="120" on="0"/>
        <pt x="365" y="-1" on="1"/>
        <pt x="66" y="-1" on="1"/>
        <pt x="90" y="59" on="0"/>
        <pt x="90" y="444" on="0"/>
        <pt x="148" y="779" on="0"/>
        <pt x="241" y="1041" on="0"/>
        <pt x="356" y="1238" on="0"/>
        <pt x="471" y="1385" on="0"/>
        <pt x="573" y="1490" on="0"/>
        <pt x="607" y="1530" on="1"/>
        <pt x="922" y="1530" on="1"/>
        <pt x="879" y="1481" on="0"/>
        <pt x="879" y="1393" on="1"/>
        <pt x="879" y="1353" on="0"/>
        <pt x="892" y="1262" on="1"/>
        <pt x="917" y="1080" on="1"/>
        <pt x="1054" y="136" on="0"/>
        <pt x="1162" y="0" on="1"/>
      </contour>
      <contour>
        <pt x="362" y="939" on="1"/>
        <pt x="401" y="954" on="0"/>
        <pt x="487" y="954" on="0"/>
        <pt x="556" y="942" on="0"/>
        <pt x="590" y="928" on="1"/>
        <pt x="663" y="900" on="0"/>
        <pt x="712" y="839" on="1"/>
        <pt x="663" y="1096" on="0"/>
        <pt x="652" y="1153" on="1"/>
        <pt x="617" y="1328" on="1"/>
        <pt x="560" y="1260" on="1"/>
        <pt x="440" y="1116" on="0"/>
      </contour>
      <contour>
        <pt x="663" y="1790" on="1"/>
        <pt x="702" y="1775" on="0"/>
        <pt x="801" y="1775" on="0"/>
        <pt x="874" y="1806" on="0"/>
        <pt x="901" y="1834" on="1"/>
        <pt x="960" y="1895" on="0"/>
        <pt x="960" y="1980" on="1"/>
        <pt x="1084" y="1980" on="1"/>
        <pt x="1084" y="1858" on="0"/>
        <pt x="1019" y="1752" on="1"/>
        <pt x="933" y="1610" on="0"/>
        <pt x="766" y="1610" on="1"/>
        <pt x="521" y="1610" on="0"/>
        <pt x="443" y="1832" on="1"/>
        <pt x="418" y="1905" on="0"/>
        <pt x="418" y="1980" on="1"/>
        <pt x="552" y="1980" on="1"/>
        <pt x="552" y="1834" on="0"/>
      </contour>
    </TTGlyph>
    <TTGlyph name="Acircumflex" xMin="66" yMin="-1" xMax="1162" yMax="1981">
      <contour>
        <pt x="813" y="0" on="1"/>
        <pt x="826" y="63" on="0"/>
        <pt x="826" y="138" on="0"/>
        <pt x="823" y="176" on="0"/>
        <pt x="818" y="219" on="0"/>
        <pt x="811" y="272" on="0"/>
        <pt x="808" y="307" on="1"/>
        <pt x="785" y="546" on="0"/>
        <pt x="645" y="700" on="1"/>
        <pt x="583" y="768" on="0"/>
        <pt x="439" y="839" on="0"/>
        <pt x="346" y="839" on="0"/>
        <pt x="321" y="833" on="1"/>
        <pt x="265" y="665" on="0"/>
        <pt x="265" y="482" on="1"/>
        <pt x="265" y="320" on="0"/>
        <pt x="282" y="240" on="1"/>
        <pt x="309" y="120" on="0"/>
        <pt x="365" y="-1" on="1"/>
        <pt x="66" y="-1" on="1"/>
        <pt x="90" y="59" on="0"/>
        <pt x="90" y="444" on="0"/>
        <pt x="148" y="779" on="0"/>
        <pt x="241" y="1041" on="0"/>
        <pt x="356" y="1238" on="0"/>
        <pt x="471" y="1385" on="0"/>
        <pt x="573" y="1490" on="0"/>
        <pt x="607" y="1530" on="1"/>
        <pt x="922" y="1530" on="1"/>
        <pt x="879" y="1481" on="0"/>
        <pt x="879" y="1393" on="1"/>
        <pt x="879" y="1353" on="0"/>
        <pt x="892" y="1262" on="1"/>
        <pt x="917" y="1080" on="1"/>
        <pt x="1054" y="136" on="0"/>
        <pt x="1162" y="0" on="1"/>
      </contour>
      <contour>
        <pt x="362" y="939" on="1"/>
        <pt x="401" y="954" on="0"/>
        <pt x="487" y="954" on="0"/>
        <pt x="556" y="942" on="0"/>
        <pt x="590" y="928" on="1"/>
        <pt x="663" y="900" on="0"/>
        <pt x="712" y="839" on="1"/>
        <pt x="663" y="1096" on="0"/>
        <pt x="652" y="1153" on="1"/>
        <pt x="617" y="1328" on="1"/>
        <pt x="560" y="1260" on="1"/>
        <pt x="440" y="1116" on="0"/>
      </contour>
      <contour>
        <pt x="968" y="1681" on="1"/>
        <pt x="844" y="1736" on="0"/>
        <pt x="725" y="1836" on="1"/>
        <pt x="596" y="1731" on="0"/>
        <pt x="484" y="1681" on="1"/>
        <pt x="381" y="1681" on="1"/>
        <pt x="399" y="1698" on="0"/>
        <pt x="424" y="1726" on="1"/>
        <pt x="543" y="1868" on="0"/>
        <pt x="571" y="1903" on="1"/>
        <pt x="612" y="1957" on="1"/>
        <pt x="627" y="1976" on="0"/>
        <pt x="629" y="1981" on="1"/>
        <pt x="823" y="1981" on="1"/>
        <pt x="825" y="1976" on="0"/>
        <pt x="840" y="1957" on="1"/>
        <pt x="1031" y="1719" on="0"/>
        <pt x="1071" y="1681" on="1"/>
      </contour>
    </TTGlyph>
    <TTGlyph name="Adieresis" xMin="66" yMin="-1" xMax="1162" yMax="1960">
      <contour>
        <pt x="813" y="0" on="1"/>
        <pt x="826" y="63" on="0"/>
        <pt x="826" y="138" on="0"/>
        <pt x="823" y="176" on="0"/>
        <pt x="818" y="219" on="0"/>
        <pt x="811" y="272" on="0"/>
        <pt x="808" y="307" on="1"/>
        <pt x="785" y="546" on="0"/>
        <pt x="645" y="700" on="1"/>
        <pt x="583" y="768" on="0"/>
        <pt x="439" y="839" on="0"/>
        <pt x="346" y="839" on="0"/>
        <pt x="321" y="833" on="1"/>
        <pt x="265" y="665" on="0"/>
        <pt x="265" y="482" on="1"/>
        <pt x="265" y="320" on="0"/>
        <pt x="282" y="240" on="1"/>
        <pt x="309" y="120" on="0"/>
        <pt x="365" y="-1" on="1"/>
        <pt x="66" y="-1" on="1"/>
        <pt x="90" y="59" on="0"/>
        <pt x="90" y="444" on="0"/>
        <pt x="148" y="779" on="0"/>
        <pt x="241" y="1041" on="0"/>
        <pt x="356" y="1238" on="0"/>
        <pt x="471" y="1385" on="0"/>
        <pt x="573" y="1490" on="0"/>
        <pt x="607" y="1530" on="1"/>
        <pt x="922" y="1530" on="1"/>
        <pt x="879" y="1481" on="0"/>
        <pt x="879" y="1393" on="1"/>
        <pt x="879" y="1353" on="0"/>
        <pt x="892" y="1262" on="1"/>
        <pt x="917" y="1080" on="1"/>
        <pt x="1054" y="136" on="0"/>
        <pt x="1162" y="0" on="1"/>
      </contour>
      <contour>
        <pt x="362" y="939" on="1"/>
        <pt x="401" y="954" on="0"/>
        <pt x="487" y="954" on="0"/>
        <pt x="556" y="942" on="0"/>
        <pt x="590" y="928" on="1"/>
        <pt x="663" y="900" on="0"/>
        <pt x="712" y="839" on="1"/>
        <pt x="663" y="1096" on="0"/>
        <pt x="652" y="1153" on="1"/>
        <pt x="617" y="1328" on="1"/>
        <pt x="560" y="1260" on="1"/>
        <pt x="440" y="1116" on="0"/>
      </contour>
      <contour>
        <pt x="600" y="1696" on="0"/>
        <pt x="550" y="1658" on="0"/>
        <pt x="488" y="1658" on="0"/>
        <pt x="439" y="1696" on="0"/>
        <pt x="422" y="1724" on="1"/>
        <pt x="387" y="1782" on="0"/>
        <pt x="387" y="1869" on="0"/>
        <pt x="401" y="1909" on="0"/>
        <pt x="417" y="1925" on="1"/>
        <pt x="452" y="1960" on="0"/>
        <pt x="557" y="1960" on="0"/>
        <pt x="607" y="1941" on="0"/>
        <pt x="623" y="1925" on="1"/>
        <pt x="653" y="1895" on="0"/>
        <pt x="653" y="1818" on="0"/>
        <pt x="634" y="1752" on="0"/>
      </contour>
      <contour>
        <pt x="1012" y="1696" on="0"/>
        <pt x="962" y="1658" on="0"/>
        <pt x="900" y="1658" on="0"/>
        <pt x="851" y="1696" on="0"/>
        <pt x="834" y="1724" on="1"/>
        <pt x="799" y="1782" on="0"/>
        <pt x="799" y="1869" on="0"/>
        <pt x="813" y="1909" on="0"/>
        <pt x="829" y="1925" on="1"/>
        <pt x="862" y="1960" on="0"/>
        <pt x="968" y="1960" on="0"/>
        <pt x="1019" y="1941" on="0"/>
        <pt x="1035" y="1925" on="1"/>
        <pt x="1065" y="1895" on="0"/>
        <pt x="1065" y="1818" on="0"/>
        <pt x="1046" y="1752" on="0"/>
      </contour>
    </TTGlyph>
    <TTGlyph name="Agrave" xMin="66" yMin="-1" xMax="1162" yMax="1993">
      <contour>
        <pt x="813" y="0" on="1"/>
        <pt x="826" y="63" on="0"/>
        <pt x="826" y="138" on="0"/>
        <pt x="823" y="176" on="0"/>
        <pt x="818" y="219" on="0"/>
        <pt x="811" y="272" on="0"/>
        <pt x="808" y="307" on="1"/>
        <pt x="785" y="546" on="0"/>
        <pt x="645" y="700" on="1"/>
        <pt x="583" y="768" on="0"/>
        <pt x="439" y="839" on="0"/>
        <pt x="346" y="839" on="0"/>
        <pt x="321" y="833" on="1"/>
        <pt x="265" y="665" on="0"/>
        <pt x="265" y="482" on="1"/>
        <pt x="265" y="320" on="0"/>
        <pt x="282" y="240" on="1"/>
        <pt x="309" y="120" on="0"/>
        <pt x="365" y="-1" on="1"/>
        <pt x="66" y="-1" on="1"/>
        <pt x="90" y="59" on="0"/>
        <pt x="90" y="444" on="0"/>
        <pt x="148" y="779" on="0"/>
        <pt x="241" y="1041" on="0"/>
        <pt x="356" y="1238" on="0"/>
        <pt x="471" y="1385" on="0"/>
        <pt x="573" y="1490" on="0"/>
        <pt x="607" y="1530" on="1"/>
        <pt x="922" y="1530" on="1"/>
        <pt x="879" y="1481" on="0"/>
        <pt x="879" y="1393" on="1"/>
        <pt x="879" y="1353" on="0"/>
        <pt x="892" y="1262" on="1"/>
        <pt x="917" y="1080" on="1"/>
        <pt x="1054" y="136" on="0"/>
        <pt x="1162" y="0" on="1"/>
      </contour>
      <contour>
        <pt x="362" y="939" on="1"/>
        <pt x="401" y="954" on="0"/>
        <pt x="487" y="954" on="0"/>
        <pt x="556" y="942" on="0"/>
        <pt x="590" y="928" on="1"/>
        <pt x="663" y="900" on="0"/>
        <pt x="712" y="839" on="1"/>
        <pt x="663" y="1096" on="0"/>
        <pt x="652" y="1153" on="1"/>
        <pt x="617" y="1328" on="1"/>
        <pt x="560" y="1260" on="1"/>
        <pt x="440" y="1116" on="0"/>
      </contour>
      <contour>
        <pt x="630" y="1993" on="1"/>
        <pt x="630" y="1977" on="0"/>
        <pt x="688" y="1902" on="1"/>
        <pt x="826" y="1725" on="0"/>
        <pt x="860" y="1693" on="1"/>
        <pt x="712" y="1693" on="1"/>
        <pt x="586" y="1758" on="0"/>
        <pt x="458" y="1890" on="1"/>
        <pt x="410" y="1938" on="0"/>
        <pt x="373" y="1993" on="1"/>
      </contour>
    </TTGlyph>
    <TTGlyph name="Amacron" xMin="66" yMin="-1" xMax="1162" yMax="1913">
      <contour>
        <pt x="813" y="0" on="1"/>
        <pt x="826" y="63" on="0"/>
        <pt x="826" y="138" on="0"/>
        <pt x="823" y="176" on="0"/>
        <pt x="818" y="219" on="0"/>
        <pt x="811" y="272" on="0"/>
        <pt x="808" y="307" on="1"/>
        <pt x="785" y="546" on="0"/>
        <pt x="645" y="700" on="1"/>
        <pt x="583" y="768" on="0"/>
        <pt x="439" y="839" on="0"/>
        <pt x="346" y="839" on="0"/>
        <pt x="321" y="833" on="1"/>
        <pt x="265" y="665" on="0"/>
        <pt x="265" y="482" on="1"/>
        <pt x="265" y="320" on="0"/>
        <pt x="282" y="240" on="1"/>
        <pt x="309" y="120" on="0"/>
        <pt x="365" y="-1" on="1"/>
        <pt x="66" y="-1" on="1"/>
        <pt x="90" y="59" on="0"/>
        <pt x="90" y="444" on="0"/>
        <pt x="148" y="779" on="0"/>
        <pt x="241" y="1041" on="0"/>
        <pt x="356" y="1238" on="0"/>
        <pt x="471" y="1385" on="0"/>
        <pt x="573" y="1490" on="0"/>
        <pt x="607" y="1530" on="1"/>
        <pt x="922" y="1530" on="1"/>
        <pt x="879" y="1481" on="0"/>
        <pt x="879" y="1393" on="1"/>
        <pt x="879" y="1353" on="0"/>
        <pt x="892" y="1262" on="1"/>
        <pt x="917" y="1080" on="1"/>
        <pt x="1054" y="136" on="0"/>
        <pt x="1162" y="0" on="1"/>
      </contour>
      <contour>
        <pt x="362" y="939" on="1"/>
        <pt x="401" y="954" on="0"/>
        <pt x="487" y="954" on="0"/>
        <pt x="556" y="942" on="0"/>
        <pt x="590" y="928" on="1"/>
        <pt x="663" y="900" on="0"/>
        <pt x="712" y="839" on="1"/>
        <pt x="663" y="1096" on="0"/>
        <pt x="652" y="1153" on="1"/>
        <pt x="617" y="1328" on="1"/>
        <pt x="560" y="1260" on="1"/>
        <pt x="440" y="1116" on="0"/>
      </contour>
      <contour>
        <pt x="370" y="1913" on="1"/>
        <pt x="464" y="1893" on="0"/>
        <pt x="971" y="1893" on="0"/>
        <pt x="1062" y="1913" on="1"/>
        <pt x="1062" y="1723" on="1"/>
        <pt x="971" y="1743" on="0"/>
        <pt x="464" y="1743" on="0"/>
        <pt x="370" y="1723" on="1"/>
      </contour>
    </TTGlyph>
    <TTGlyph name="Aogonek" xMin="66" yMin="-482" xMax="1162" yMax="1530">
      <contour>
        <pt x="1001" y="-361" on="1"/>
        <pt x="1040" y="-361" on="0"/>
        <pt x="1079" y="-346" on="1"/>
        <pt x="1088" y="-392" on="0"/>
        <pt x="1073" y="-430" on="1"/>
        <pt x="1029" y="-465" on="0"/>
        <pt x="936" y="-478" on="1"/>
        <pt x="908" y="-482" on="0"/>
        <pt x="840" y="-482" on="0"/>
        <pt x="757" y="-457" on="0"/>
        <pt x="724" y="-432" on="1"/>
        <pt x="652" y="-376" on="0"/>
        <pt x="652" y="-284" on="1"/>
        <pt x="652" y="-207" on="0"/>
        <pt x="769" y="-57" on="1"/>
        <pt x="797" y="-21" on="0"/>
        <pt x="816" y="15" on="1"/>
        <pt x="826" y="79" on="0"/>
        <pt x="826" y="137" on="0"/>
        <pt x="823" y="175" on="0"/>
        <pt x="820" y="196" on="1"/>
        <pt x="813" y="243" on="0"/>
        <pt x="796" y="434" on="0"/>
        <pt x="707" y="632" on="0"/>
        <pt x="583" y="768" on="0"/>
        <pt x="439" y="839" on="0"/>
        <pt x="346" y="839" on="0"/>
        <pt x="321" y="833" on="1"/>
        <pt x="265" y="665" on="0"/>
        <pt x="265" y="482" on="1"/>
        <pt x="265" y="320" on="0"/>
        <pt x="282" y="240" on="1"/>
        <pt x="309" y="120" on="0"/>
        <pt x="365" y="-1" on="1"/>
        <pt x="66" y="-1" on="1"/>
        <pt x="90" y="59" on="0"/>
        <pt x="90" y="444" on="0"/>
        <pt x="148" y="779" on="0"/>
        <pt x="241" y="1041" on="0"/>
        <pt x="356" y="1238" on="0"/>
        <pt x="471" y="1385" on="0"/>
        <pt x="573" y="1490" on="0"/>
        <pt x="607" y="1530" on="1"/>
        <pt x="922" y="1530" on="1"/>
        <pt x="879" y="1481" on="0"/>
        <pt x="879" y="1393" on="1"/>
        <pt x="879" y="1353" on="0"/>
        <pt x="892" y="1262" on="1"/>
        <pt x="917" y="1080" on="1"/>
        <pt x="1054" y="136" on="0"/>
        <pt x="1162" y="0" on="1"/>
        <pt x="969" y="0" on="1"/>
        <pt x="928" y="-50" on="1"/>
        <pt x="847" y="-145" on="0"/>
        <pt x="847" y="-212" on="1"/>
        <pt x="847" y="-361" on="0"/>
      </contour>
      <contour>
        <pt x="362" y="939" on="1"/>
        <pt x="401" y="954" on="0"/>
        <pt x="487" y="954" on="0"/>
        <pt x="556" y="942" on="0"/>
        <pt x="590" y="928" on="1"/>
        <pt x="663" y="900" on="0"/>
        <pt x="712" y="839" on="1"/>
        <pt x="663" y="1096" on="0"/>
        <pt x="652" y="1153" on="1"/>
        <pt x="617" y="1328" on="1"/>
        <pt x="560" y="1260" on="1"/>
        <pt x="440" y="1116" on="0"/>
      </contour>
    </TTGlyph>
    <TTGlyph name="Aring" xMin="66" yMin="-1" xMax="1162" yMax="2020">
      <contour>
        <pt x="813" y="0" on="1"/>
        <pt x="826" y="63" on="0"/>
        <pt x="826" y="138" on="0"/>
        <pt x="823" y="176" on="0"/>
        <pt x="818" y="219" on="0"/>
        <pt x="811" y="272" on="0"/>
        <pt x="808" y="307" on="1"/>
        <pt x="785" y="546" on="0"/>
        <pt x="645" y="700" on="1"/>
        <pt x="583" y="768" on="0"/>
        <pt x="439" y="839" on="0"/>
        <pt x="346" y="839" on="0"/>
        <pt x="321" y="833" on="1"/>
        <pt x="265" y="665" on="0"/>
        <pt x="265" y="482" on="1"/>
        <pt x="265" y="320" on="0"/>
        <pt x="282" y="240" on="1"/>
        <pt x="309" y="120" on="0"/>
        <pt x="365" y="-1" on="1"/>
        <pt x="66" y="-1" on="1"/>
        <pt x="90" y="59" on="0"/>
        <pt x="90" y="444" on="0"/>
        <pt x="148" y="779" on="0"/>
        <pt x="241" y="1041" on="0"/>
        <pt x="356" y="1238" on="0"/>
        <pt x="471" y="1385" on="0"/>
        <pt x="573" y="1490" on="0"/>
        <pt x="607" y="1530" on="1"/>
        <pt x="922" y="1530" on="1"/>
        <pt x="879" y="1481" on="0"/>
        <pt x="879" y="1393" on="1"/>
        <pt x="879" y="1353" on="0"/>
        <pt x="892" y="1262" on="1"/>
        <pt x="917" y="1080" on="1"/>
        <pt x="1054" y="136" on="0"/>
        <pt x="1162" y="0" on="1"/>
      </contour>
      <contour>
        <pt x="362" y="939" on="1"/>
        <pt x="401" y="954" on="0"/>
        <pt x="487" y="954" on="0"/>
        <pt x="556" y="942" on="0"/>
        <pt x="590" y="928" on="1"/>
        <pt x="663" y="900" on="0"/>
        <pt x="712" y="839" on="1"/>
        <pt x="663" y="1096" on="0"/>
        <pt x="652" y="1153" on="1"/>
        <pt x="617" y="1328" on="1"/>
        <pt x="560" y="1260" on="1"/>
        <pt x="440" y="1116" on="0"/>
      </contour>
      <contour>
        <pt x="726" y="1937" on="1"/>
        <pt x="621" y="1937" on="0"/>
        <pt x="621" y="1807" on="1"/>
        <pt x="621" y="1744" on="0"/>
        <pt x="683" y="1679" on="0"/>
        <pt x="726" y="1679" on="1"/>
        <pt x="769" y="1679" on="0"/>
        <pt x="831" y="1744" on="0"/>
        <pt x="831" y="1807" on="1"/>
        <pt x="831" y="1937" on="0"/>
      </contour>
      <contour>
        <pt x="988" y="1807" on="1"/>
        <pt x="988" y="1708" on="0"/>
        <pt x="909" y="1650" on="1"/>
        <pt x="836" y="1596" on="0"/>
        <pt x="726" y="1596" on="1"/>
        <pt x="615" y="1596" on="0"/>
        <pt x="542" y="1650" on="1"/>
        <pt x="464" y="1707" on="0"/>
        <pt x="464" y="1807" on="1"/>
        <pt x="464" y="1908" on="0"/>
        <pt x="542" y="1966" on="1"/>
        <pt x="614" y="2020" on="0"/>
        <pt x="726" y="2020" on="1"/>
        <pt x="901" y="2020" on="0"/>
        <pt x="966" y="1899" on="1"/>
        <pt x="988" y="1859" on="0"/>
      </contour>
    </TTGlyph>
    <TTGlyph name="Atilde" xMin="66" yMin="-1" xMax="1162" yMax="1995">
      <contour>
        <pt x="813" y="0" on="1"/>
        <pt x="826" y="63" on="0"/>
        <pt x="826" y="138" on="0"/>
        <pt x="823" y="176" on="0"/>
        <pt x="818" y="219" on="0"/>
        <pt x="811" y="272" on="0"/>
        <pt x="808" y="307" on="1"/>
        <pt x="785" y="546" on="0"/>
        <pt x="645" y="700" on="1"/>
        <pt x="583" y="768" on="0"/>
        <pt x="439" y="839" on="0"/>
        <pt x="346" y="839" on="0"/>
        <pt x="321" y="833" on="1"/>
        <pt x="265" y="665" on="0"/>
        <pt x="265" y="482" on="1"/>
        <pt x="265" y="320" on="0"/>
        <pt x="282" y="240" on="1"/>
        <pt x="309" y="120" on="0"/>
        <pt x="365" y="-1" on="1"/>
        <pt x="66" y="-1" on="1"/>
        <pt x="90" y="59" on="0"/>
        <pt x="90" y="444" on="0"/>
        <pt x="148" y="779" on="0"/>
        <pt x="241" y="1041" on="0"/>
        <pt x="356" y="1238" on="0"/>
        <pt x="471" y="1385" on="0"/>
        <pt x="573" y="1490" on="0"/>
        <pt x="607" y="1530" on="1"/>
        <pt x="922" y="1530" on="1"/>
        <pt x="879" y="1481" on="0"/>
        <pt x="879" y="1393" on="1"/>
        <pt x="879" y="1353" on="0"/>
        <pt x="892" y="1262" on="1"/>
        <pt x="917" y="1080" on="1"/>
        <pt x="1054" y="136" on="0"/>
        <pt x="1162" y="0" on="1"/>
      </contour>
      <contour>
        <pt x="362" y="939" on="1"/>
        <pt x="401" y="954" on="0"/>
        <pt x="487" y="954" on="0"/>
        <pt x="556" y="942" on="0"/>
        <pt x="590" y="928" on="1"/>
        <pt x="663" y="900" on="0"/>
        <pt x="712" y="839" on="1"/>
        <pt x="663" y="1096" on="0"/>
        <pt x="652" y="1153" on="1"/>
        <pt x="617" y="1328" on="1"/>
        <pt x="560" y="1260" on="1"/>
        <pt x="440" y="1116" on="0"/>
      </contour>
      <contour>
        <pt x="353" y="1775" on="1"/>
        <pt x="403" y="1881" on="0"/>
        <pt x="545" y="1995" on="0"/>
        <pt x="662" y="1995" on="0"/>
        <pt x="724" y="1976" on="0"/>
        <pt x="771" y="1947" on="0"/>
        <pt x="807" y="1913" on="0"/>
        <pt x="824" y="1898" on="1"/>
        <pt x="863" y="1865" on="0"/>
        <pt x="926" y="1865" on="0"/>
        <pt x="969" y="1884" on="0"/>
        <pt x="1003" y="1914" on="0"/>
        <pt x="1017" y="1932" on="1"/>
        <pt x="1042" y="1965" on="1"/>
        <pt x="1102" y="1905" on="1"/>
        <pt x="1053" y="1808" on="0"/>
        <pt x="917" y="1705" on="0"/>
        <pt x="803" y="1705" on="0"/>
        <pt x="741" y="1724" on="0"/>
        <pt x="694" y="1753" on="0"/>
        <pt x="658" y="1787" on="0"/>
        <pt x="641" y="1802" on="1"/>
        <pt x="602" y="1835" on="0"/>
        <pt x="539" y="1835" on="0"/>
        <pt x="496" y="1816" on="0"/>
        <pt x="462" y="1786" on="0"/>
        <pt x="449" y="1768" on="1"/>
        <pt x="423" y="1735" on="1"/>
      </contour>
    </TTGlyph>
    <TTGlyph name="B" xMin="59" yMin="0" xMax="1092" yMax="1530">
      <contour>
        <pt x="1052" y="1311" on="1"/>
        <pt x="1052" y="1143" on="0"/>
        <pt x="806" y="1035" on="1"/>
        <pt x="1010" y="997" on="0"/>
        <pt x="1072" y="850" on="1"/>
        <pt x="1092" y="801" on="0"/>
        <pt x="1092" y="640" on="0"/>
        <pt x="1045" y="453" on="0"/>
        <pt x="944" y="288" on="0"/>
        <pt x="788" y="152" on="0"/>
        <pt x="679" y="103" on="1"/>
        <pt x="450" y="0" on="0"/>
        <pt x="113" y="0" on="1"/>
        <pt x="145" y="76" on="0"/>
        <pt x="156" y="178" on="0"/>
        <pt x="160" y="236" on="1"/>
        <pt x="168" y="354" on="0"/>
        <pt x="168" y="553" on="1"/>
        <pt x="168" y="794" on="0"/>
        <pt x="160" y="993" on="1"/>
        <pt x="149" y="1268" on="1"/>
        <pt x="145" y="1372" on="0"/>
        <pt x="131" y="1413" on="1"/>
        <pt x="109" y="1478" on="0"/>
        <pt x="59" y="1530" on="1"/>
        <pt x="588" y="1530" on="1"/>
        <pt x="830" y="1530" on="0"/>
        <pt x="938" y="1482" on="1"/>
        <pt x="1052" y="1432" on="0"/>
      </contour>
      <contour>
        <pt x="401" y="793" on="1"/>
        <pt x="402" y="285" on="1"/>
        <pt x="402" y="228" on="0"/>
        <pt x="427" y="170" on="0"/>
        <pt x="465" y="170" on="1"/>
        <pt x="619" y="170" on="0"/>
        <pt x="722" y="316" on="1"/>
        <pt x="828" y="466" on="0"/>
        <pt x="828" y="706" on="1"/>
        <pt x="828" y="825" on="0"/>
        <pt x="775" y="883" on="1"/>
        <pt x="705" y="960" on="0"/>
        <pt x="524" y="960" on="1"/>
        <pt x="483" y="960" on="0"/>
        <pt x="435" y="953" on="0"/>
        <pt x="422" y="937" on="1"/>
        <pt x="401" y="911" on="0"/>
      </contour>
      <contour>
        <pt x="762" y="1170" on="0"/>
        <pt x="788" y="1238" on="0"/>
        <pt x="788" y="1297" on="0"/>
        <pt x="771" y="1357" on="0"/>
        <pt x="746" y="1380" on="1"/>
        <pt x="690" y="1430" on="0"/>
        <pt x="554" y="1430" on="1"/>
        <pt x="451" y="1430" on="0"/>
        <pt x="411" y="1389" on="0"/>
        <pt x="401" y="1321" on="0"/>
        <pt x="401" y="1214" on="0"/>
        <pt x="407" y="1143" on="0"/>
        <pt x="420" y="1119" on="1"/>
        <pt x="445" y="1070" on="0"/>
        <pt x="600" y="1070" on="0"/>
        <pt x="701" y="1110" on="0"/>
      </contour>
    </TTGlyph>
    <TTGlyph name="C" xMin="55" yMin="-10" xMax="967" yMax="1600">
      <contour>
        <pt x="938" y="1600" on="1"/>
        <pt x="967" y="1559" on="0"/>
        <pt x="967" y="1390" on="0"/>
        <pt x="956" y="1285" on="0"/>
        <pt x="945" y="1236" on="1"/>
        <pt x="921" y="1126" on="0"/>
        <pt x="878" y="1070" on="1"/>
        <pt x="841" y="1263" on="0"/>
        <pt x="782" y="1346" on="1"/>
        <pt x="720" y="1430" on="0"/>
        <pt x="521" y="1430" on="0"/>
        <pt x="409" y="1354" on="0"/>
        <pt x="379" y="1292" on="1"/>
        <pt x="329" y="1189" on="0"/>
        <pt x="329" y="788" on="0"/>
        <pt x="420" y="455" on="0"/>
        <pt x="504" y="335" on="1"/>
        <pt x="681" y="80" on="0"/>
        <pt x="965" y="80" on="1"/>
        <pt x="961" y="35" on="0"/>
        <pt x="918" y="2" on="1"/>
        <pt x="905" y="-8" on="0"/>
        <pt x="890" y="-10" on="1"/>
        <pt x="527" y="-10" on="0"/>
        <pt x="298" y="257" on="1"/>
        <pt x="55" y="541" on="0"/>
        <pt x="55" y="1031" on="1"/>
        <pt x="55" y="1287" on="0"/>
        <pt x="205" y="1416" on="1"/>
        <pt x="338" y="1530" on="0"/>
        <pt x="569" y="1530" on="1"/>
        <pt x="736" y="1528" on="1"/>
        <pt x="854" y="1528" on="0"/>
        <pt x="902" y="1562" on="1"/>
        <pt x="922" y="1577" on="0"/>
      </contour>
    </TTGlyph>
    <TTGlyph name="Cacute" xMin="55" yMin="-10" xMax="981" yMax="1992">
      <contour>
        <pt x="938" y="1600" on="1"/>
        <pt x="967" y="1559" on="0"/>
        <pt x="967" y="1390" on="0"/>
        <pt x="956" y="1285" on="0"/>
        <pt x="945" y="1236" on="1"/>
        <pt x="921" y="1126" on="0"/>
        <pt x="878" y="1070" on="1"/>
        <pt x="841" y="1263" on="0"/>
        <pt x="782" y="1346" on="1"/>
        <pt x="720" y="1430" on="0"/>
        <pt x="521" y="1430" on="0"/>
        <pt x="409" y="1354" on="0"/>
        <pt x="379" y="1292" on="1"/>
        <pt x="329" y="1189" on="0"/>
        <pt x="329" y="788" on="0"/>
        <pt x="420" y="455" on="0"/>
        <pt x="504" y="335" on="1"/>
        <pt x="681" y="80" on="0"/>
        <pt x="965" y="80" on="1"/>
        <pt x="961" y="35" on="0"/>
        <pt x="918" y="2" on="1"/>
        <pt x="905" y="-8" on="0"/>
        <pt x="890" y="-10" on="1"/>
        <pt x="527" y="-10" on="0"/>
        <pt x="298" y="257" on="1"/>
        <pt x="55" y="541" on="0"/>
        <pt x="55" y="1031" on="1"/>
        <pt x="55" y="1287" on="0"/>
        <pt x="205" y="1416" on="1"/>
        <pt x="338" y="1530" on="0"/>
        <pt x="569" y="1530" on="1"/>
        <pt x="736" y="1528" on="1"/>
        <pt x="854" y="1528" on="0"/>
        <pt x="902" y="1562" on="1"/>
        <pt x="922" y="1577" on="0"/>
      </contour>
      <contour>
        <pt x="981" y="1992" on="1"/>
        <pt x="884" y="1848" on="0"/>
        <pt x="712" y="1734" on="1"/>
        <pt x="669" y="1706" on="0"/>
        <pt x="642" y="1692" on="1"/>
        <pt x="494" y="1692" on="1"/>
        <pt x="511" y="1708" on="0"/>
        <pt x="534" y="1736" on="1"/>
        <pt x="534" y="1736" on="0"/>
        <pt x="634" y="1860" on="1"/>
        <pt x="724" y="1976" on="0"/>
        <pt x="724" y="1992" on="1"/>
      </contour>
    </TTGlyph>
    <TTGlyph name="Ccaron" xMin="55" yMin="-10" xMax="967" yMax="1980">
      <contour>
        <pt x="938" y="1600" on="1"/>
        <pt x="967" y="1559" on="0"/>
        <pt x="967" y="1390" on="0"/>
        <pt x="956" y="1285" on="0"/>
        <pt x="945" y="1236" on="1"/>
        <pt x="921" y="1126" on="0"/>
        <pt x="878" y="1070" on="1"/>
        <pt x="841" y="1263" on="0"/>
        <pt x="782" y="1346" on="1"/>
        <pt x="720" y="1430" on="0"/>
        <pt x="521" y="1430" on="0"/>
        <pt x="409" y="1354" on="0"/>
        <pt x="379" y="1292" on="1"/>
        <pt x="329" y="1189" on="0"/>
        <pt x="329" y="788" on="0"/>
        <pt x="420" y="455" on="0"/>
        <pt x="504" y="335" on="1"/>
        <pt x="681" y="80" on="0"/>
        <pt x="965" y="80" on="1"/>
        <pt x="961" y="35" on="0"/>
        <pt x="918" y="2" on="1"/>
        <pt x="905" y="-8" on="0"/>
        <pt x="890" y="-10" on="1"/>
        <pt x="527" y="-10" on="0"/>
        <pt x="298" y="257" on="1"/>
        <pt x="55" y="541" on="0"/>
        <pt x="55" y="1031" on="1"/>
        <pt x="55" y="1287" on="0"/>
        <pt x="205" y="1416" on="1"/>
        <pt x="338" y="1530" on="0"/>
        <pt x="569" y="1530" on="1"/>
        <pt x="736" y="1528" on="1"/>
        <pt x="854" y="1528" on="0"/>
        <pt x="902" y="1562" on="1"/>
        <pt x="922" y="1577" on="0"/>
      </contour>
      <contour>
        <pt x="338" y="1980" on="1"/>
        <pt x="470" y="1916" on="0"/>
        <pt x="581" y="1824" on="1"/>
        <pt x="705" y="1928" on="0"/>
        <pt x="822" y="1980" on="1"/>
        <pt x="925" y="1980" on="1"/>
        <pt x="907" y="1962" on="0"/>
        <pt x="882" y="1934" on="1"/>
        <pt x="763" y="1794" on="0"/>
        <pt x="736" y="1758" on="1"/>
        <pt x="694" y="1704" on="1"/>
        <pt x="679" y="1684" on="0"/>
        <pt x="677" y="1680" on="1"/>
        <pt x="483" y="1680" on="1"/>
        <pt x="481" y="1684" on="0"/>
        <pt x="466" y="1704" on="1"/>
        <pt x="329" y="1875" on="1"/>
        <pt x="278" y="1934" on="1"/>
        <pt x="253" y="1962" on="0"/>
        <pt x="235" y="1980" on="1"/>
      </contour>
    </TTGlyph>
    <TTGlyph name="Ccedilla" xMin="55" yMin="-500" xMax="967" yMax="1600">
      <contour>
        <pt x="938" y="1600" on="1"/>
        <pt x="967" y="1559" on="0"/>
        <pt x="967" y="1390" on="0"/>
        <pt x="956" y="1285" on="0"/>
        <pt x="945" y="1236" on="1"/>
        <pt x="921" y="1126" on="0"/>
        <pt x="878" y="1070" on="1"/>
        <pt x="841" y="1263" on="0"/>
        <pt x="782" y="1346" on="1"/>
        <pt x="720" y="1430" on="0"/>
        <pt x="521" y="1430" on="0"/>
        <pt x="409" y="1354" on="0"/>
        <pt x="379" y="1292" on="1"/>
        <pt x="329" y="1189" on="0"/>
        <pt x="329" y="788" on="0"/>
        <pt x="420" y="455" on="0"/>
        <pt x="504" y="335" on="1"/>
        <pt x="681" y="80" on="0"/>
        <pt x="965" y="80" on="1"/>
        <pt x="961" y="35" on="0"/>
        <pt x="918" y="2" on="1"/>
        <pt x="905" y="-8" on="0"/>
        <pt x="890" y="-10" on="1"/>
        <pt x="527" y="-10" on="0"/>
        <pt x="298" y="257" on="1"/>
        <pt x="55" y="541" on="0"/>
        <pt x="55" y="1031" on="1"/>
        <pt x="55" y="1287" on="0"/>
        <pt x="205" y="1416" on="1"/>
        <pt x="338" y="1530" on="0"/>
        <pt x="569" y="1530" on="1"/>
        <pt x="736" y="1528" on="1"/>
        <pt x="854" y="1528" on="0"/>
        <pt x="902" y="1562" on="1"/>
        <pt x="922" y="1577" on="0"/>
      </contour>
      <contour>
        <pt x="581" y="57" on="1"/>
        <pt x="556" y="-4" on="0"/>
        <pt x="556" y="-107" on="1"/>
        <pt x="597" y="-132" on="1"/>
        <pt x="688" y="-185" on="0"/>
        <pt x="688" y="-270" on="1"/>
        <pt x="688" y="-367" on="0"/>
        <pt x="609" y="-432" on="1"/>
        <pt x="528" y="-500" on="0"/>
        <pt x="398" y="-500" on="1"/>
        <pt x="377" y="-487" on="0"/>
        <pt x="364" y="-468" on="1"/>
        <pt x="347" y="-442" on="1"/>
        <pt x="342" y="-434" on="0"/>
        <pt x="338" y="-430" on="1"/>
        <pt x="458" y="-417" on="0"/>
        <pt x="508" y="-324" on="1"/>
        <pt x="523" y="-295" on="0"/>
        <pt x="523" y="-260" on="1"/>
        <pt x="523" y="-180" on="0"/>
        <pt x="421" y="-144" on="1"/>
        <pt x="478" y="-35" on="0"/>
        <pt x="493" y="88" on="1"/>
      </contour>
    </TTGlyph>
    <TTGlyph name="Ccircumflex" xMin="55" yMin="-10" xMax="967" yMax="1981">
      <contour>
        <pt x="938" y="1600" on="1"/>
        <pt x="967" y="1559" on="0"/>
        <pt x="967" y="1390" on="0"/>
        <pt x="956" y="1285" on="0"/>
        <pt x="945" y="1236" on="1"/>
        <pt x="921" y="1126" on="0"/>
        <pt x="878" y="1070" on="1"/>
        <pt x="841" y="1263" on="0"/>
        <pt x="782" y="1346" on="1"/>
        <pt x="720" y="1430" on="0"/>
        <pt x="521" y="1430" on="0"/>
        <pt x="409" y="1354" on="0"/>
        <pt x="379" y="1292" on="1"/>
        <pt x="329" y="1189" on="0"/>
        <pt x="329" y="788" on="0"/>
        <pt x="420" y="455" on="0"/>
        <pt x="504" y="335" on="1"/>
        <pt x="681" y="80" on="0"/>
        <pt x="965" y="80" on="1"/>
        <pt x="961" y="35" on="0"/>
        <pt x="918" y="2" on="1"/>
        <pt x="905" y="-8" on="0"/>
        <pt x="890" y="-10" on="1"/>
        <pt x="527" y="-10" on="0"/>
        <pt x="298" y="257" on="1"/>
        <pt x="55" y="541" on="0"/>
        <pt x="55" y="1031" on="1"/>
        <pt x="55" y="1287" on="0"/>
        <pt x="205" y="1416" on="1"/>
        <pt x="338" y="1530" on="0"/>
        <pt x="569" y="1530" on="1"/>
        <pt x="736" y="1528" on="1"/>
        <pt x="854" y="1528" on="0"/>
        <pt x="902" y="1562" on="1"/>
        <pt x="922" y="1577" on="0"/>
      </contour>
      <contour>
        <pt x="802" y="1681" on="1"/>
        <pt x="678" y="1736" on="0"/>
        <pt x="559" y="1836" on="1"/>
        <pt x="430" y="1731" on="0"/>
        <pt x="318" y="1681" on="1"/>
        <pt x="215" y="1681" on="1"/>
        <pt x="233" y="1698" on="0"/>
        <pt x="258" y="1726" on="1"/>
        <pt x="377" y="1868" on="0"/>
        <pt x="405" y="1903" on="1"/>
        <pt x="446" y="1957" on="1"/>
        <pt x="461" y="1976" on="0"/>
        <pt x="463" y="1981" on="1"/>
        <pt x="657" y="1981" on="1"/>
        <pt x="659" y="1976" on="0"/>
        <pt x="674" y="1957" on="1"/>
        <pt x="865" y="1719" on="0"/>
        <pt x="905" y="1681" on="1"/>
      </contour>
    </TTGlyph>
    <TTGlyph name="Cdotaccent" xMin="55" yMin="-10" xMax="967" yMax="1964">
      <contour>
        <pt x="938" y="1600" on="1"/>
        <pt x="967" y="1559" on="0"/>
        <pt x="967" y="1390" on="0"/>
        <pt x="956" y="1285" on="0"/>
        <pt x="945" y="1236" on="1"/>
        <pt x="921" y="1126" on="0"/>
        <pt x="878" y="1070" on="1"/>
        <pt x="841" y="1263" on="0"/>
        <pt x="782" y="1346" on="1"/>
        <pt x="720" y="1430" on="0"/>
        <pt x="521" y="1430" on="0"/>
        <pt x="409" y="1354" on="0"/>
        <pt x="379" y="1292" on="1"/>
        <pt x="329" y="1189" on="0"/>
        <pt x="329" y="788" on="0"/>
        <pt x="420" y="455" on="0"/>
        <pt x="504" y="335" on="1"/>
        <pt x="681" y="80" on="0"/>
        <pt x="965" y="80" on="1"/>
        <pt x="961" y="35" on="0"/>
        <pt x="918" y="2" on="1"/>
        <pt x="905" y="-8" on="0"/>
        <pt x="890" y="-10" on="1"/>
        <pt x="527" y="-10" on="0"/>
        <pt x="298" y="257" on="1"/>
        <pt x="55" y="541" on="0"/>
        <pt x="55" y="1031" on="1"/>
        <pt x="55" y="1287" on="0"/>
        <pt x="205" y="1416" on="1"/>
        <pt x="338" y="1530" on="0"/>
        <pt x="569" y="1530" on="1"/>
        <pt x="736" y="1528" on="1"/>
        <pt x="854" y="1528" on="0"/>
        <pt x="902" y="1562" on="1"/>
        <pt x="922" y="1577" on="0"/>
      </contour>
      <contour>
        <pt x="645" y="1684" on="0"/>
        <pt x="593" y="1644" on="0"/>
        <pt x="527" y="1644" on="0"/>
        <pt x="474" y="1684" on="0"/>
        <pt x="456" y="1714" on="1"/>
        <pt x="420" y="1775" on="0"/>
        <pt x="420" y="1843" on="1"/>
        <pt x="420" y="1926" on="0"/>
        <pt x="495" y="1954" on="1"/>
        <pt x="522" y="1964" on="0"/>
        <pt x="561" y="1964" on="1"/>
        <pt x="668" y="1964" on="0"/>
        <pt x="694" y="1888" on="1"/>
        <pt x="702" y="1867" on="0"/>
        <pt x="702" y="1814" on="0"/>
        <pt x="682" y="1744" on="0"/>
      </contour>
    </TTGlyph>
    <TTGlyph name="D" xMin="63" yMin="-1" xMax="1096" yMax="1530">
      <contour>
        <pt x="395" y="1261" on="1"/>
        <pt x="396" y="265" on="1"/>
        <pt x="397" y="208" on="0"/>
        <pt x="421" y="150" on="0"/>
        <pt x="459" y="150" on="1"/>
        <pt x="637" y="150" on="0"/>
        <pt x="736" y="376" on="1"/>
        <pt x="832" y="596" on="0"/>
        <pt x="832" y="986" on="1"/>
        <pt x="832" y="1191" on="0"/>
        <pt x="784" y="1297" on="1"/>
        <pt x="719" y="1440" on="0"/>
        <pt x="558" y="1440" on="1"/>
        <pt x="455" y="1440" on="0"/>
        <pt x="408" y="1392" on="0"/>
        <pt x="395" y="1321" on="0"/>
      </contour>
      <contour>
        <pt x="117" y="0" on="1"/>
        <pt x="149" y="76" on="0"/>
        <pt x="160" y="178" on="0"/>
        <pt x="164" y="236" on="1"/>
        <pt x="172" y="354" on="0"/>
        <pt x="172" y="553" on="1"/>
        <pt x="172" y="794" on="0"/>
        <pt x="164" y="993" on="1"/>
        <pt x="153" y="1268" on="1"/>
        <pt x="149" y="1372" on="0"/>
        <pt x="135" y="1413" on="1"/>
        <pt x="113" y="1478" on="0"/>
        <pt x="63" y="1530" on="1"/>
        <pt x="612" y="1530" on="1"/>
        <pt x="954" y="1530" on="0"/>
        <pt x="1059" y="1261" on="1"/>
        <pt x="1096" y="1166" on="0"/>
        <pt x="1096" y="1031" on="1"/>
        <pt x="1096" y="276" on="0"/>
        <pt x="584" y="69" on="1"/>
        <pt x="411" y="-1" on="0"/>
        <pt x="177" y="-1" on="1"/>
        <pt x="162" y="-1" on="0"/>
        <pt x="132" y="-1" on="0"/>
      </contour>
    </TTGlyph>
    <TTGlyph name="Dcaron" xMin="63" yMin="-1" xMax="1096" yMax="1980">
      <contour>
        <pt x="395" y="1261" on="1"/>
        <pt x="396" y="265" on="1"/>
        <pt x="397" y="208" on="0"/>
        <pt x="421" y="150" on="0"/>
        <pt x="459" y="150" on="1"/>
        <pt x="637" y="150" on="0"/>
        <pt x="736" y="376" on="1"/>
        <pt x="832" y="596" on="0"/>
        <pt x="832" y="986" on="1"/>
        <pt x="832" y="1191" on="0"/>
        <pt x="784" y="1297" on="1"/>
        <pt x="719" y="1440" on="0"/>
        <pt x="558" y="1440" on="1"/>
        <pt x="455" y="1440" on="0"/>
        <pt x="408" y="1392" on="0"/>
        <pt x="395" y="1321" on="0"/>
      </contour>
      <contour>
        <pt x="117" y="0" on="1"/>
        <pt x="149" y="76" on="0"/>
        <pt x="160" y="178" on="0"/>
        <pt x="164" y="236" on="1"/>
        <pt x="172" y="354" on="0"/>
        <pt x="172" y="553" on="1"/>
        <pt x="172" y="794" on="0"/>
        <pt x="164" y="993" on="1"/>
        <pt x="153" y="1268" on="1"/>
        <pt x="149" y="1372" on="0"/>
        <pt x="135" y="1413" on="1"/>
        <pt x="113" y="1478" on="0"/>
        <pt x="63" y="1530" on="1"/>
        <pt x="612" y="1530" on="1"/>
        <pt x="954" y="1530" on="0"/>
        <pt x="1059" y="1261" on="1"/>
        <pt x="1096" y="1166" on="0"/>
        <pt x="1096" y="1031" on="1"/>
        <pt x="1096" y="276" on="0"/>
        <pt x="584" y="69" on="1"/>
        <pt x="411" y="-1" on="0"/>
        <pt x="177" y="-1" on="1"/>
        <pt x="162" y="-1" on="0"/>
        <pt x="132" y="-1" on="0"/>
      </contour>
      <contour>
        <pt x="287" y="1980" on="1"/>
        <pt x="419" y="1916" on="0"/>
        <pt x="530" y="1824" on="1"/>
        <pt x="654" y="1928" on="0"/>
        <pt x="771" y="1980" on="1"/>
        <pt x="874" y="1980" on="1"/>
        <pt x="856" y="1962" on="0"/>
        <pt x="831" y="1934" on="1"/>
        <pt x="712" y="1794" on="0"/>
        <pt x="685" y="1758" on="1"/>
        <pt x="643" y="1704" on="1"/>
        <pt x="628" y="1684" on="0"/>
        <pt x="626" y="1680" on="1"/>
        <pt x="432" y="1680" on="1"/>
        <pt x="430" y="1684" on="0"/>
        <pt x="415" y="1704" on="1"/>
        <pt x="278" y="1875" on="1"/>
        <pt x="227" y="1934" on="1"/>
        <pt x="202" y="1962" on="0"/>
        <pt x="184" y="1980" on="1"/>
      </contour>
    </TTGlyph>
    <TTGlyph name="Dcroat" xMin="51" yMin="-1" xMax="1125" yMax="1530">
      <contour>
        <pt x="194" y="965" on="1"/>
        <pt x="95" y="960" on="0"/>
        <pt x="51" y="938" on="1"/>
        <pt x="51" y="1113" on="1"/>
        <pt x="93" y="1095" on="0"/>
        <pt x="189" y="1088" on="1"/>
        <pt x="182" y="1268" on="1"/>
        <pt x="178" y="1372" on="0"/>
        <pt x="164" y="1413" on="1"/>
        <pt x="142" y="1478" on="0"/>
        <pt x="92" y="1530" on="1"/>
        <pt x="641" y="1530" on="1"/>
        <pt x="983" y="1530" on="0"/>
        <pt x="1088" y="1261" on="1"/>
        <pt x="1125" y="1166" on="0"/>
        <pt x="1125" y="1031" on="1"/>
        <pt x="1125" y="276" on="0"/>
        <pt x="613" y="69" on="1"/>
        <pt x="440" y="-1" on="0"/>
        <pt x="206" y="-1" on="1"/>
        <pt x="191" y="-1" on="0"/>
        <pt x="161" y="-1" on="0"/>
        <pt x="146" y="0" on="1"/>
        <pt x="178" y="76" on="0"/>
        <pt x="189" y="178" on="0"/>
        <pt x="193" y="237" on="1"/>
        <pt x="201" y="355" on="0"/>
        <pt x="201" y="732" on="0"/>
      </contour>
      <contour>
        <pt x="424" y="965" on="1"/>
        <pt x="425" y="265" on="1"/>
        <pt x="426" y="208" on="0"/>
        <pt x="450" y="150" on="0"/>
        <pt x="488" y="150" on="1"/>
        <pt x="666" y="150" on="0"/>
        <pt x="764" y="376" on="1"/>
        <pt x="861" y="596" on="0"/>
        <pt x="861" y="986" on="1"/>
        <pt x="861" y="1191" on="0"/>
        <pt x="813" y="1297" on="1"/>
        <pt x="748" y="1440" on="0"/>
        <pt x="587" y="1440" on="1"/>
        <pt x="484" y="1440" on="0"/>
        <pt x="437" y="1392" on="0"/>
        <pt x="424" y="1321" on="0"/>
        <pt x="424" y="1261" on="1"/>
        <pt x="424" y="1086" on="1"/>
        <pt x="619" y="1091" on="0"/>
        <pt x="703" y="1113" on="1"/>
        <pt x="703" y="938" on="1"/>
        <pt x="615" y="960" on="0"/>
      </contour>
    </TTGlyph>
    <TTGlyph name="Delta" xMin="201" yMin="0" xMax="1459" yMax="1415">
      <contour>
        <pt x="201" y="0" on="1"/>
        <pt x="241" y="60" on="0"/>
        <pt x="267" y="130" on="1"/>
        <pt x="309" y="243" on="1"/>
        <pt x="319" y="271" on="0"/>
        <pt x="336" y="322" on="1"/>
        <pt x="550" y="1014" on="1"/>
        <pt x="583" y="1128" on="1"/>
        <pt x="638" y="1324" on="0"/>
        <pt x="632" y="1415" on="1"/>
        <pt x="1058" y="1415" on="1"/>
        <pt x="1040" y="1382" on="0"/>
        <pt x="1040" y="1340" on="1"/>
        <pt x="1040" y="1270" on="0"/>
        <pt x="1063" y="1178" on="0"/>
        <pt x="1077" y="1128" on="1"/>
        <pt x="1258" y="528" on="0"/>
        <pt x="1283" y="450" on="1"/>
        <pt x="1324" y="322" on="1"/>
        <pt x="1341" y="271" on="0"/>
        <pt x="1354" y="236" on="1"/>
        <pt x="1379" y="166" on="1"/>
        <pt x="1419" y="60" on="0"/>
        <pt x="1459" y="0" on="1"/>
      </contour>
      <contour>
        <pt x="838" y="1226" on="1"/>
        <pt x="822" y="1284" on="0"/>
        <pt x="802" y="1284" on="0"/>
        <pt x="788" y="1245" on="0"/>
        <pt x="778" y="1207" on="1"/>
        <pt x="529" y="366" on="1"/>
        <pt x="498" y="256" on="1"/>
        <pt x="486" y="210" on="0"/>
        <pt x="483" y="190" on="1"/>
        <pt x="475" y="143" on="0"/>
        <pt x="545" y="110" on="0"/>
        <pt x="619" y="110" on="1"/>
        <pt x="1001" y="110" on="1"/>
        <pt x="1074" y="110" on="0"/>
        <pt x="1144" y="143" on="0"/>
        <pt x="1137" y="190" on="1"/>
        <pt x="1134" y="210" on="0"/>
        <pt x="1122" y="256" on="1"/>
      </contour>
    </TTGlyph>
    <TTGlyph name="E" xMin="23" yMin="0" xMax="937" yMax="1530">
      <contour>
        <pt x="910" y="370" on="1"/>
        <pt x="937" y="333" on="0"/>
        <pt x="937" y="193" on="0"/>
        <pt x="925" y="110" on="0"/>
        <pt x="912" y="76" on="1"/>
        <pt x="882" y="0" on="0"/>
        <pt x="833" y="0" on="1"/>
        <pt x="23" y="0" on="1"/>
        <pt x="100" y="41" on="0"/>
        <pt x="125" y="79" on="1"/>
        <pt x="172" y="150" on="0"/>
        <pt x="172" y="259" on="1"/>
        <pt x="171" y="526" on="0"/>
        <pt x="171" y="742" on="1"/>
        <pt x="171" y="1268" on="1"/>
        <pt x="171" y="1417" on="0"/>
        <pt x="124" y="1484" on="1"/>
        <pt x="106" y="1508" on="0"/>
        <pt x="81" y="1530" on="1"/>
        <pt x="833" y="1530" on="1"/>
        <pt x="901" y="1506" on="0"/>
        <pt x="926" y="1362" on="1"/>
        <pt x="933" y="1322" on="0"/>
        <pt x="933" y="1284" on="1"/>
        <pt x="933" y="1206" on="0"/>
        <pt x="910" y="1160" on="1"/>
        <pt x="856" y="1268" on="1"/>
        <pt x="802" y="1374" on="0"/>
        <pt x="701" y="1410" on="1"/>
        <pt x="645" y="1430" on="0"/>
        <pt x="505" y="1430" on="0"/>
        <pt x="445" y="1421" on="0"/>
        <pt x="429" y="1404" on="1"/>
        <pt x="403" y="1375" on="0"/>
        <pt x="403" y="1212" on="0"/>
        <pt x="411" y="1149" on="0"/>
        <pt x="426" y="1129" on="1"/>
        <pt x="457" y="1090" on="0"/>
        <pt x="557" y="1090" on="1"/>
        <pt x="871" y="1090" on="1"/>
        <pt x="848" y="1032" on="0"/>
        <pt x="824" y="1008" on="1"/>
        <pt x="776" y="960" on="0"/>
        <pt x="694" y="960" on="1"/>
        <pt x="662" y="960" on="0"/>
        <pt x="633" y="967" on="1"/>
        <pt x="579" y="980" on="0"/>
        <pt x="497" y="980" on="0"/>
        <pt x="444" y="965" on="0"/>
        <pt x="429" y="949" on="1"/>
        <pt x="403" y="921" on="0"/>
        <pt x="403" y="848" on="1"/>
        <pt x="403" y="371" on="1"/>
        <pt x="403" y="183" on="0"/>
        <pt x="445" y="113" on="0"/>
        <pt x="505" y="100" on="0"/>
        <pt x="645" y="100" on="0"/>
        <pt x="759" y="140" on="0"/>
        <pt x="836" y="212" on="0"/>
        <pt x="886" y="311" on="0"/>
      </contour>
    </TTGlyph>
    <TTGlyph name="Eacute" xMin="23" yMin="0" xMax="960" yMax="1992">
      <contour>
        <pt x="910" y="370" on="1"/>
        <pt x="937" y="333" on="0"/>
        <pt x="937" y="193" on="0"/>
        <pt x="925" y="110" on="0"/>
        <pt x="912" y="76" on="1"/>
        <pt x="882" y="0" on="0"/>
        <pt x="833" y="0" on="1"/>
        <pt x="23" y="0" on="1"/>
        <pt x="100" y="41" on="0"/>
        <pt x="125" y="79" on="1"/>
        <pt x="172" y="150" on="0"/>
        <pt x="172" y="259" on="1"/>
        <pt x="171" y="526" on="0"/>
        <pt x="171" y="742" on="1"/>
        <pt x="171" y="1268" on="1"/>
        <pt x="171" y="1417" on="0"/>
        <pt x="124" y="1484" on="1"/>
        <pt x="106" y="1508" on="0"/>
        <pt x="81" y="1530" on="1"/>
        <pt x="833" y="1530" on="1"/>
        <pt x="901" y="1506" on="0"/>
        <pt x="926" y="1362" on="1"/>
        <pt x="933" y="1322" on="0"/>
        <pt x="933" y="1284" on="1"/>
        <pt x="933" y="1206" on="0"/>
        <pt x="910" y="1160" on="1"/>
        <pt x="856" y="1268" on="1"/>
        <pt x="802" y="1374" on="0"/>
        <pt x="701" y="1410" on="1"/>
        <pt x="645" y="1430" on="0"/>
        <pt x="505" y="1430" on="0"/>
        <pt x="445" y="1421" on="0"/>
        <pt x="429" y="1404" on="1"/>
        <pt x="403" y="1375" on="0"/>
        <pt x="403" y="1212" on="0"/>
        <pt x="411" y="1149" on="0"/>
        <pt x="426" y="1129" on="1"/>
        <pt x="457" y="1090" on="0"/>
        <pt x="557" y="1090" on="1"/>
        <pt x="871" y="1090" on="1"/>
        <pt x="848" y="1032" on="0"/>
        <pt x="824" y="1008" on="1"/>
        <pt x="776" y="960" on="0"/>
        <pt x="694" y="960" on="1"/>
        <pt x="662" y="960" on="0"/>
        <pt x="633" y="967" on="1"/>
        <pt x="579" y="980" on="0"/>
        <pt x="497" y="980" on="0"/>
        <pt x="444" y="965" on="0"/>
        <pt x="429" y="949" on="1"/>
        <pt x="403" y="921" on="0"/>
        <pt x="403" y="848" on="1"/>
        <pt x="403" y="371" on="1"/>
        <pt x="403" y="183" on="0"/>
        <pt x="445" y="113" on="0"/>
        <pt x="505" y="100" on="0"/>
        <pt x="645" y="100" on="0"/>
        <pt x="759" y="140" on="0"/>
        <pt x="836" y="212" on="0"/>
        <pt x="886" y="311" on="0"/>
      </contour>
      <contour>
        <pt x="960" y="1992" on="1"/>
        <pt x="863" y="1848" on="0"/>
        <pt x="691" y="1734" on="1"/>
        <pt x="648" y="1706" on="0"/>
        <pt x="621" y="1692" on="1"/>
        <pt x="473" y="1692" on="1"/>
        <pt x="490" y="1708" on="0"/>
        <pt x="513" y="1736" on="1"/>
        <pt x="513" y="1736" on="0"/>
        <pt x="613" y="1860" on="1"/>
        <pt x="703" y="1976" on="0"/>
        <pt x="703" y="1992" on="1"/>
      </contour>
    </TTGlyph>
    <TTGlyph name="Ebreve" xMin="23" yMin="0" xMax="937" yMax="1980">
      <contour>
        <pt x="910" y="370" on="1"/>
        <pt x="937" y="333" on="0"/>
        <pt x="937" y="193" on="0"/>
        <pt x="925" y="110" on="0"/>
        <pt x="912" y="76" on="1"/>
        <pt x="882" y="0" on="0"/>
        <pt x="833" y="0" on="1"/>
        <pt x="23" y="0" on="1"/>
        <pt x="100" y="41" on="0"/>
        <pt x="125" y="79" on="1"/>
        <pt x="172" y="150" on="0"/>
        <pt x="172" y="259" on="1"/>
        <pt x="171" y="526" on="0"/>
        <pt x="171" y="742" on="1"/>
        <pt x="171" y="1268" on="1"/>
        <pt x="171" y="1417" on="0"/>
        <pt x="124" y="1484" on="1"/>
        <pt x="106" y="1508" on="0"/>
        <pt x="81" y="1530" on="1"/>
        <pt x="833" y="1530" on="1"/>
        <pt x="901" y="1506" on="0"/>
        <pt x="926" y="1362" on="1"/>
        <pt x="933" y="1322" on="0"/>
        <pt x="933" y="1284" on="1"/>
        <pt x="933" y="1206" on="0"/>
        <pt x="910" y="1160" on="1"/>
        <pt x="856" y="1268" on="1"/>
        <pt x="802" y="1374" on="0"/>
        <pt x="701" y="1410" on="1"/>
        <pt x="645" y="1430" on="0"/>
        <pt x="505" y="1430" on="0"/>
        <pt x="445" y="1421" on="0"/>
        <pt x="429" y="1404" on="1"/>
        <pt x="403" y="1375" on="0"/>
        <pt x="403" y="1212" on="0"/>
        <pt x="411" y="1149" on="0"/>
        <pt x="426" y="1129" on="1"/>
        <pt x="457" y="1090" on="0"/>
        <pt x="557" y="1090" on="1"/>
        <pt x="871" y="1090" on="1"/>
        <pt x="848" y="1032" on="0"/>
        <pt x="824" y="1008" on="1"/>
        <pt x="776" y="960" on="0"/>
        <pt x="694" y="960" on="1"/>
        <pt x="662" y="960" on="0"/>
        <pt x="633" y="967" on="1"/>
        <pt x="579" y="980" on="0"/>
        <pt x="497" y="980" on="0"/>
        <pt x="444" y="965" on="0"/>
        <pt x="429" y="949" on="1"/>
        <pt x="403" y="921" on="0"/>
        <pt x="403" y="848" on="1"/>
        <pt x="403" y="371" on="1"/>
        <pt x="403" y="183" on="0"/>
        <pt x="445" y="113" on="0"/>
        <pt x="505" y="100" on="0"/>
        <pt x="645" y="100" on="0"/>
        <pt x="759" y="140" on="0"/>
        <pt x="836" y="212" on="0"/>
        <pt x="886" y="311" on="0"/>
      </contour>
      <contour>
        <pt x="426" y="1790" on="1"/>
        <pt x="465" y="1775" on="0"/>
        <pt x="564" y="1775" on="0"/>
        <pt x="637" y="1806" on="0"/>
        <pt x="664" y="1834" on="1"/>
        <pt x="723" y="1895" on="0"/>
        <pt x="723" y="1980" on="1"/>
        <pt x="847" y="1980" on="1"/>
        <pt x="847" y="1858" on="0"/>
        <pt x="782" y="1752" on="1"/>
        <pt x="696" y="1610" on="0"/>
        <pt x="529" y="1610" on="1"/>
        <pt x="284" y="1610" on="0"/>
        <pt x="206" y="1832" on="1"/>
        <pt x="181" y="1905" on="0"/>
        <pt x="181" y="1980" on="1"/>
        <pt x="315" y="1980" on="1"/>
        <pt x="315" y="1834" on="0"/>
      </contour>
    </TTGlyph>
    <TTGlyph name="Ecaron" xMin="23" yMin="0" xMax="937" yMax="1980">
      <contour>
        <pt x="910" y="370" on="1"/>
        <pt x="937" y="333" on="0"/>
        <pt x="937" y="193" on="0"/>
        <pt x="925" y="110" on="0"/>
        <pt x="912" y="76" on="1"/>
        <pt x="882" y="0" on="0"/>
        <pt x="833" y="0" on="1"/>
        <pt x="23" y="0" on="1"/>
        <pt x="100" y="41" on="0"/>
        <pt x="125" y="79" on="1"/>
        <pt x="172" y="150" on="0"/>
        <pt x="172" y="259" on="1"/>
        <pt x="171" y="526" on="0"/>
        <pt x="171" y="742" on="1"/>
        <pt x="171" y="1268" on="1"/>
        <pt x="171" y="1417" on="0"/>
        <pt x="124" y="1484" on="1"/>
        <pt x="106" y="1508" on="0"/>
        <pt x="81" y="1530" on="1"/>
        <pt x="833" y="1530" on="1"/>
        <pt x="901" y="1506" on="0"/>
        <pt x="926" y="1362" on="1"/>
        <pt x="933" y="1322" on="0"/>
        <pt x="933" y="1284" on="1"/>
        <pt x="933" y="1206" on="0"/>
        <pt x="910" y="1160" on="1"/>
        <pt x="856" y="1268" on="1"/>
        <pt x="802" y="1374" on="0"/>
        <pt x="701" y="1410" on="1"/>
        <pt x="645" y="1430" on="0"/>
        <pt x="505" y="1430" on="0"/>
        <pt x="445" y="1421" on="0"/>
        <pt x="429" y="1404" on="1"/>
        <pt x="403" y="1375" on="0"/>
        <pt x="403" y="1212" on="0"/>
        <pt x="411" y="1149" on="0"/>
        <pt x="426" y="1129" on="1"/>
        <pt x="457" y="1090" on="0"/>
        <pt x="557" y="1090" on="1"/>
        <pt x="871" y="1090" on="1"/>
        <pt x="848" y="1032" on="0"/>
        <pt x="824" y="1008" on="1"/>
        <pt x="776" y="960" on="0"/>
        <pt x="694" y="960" on="1"/>
        <pt x="662" y="960" on="0"/>
        <pt x="633" y="967" on="1"/>
        <pt x="579" y="980" on="0"/>
        <pt x="497" y="980" on="0"/>
        <pt x="444" y="965" on="0"/>
        <pt x="429" y="949" on="1"/>
        <pt x="403" y="921" on="0"/>
        <pt x="403" y="848" on="1"/>
        <pt x="403" y="371" on="1"/>
        <pt x="403" y="183" on="0"/>
        <pt x="445" y="113" on="0"/>
        <pt x="505" y="100" on="0"/>
        <pt x="645" y="100" on="0"/>
        <pt x="759" y="140" on="0"/>
        <pt x="836" y="212" on="0"/>
        <pt x="886" y="311" on="0"/>
      </contour>
      <contour>
        <pt x="267" y="1980" on="1"/>
        <pt x="399" y="1916" on="0"/>
        <pt x="510" y="1824" on="1"/>
        <pt x="634" y="1928" on="0"/>
        <pt x="751" y="1980" on="1"/>
        <pt x="854" y="1980" on="1"/>
        <pt x="836" y="1962" on="0"/>
        <pt x="811" y="1934" on="1"/>
        <pt x="692" y="1794" on="0"/>
        <pt x="665" y="1758" on="1"/>
        <pt x="623" y="1704" on="1"/>
        <pt x="608" y="1684" on="0"/>
        <pt x="606" y="1680" on="1"/>
        <pt x="412" y="1680" on="1"/>
        <pt x="410" y="1684" on="0"/>
        <pt x="395" y="1704" on="1"/>
        <pt x="258" y="1875" on="1"/>
        <pt x="207" y="1934" on="1"/>
        <pt x="182" y="1962" on="0"/>
        <pt x="164" y="1980" on="1"/>
      </contour>
    </TTGlyph>
    <TTGlyph name="Ecircumflex" xMin="23" yMin="0" xMax="937" yMax="1981">
      <contour>
        <pt x="910" y="370" on="1"/>
        <pt x="937" y="333" on="0"/>
        <pt x="937" y="193" on="0"/>
        <pt x="925" y="110" on="0"/>
        <pt x="912" y="76" on="1"/>
        <pt x="882" y="0" on="0"/>
        <pt x="833" y="0" on="1"/>
        <pt x="23" y="0" on="1"/>
        <pt x="100" y="41" on="0"/>
        <pt x="125" y="79" on="1"/>
        <pt x="172" y="150" on="0"/>
        <pt x="172" y="259" on="1"/>
        <pt x="171" y="526" on="0"/>
        <pt x="171" y="742" on="1"/>
        <pt x="171" y="1268" on="1"/>
        <pt x="171" y="1417" on="0"/>
        <pt x="124" y="1484" on="1"/>
        <pt x="106" y="1508" on="0"/>
        <pt x="81" y="1530" on="1"/>
        <pt x="833" y="1530" on="1"/>
        <pt x="901" y="1506" on="0"/>
        <pt x="926" y="1362" on="1"/>
        <pt x="933" y="1322" on="0"/>
        <pt x="933" y="1284" on="1"/>
        <pt x="933" y="1206" on="0"/>
        <pt x="910" y="1160" on="1"/>
        <pt x="856" y="1268" on="1"/>
        <pt x="802" y="1374" on="0"/>
        <pt x="701" y="1410" on="1"/>
        <pt x="645" y="1430" on="0"/>
        <pt x="505" y="1430" on="0"/>
        <pt x="445" y="1421" on="0"/>
        <pt x="429" y="1404" on="1"/>
        <pt x="403" y="1375" on="0"/>
        <pt x="403" y="1212" on="0"/>
        <pt x="411" y="1149" on="0"/>
        <pt x="426" y="1129" on="1"/>
        <pt x="457" y="1090" on="0"/>
        <pt x="557" y="1090" on="1"/>
        <pt x="871" y="1090" on="1"/>
        <pt x="848" y="1032" on="0"/>
        <pt x="824" y="1008" on="1"/>
        <pt x="776" y="960" on="0"/>
        <pt x="694" y="960" on="1"/>
        <pt x="662" y="960" on="0"/>
        <pt x="633" y="967" on="1"/>
        <pt x="579" y="980" on="0"/>
        <pt x="497" y="980" on="0"/>
        <pt x="444" y="965" on="0"/>
        <pt x="429" y="949" on="1"/>
        <pt x="403" y="921" on="0"/>
        <pt x="403" y="848" on="1"/>
        <pt x="403" y="371" on="1"/>
        <pt x="403" y="183" on="0"/>
        <pt x="445" y="113" on="0"/>
        <pt x="505" y="100" on="0"/>
        <pt x="645" y="100" on="0"/>
        <pt x="759" y="140" on="0"/>
        <pt x="836" y="212" on="0"/>
        <pt x="886" y="311" on="0"/>
      </contour>
      <contour>
        <pt x="801" y="1681" on="1"/>
        <pt x="677" y="1736" on="0"/>
        <pt x="558" y="1836" on="1"/>
        <pt x="429" y="1731" on="0"/>
        <pt x="317" y="1681" on="1"/>
        <pt x="214" y="1681" on="1"/>
        <pt x="232" y="1698" on="0"/>
        <pt x="257" y="1726" on="1"/>
        <pt x="376" y="1868" on="0"/>
        <pt x="404" y="1903" on="1"/>
        <pt x="445" y="1957" on="1"/>
        <pt x="460" y="1976" on="0"/>
        <pt x="462" y="1981" on="1"/>
        <pt x="656" y="1981" on="1"/>
        <pt x="658" y="1976" on="0"/>
        <pt x="673" y="1957" on="1"/>
        <pt x="864" y="1719" on="0"/>
        <pt x="904" y="1681" on="1"/>
      </contour>
    </TTGlyph>
    <TTGlyph name="Edieresis" xMin="23" yMin="0" xMax="937" yMax="1960">
      <contour>
        <pt x="910" y="370" on="1"/>
        <pt x="937" y="333" on="0"/>
        <pt x="937" y="193" on="0"/>
        <pt x="925" y="110" on="0"/>
        <pt x="912" y="76" on="1"/>
        <pt x="882" y="0" on="0"/>
        <pt x="833" y="0" on="1"/>
        <pt x="23" y="0" on="1"/>
        <pt x="100" y="41" on="0"/>
        <pt x="125" y="79" on="1"/>
        <pt x="172" y="150" on="0"/>
        <pt x="172" y="259" on="1"/>
        <pt x="171" y="526" on="0"/>
        <pt x="171" y="742" on="1"/>
        <pt x="171" y="1268" on="1"/>
        <pt x="171" y="1417" on="0"/>
        <pt x="124" y="1484" on="1"/>
        <pt x="106" y="1508" on="0"/>
        <pt x="81" y="1530" on="1"/>
        <pt x="833" y="1530" on="1"/>
        <pt x="901" y="1506" on="0"/>
        <pt x="926" y="1362" on="1"/>
        <pt x="933" y="1322" on="0"/>
        <pt x="933" y="1284" on="1"/>
        <pt x="933" y="1206" on="0"/>
        <pt x="910" y="1160" on="1"/>
        <pt x="856" y="1268" on="1"/>
        <pt x="802" y="1374" on="0"/>
        <pt x="701" y="1410" on="1"/>
        <pt x="645" y="1430" on="0"/>
        <pt x="505" y="1430" on="0"/>
        <pt x="445" y="1421" on="0"/>
        <pt x="429" y="1404" on="1"/>
        <pt x="403" y="1375" on="0"/>
        <pt x="403" y="1212" on="0"/>
        <pt x="411" y="1149" on="0"/>
        <pt x="426" y="1129" on="1"/>
        <pt x="457" y="1090" on="0"/>
        <pt x="557" y="1090" on="1"/>
        <pt x="871" y="1090" on="1"/>
        <pt x="848" y="1032" on="0"/>
        <pt x="824" y="1008" on="1"/>
        <pt x="776" y="960" on="0"/>
        <pt x="694" y="960" on="1"/>
        <pt x="662" y="960" on="0"/>
        <pt x="633" y="967" on="1"/>
        <pt x="579" y="980" on="0"/>
        <pt x="497" y="980" on="0"/>
        <pt x="444" y="965" on="0"/>
        <pt x="429" y="949" on="1"/>
        <pt x="403" y="921" on="0"/>
        <pt x="403" y="848" on="1"/>
        <pt x="403" y="371" on="1"/>
        <pt x="403" y="183" on="0"/>
        <pt x="445" y="113" on="0"/>
        <pt x="505" y="100" on="0"/>
        <pt x="645" y="100" on="0"/>
        <pt x="759" y="140" on="0"/>
        <pt x="836" y="212" on="0"/>
        <pt x="886" y="311" on="0"/>
      </contour>
      <contour>
        <pt x="433" y="1696" on="0"/>
        <pt x="383" y="1658" on="0"/>
        <pt x="321" y="1658" on="0"/>
        <pt x="272" y="1696" on="0"/>
        <pt x="255" y="1724" on="1"/>
        <pt x="220" y="1782" on="0"/>
        <pt x="220" y="1869" on="0"/>
        <pt x="234" y="1909" on="0"/>
        <pt x="250" y="1925" on="1"/>
        <pt x="285" y="1960" on="0"/>
        <pt x="390" y="1960" on="0"/>
        <pt x="440" y="1941" on="0"/>
        <pt x="456" y="1925" on="1"/>
        <pt x="486" y="1895" on="0"/>
        <pt x="486" y="1818" on="0"/>
        <pt x="467" y="1752" on="0"/>
      </contour>
      <contour>
        <pt x="845" y="1696" on="0"/>
        <pt x="795" y="1658" on="0"/>
        <pt x="733" y="1658" on="0"/>
        <pt x="684" y="1696" on="0"/>
        <pt x="667" y="1724" on="1"/>
        <pt x="632" y="1782" on="0"/>
        <pt x="632" y="1869" on="0"/>
        <pt x="646" y="1909" on="0"/>
        <pt x="662" y="1925" on="1"/>
        <pt x="695" y="1960" on="0"/>
        <pt x="801" y="1960" on="0"/>
        <pt x="852" y="1941" on="0"/>
        <pt x="868" y="1925" on="1"/>
        <pt x="898" y="1895" on="0"/>
        <pt x="898" y="1818" on="0"/>
        <pt x="879" y="1752" on="0"/>
      </contour>
    </TTGlyph>
    <TTGlyph name="Edotaccent" xMin="23" yMin="0" xMax="937" yMax="1964">
      <contour>
        <pt x="910" y="370" on="1"/>
        <pt x="937" y="333" on="0"/>
        <pt x="937" y="193" on="0"/>
        <pt x="925" y="110" on="0"/>
        <pt x="912" y="76" on="1"/>
        <pt x="882" y="0" on="0"/>
        <pt x="833" y="0" on="1"/>
        <pt x="23" y="0" on="1"/>
        <pt x="100" y="41" on="0"/>
        <pt x="125" y="79" on="1"/>
        <pt x="172" y="150" on="0"/>
        <pt x="172" y="259" on="1"/>
        <pt x="171" y="526" on="0"/>
        <pt x="171" y="742" on="1"/>
        <pt x="171" y="1268" on="1"/>
        <pt x="171" y="1417" on="0"/>
        <pt x="124" y="1484" on="1"/>
        <pt x="106" y="1508" on="0"/>
        <pt x="81" y="1530" on="1"/>
        <pt x="833" y="1530" on="1"/>
        <pt x="901" y="1506" on="0"/>
        <pt x="926" y="1362" on="1"/>
        <pt x="933" y="1322" on="0"/>
        <pt x="933" y="1284" on="1"/>
        <pt x="933" y="1206" on="0"/>
        <pt x="910" y="1160" on="1"/>
        <pt x="856" y="1268" on="1"/>
        <pt x="802" y="1374" on="0"/>
        <pt x="701" y="1410" on="1"/>
        <pt x="645" y="1430" on="0"/>
        <pt x="505" y="1430" on="0"/>
        <pt x="445" y="1421" on="0"/>
        <pt x="429" y="1404" on="1"/>
        <pt x="403" y="1375" on="0"/>
        <pt x="403" y="1212" on="0"/>
        <pt x="411" y="1149" on="0"/>
        <pt x="426" y="1129" on="1"/>
        <pt x="457" y="1090" on="0"/>
        <pt x="557" y="1090" on="1"/>
        <pt x="871" y="1090" on="1"/>
        <pt x="848" y="1032" on="0"/>
        <pt x="824" y="1008" on="1"/>
        <pt x="776" y="960" on="0"/>
        <pt x="694" y="960" on="1"/>
        <pt x="662" y="960" on="0"/>
        <pt x="633" y="967" on="1"/>
        <pt x="579" y="980" on="0"/>
        <pt x="497" y="980" on="0"/>
        <pt x="444" y="965" on="0"/>
        <pt x="429" y="949" on="1"/>
        <pt x="403" y="921" on="0"/>
        <pt x="403" y="848" on="1"/>
        <pt x="403" y="371" on="1"/>
        <pt x="403" y="183" on="0"/>
        <pt x="445" y="113" on="0"/>
        <pt x="505" y="100" on="0"/>
        <pt x="645" y="100" on="0"/>
        <pt x="759" y="140" on="0"/>
        <pt x="836" y="212" on="0"/>
        <pt x="886" y="311" on="0"/>
      </contour>
      <contour>
        <pt x="564" y="1684" on="0"/>
        <pt x="512" y="1644" on="0"/>
        <pt x="446" y="1644" on="0"/>
        <pt x="393" y="1684" on="0"/>
        <pt x="375" y="1714" on="1"/>
        <pt x="339" y="1775" on="0"/>
        <pt x="339" y="1843" on="1"/>
        <pt x="339" y="1926" on="0"/>
        <pt x="414" y="1954" on="1"/>
        <pt x="441" y="1964" on="0"/>
        <pt x="480" y="1964" on="1"/>
        <pt x="587" y="1964" on="0"/>
        <pt x="613" y="1888" on="1"/>
        <pt x="621" y="1867" on="0"/>
        <pt x="621" y="1814" on="0"/>
        <pt x="601" y="1744" on="0"/>
      </contour>
    </TTGlyph>
    <TTGlyph name="Egrave" xMin="23" yMin="0" xMax="937" yMax="1993">
      <contour>
        <pt x="910" y="370" on="1"/>
        <pt x="937" y="333" on="0"/>
        <pt x="937" y="193" on="0"/>
        <pt x="925" y="110" on="0"/>
        <pt x="912" y="76" on="1"/>
        <pt x="882" y="0" on="0"/>
        <pt x="833" y="0" on="1"/>
        <pt x="23" y="0" on="1"/>
        <pt x="100" y="41" on="0"/>
        <pt x="125" y="79" on="1"/>
        <pt x="172" y="150" on="0"/>
        <pt x="172" y="259" on="1"/>
        <pt x="171" y="526" on="0"/>
        <pt x="171" y="742" on="1"/>
        <pt x="171" y="1268" on="1"/>
        <pt x="171" y="1417" on="0"/>
        <pt x="124" y="1484" on="1"/>
        <pt x="106" y="1508" on="0"/>
        <pt x="81" y="1530" on="1"/>
        <pt x="833" y="1530" on="1"/>
        <pt x="901" y="1506" on="0"/>
        <pt x="926" y="1362" on="1"/>
        <pt x="933" y="1322" on="0"/>
        <pt x="933" y="1284" on="1"/>
        <pt x="933" y="1206" on="0"/>
        <pt x="910" y="1160" on="1"/>
        <pt x="856" y="1268" on="1"/>
        <pt x="802" y="1374" on="0"/>
        <pt x="701" y="1410" on="1"/>
        <pt x="645" y="1430" on="0"/>
        <pt x="505" y="1430" on="0"/>
        <pt x="445" y="1421" on="0"/>
        <pt x="429" y="1404" on="1"/>
        <pt x="403" y="1375" on="0"/>
        <pt x="403" y="1212" on="0"/>
        <pt x="411" y="1149" on="0"/>
        <pt x="426" y="1129" on="1"/>
        <pt x="457" y="1090" on="0"/>
        <pt x="557" y="1090" on="1"/>
        <pt x="871" y="1090" on="1"/>
        <pt x="848" y="1032" on="0"/>
        <pt x="824" y="1008" on="1"/>
        <pt x="776" y="960" on="0"/>
        <pt x="694" y="960" on="1"/>
        <pt x="662" y="960" on="0"/>
        <pt x="633" y="967" on="1"/>
        <pt x="579" y="980" on="0"/>
        <pt x="497" y="980" on="0"/>
        <pt x="444" y="965" on="0"/>
        <pt x="429" y="949" on="1"/>
        <pt x="403" y="921" on="0"/>
        <pt x="403" y="848" on="1"/>
        <pt x="403" y="371" on="1"/>
        <pt x="403" y="183" on="0"/>
        <pt x="445" y="113" on="0"/>
        <pt x="505" y="100" on="0"/>
        <pt x="645" y="100" on="0"/>
        <pt x="759" y="140" on="0"/>
        <pt x="836" y="212" on="0"/>
        <pt x="886" y="311" on="0"/>
      </contour>
      <contour>
        <pt x="463" y="1993" on="1"/>
        <pt x="463" y="1977" on="0"/>
        <pt x="521" y="1902" on="1"/>
        <pt x="659" y="1725" on="0"/>
        <pt x="693" y="1693" on="1"/>
        <pt x="545" y="1693" on="1"/>
        <pt x="419" y="1758" on="0"/>
        <pt x="291" y="1890" on="1"/>
        <pt x="243" y="1938" on="0"/>
        <pt x="206" y="1993" on="1"/>
      </contour>
    </TTGlyph>
    <TTGlyph name="Emacron" xMin="23" yMin="0" xMax="937" yMax="1913">
      <contour>
        <pt x="910" y="370" on="1"/>
        <pt x="937" y="333" on="0"/>
        <pt x="937" y="193" on="0"/>
        <pt x="925" y="110" on="0"/>
        <pt x="912" y="76" on="1"/>
        <pt x="882" y="0" on="0"/>
        <pt x="833" y="0" on="1"/>
        <pt x="23" y="0" on="1"/>
        <pt x="100" y="41" on="0"/>
        <pt x="125" y="79" on="1"/>
        <pt x="172" y="150" on="0"/>
        <pt x="172" y="259" on="1"/>
        <pt x="171" y="526" on="0"/>
        <pt x="171" y="742" on="1"/>
        <pt x="171" y="1268" on="1"/>
        <pt x="171" y="1417" on="0"/>
        <pt x="124" y="1484" on="1"/>
        <pt x="106" y="1508" on="0"/>
        <pt x="81" y="1530" on="1"/>
        <pt x="833" y="1530" on="1"/>
        <pt x="901" y="1506" on="0"/>
        <pt x="926" y="1362" on="1"/>
        <pt x="933" y="1322" on="0"/>
        <pt x="933" y="1284" on="1"/>
        <pt x="933" y="1206" on="0"/>
        <pt x="910" y="1160" on="1"/>
        <pt x="856" y="1268" on="1"/>
        <pt x="802" y="1374" on="0"/>
        <pt x="701" y="1410" on="1"/>
        <pt x="645" y="1430" on="0"/>
        <pt x="505" y="1430" on="0"/>
        <pt x="445" y="1421" on="0"/>
        <pt x="429" y="1404" on="1"/>
        <pt x="403" y="1375" on="0"/>
        <pt x="403" y="1212" on="0"/>
        <pt x="411" y="1149" on="0"/>
        <pt x="426" y="1129" on="1"/>
        <pt x="457" y="1090" on="0"/>
        <pt x="557" y="1090" on="1"/>
        <pt x="871" y="1090" on="1"/>
        <pt x="848" y="1032" on="0"/>
        <pt x="824" y="1008" on="1"/>
        <pt x="776" y="960" on="0"/>
        <pt x="694" y="960" on="1"/>
        <pt x="662" y="960" on="0"/>
        <pt x="633" y="967" on="1"/>
        <pt x="579" y="980" on="0"/>
        <pt x="497" y="980" on="0"/>
        <pt x="444" y="965" on="0"/>
        <pt x="429" y="949" on="1"/>
        <pt x="403" y="921" on="0"/>
        <pt x="403" y="848" on="1"/>
        <pt x="403" y="371" on="1"/>
        <pt x="403" y="183" on="0"/>
        <pt x="445" y="113" on="0"/>
        <pt x="505" y="100" on="0"/>
        <pt x="645" y="100" on="0"/>
        <pt x="759" y="140" on="0"/>
        <pt x="836" y="212" on="0"/>
        <pt x="886" y="311" on="0"/>
      </contour>
      <contour>
        <pt x="144" y="1913" on="1"/>
        <pt x="238" y="1893" on="0"/>
        <pt x="745" y="1893" on="0"/>
        <pt x="836" y="1913" on="1"/>
        <pt x="836" y="1723" on="1"/>
        <pt x="745" y="1743" on="0"/>
        <pt x="238" y="1743" on="0"/>
        <pt x="144" y="1723" on="1"/>
      </contour>
    </TTGlyph>
    <TTGlyph name="Eng" xMin="94" yMin="-540" xMax="1173" yMax="1531">
      <contour>
        <pt x="1109" y="269" on="1"/>
        <pt x="1116" y="-60" on="0"/>
        <pt x="1116" y="-181" on="0"/>
        <pt x="1072" y="-338" on="0"/>
        <pt x="1024" y="-400" on="1"/>
        <pt x="918" y="-540" on="0"/>
        <pt x="727" y="-540" on="1"/>
        <pt x="575" y="-540" on="0"/>
        <pt x="486" y="-444" on="1"/>
        <pt x="405" y="-357" on="0"/>
        <pt x="405" y="-230" on="1"/>
        <pt x="450" y="-126" on="0"/>
        <pt x="501" y="-71" on="1"/>
        <pt x="585" y="20" on="0"/>
        <pt x="641" y="30" on="1"/>
        <pt x="625" y="-61" on="0"/>
        <pt x="625" y="-209" on="0"/>
        <pt x="638" y="-311" on="0"/>
        <pt x="653" y="-351" on="1"/>
        <pt x="686" y="-440" on="0"/>
        <pt x="757" y="-440" on="1"/>
        <pt x="878" y="-440" on="0"/>
        <pt x="878" y="-190" on="1"/>
        <pt x="878" y="-29" on="1"/>
        <pt x="877" y="60" on="1"/>
        <pt x="877" y="91" on="0"/>
        <pt x="875" y="143" on="1"/>
        <pt x="622" y="611" on="1"/>
        <pt x="359" y="1089" on="1"/>
        <pt x="357" y="985" on="0"/>
        <pt x="357" y="852" on="1"/>
        <pt x="357" y="663" on="0"/>
        <pt x="371" y="176" on="0"/>
        <pt x="379" y="109" on="0"/>
        <pt x="385" y="84" on="1"/>
        <pt x="395" y="43" on="0"/>
        <pt x="416" y="0" on="1"/>
        <pt x="148" y="0" on="1"/>
        <pt x="178" y="61" on="0"/>
        <pt x="191" y="178" on="0"/>
        <pt x="195" y="236" on="1"/>
        <pt x="203" y="354" on="0"/>
        <pt x="203" y="553" on="1"/>
        <pt x="203" y="794" on="0"/>
        <pt x="195" y="993" on="1"/>
        <pt x="184" y="1268" on="1"/>
        <pt x="178" y="1420" on="0"/>
        <pt x="136" y="1484" on="1"/>
        <pt x="119" y="1508" on="0"/>
        <pt x="94" y="1530" on="1"/>
        <pt x="405" y="1530" on="1"/>
        <pt x="464" y="1393" on="0"/>
        <pt x="530" y="1260" on="1"/>
        <pt x="666" y="992" on="1"/>
        <pt x="958" y="456" on="1"/>
        <pt x="959" y="519" on="0"/>
        <pt x="959" y="590" on="1"/>
        <pt x="959" y="748" on="1"/>
        <pt x="959" y="1248" on="0"/>
        <pt x="898" y="1470" on="1"/>
        <pt x="886" y="1511" on="0"/>
        <pt x="872" y="1530" on="1"/>
        <pt x="1173" y="1531" on="1"/>
        <pt x="1123" y="1431" on="0"/>
        <pt x="1110" y="968" on="1"/>
        <pt x="1108" y="896" on="0"/>
        <pt x="1108" y="830" on="1"/>
        <pt x="1109" y="746" on="1"/>
      </contour>
    </TTGlyph>
    <TTGlyph name="Eogonek" xMin="23" yMin="-482" xMax="951" yMax="1530">
      <contour>
        <pt x="864" y="-361" on="1"/>
        <pt x="903" y="-361" on="0"/>
        <pt x="942" y="-346" on="1"/>
        <pt x="951" y="-392" on="0"/>
        <pt x="936" y="-430" on="1"/>
        <pt x="892" y="-465" on="0"/>
        <pt x="799" y="-478" on="1"/>
        <pt x="771" y="-482" on="0"/>
        <pt x="703" y="-482" on="0"/>
        <pt x="620" y="-457" on="0"/>
        <pt x="588" y="-432" on="1"/>
        <pt x="515" y="-376" on="0"/>
        <pt x="515" y="-284" on="1"/>
        <pt x="515" y="-210" on="0"/>
        <pt x="624" y="-68" on="1"/>
        <pt x="650" y="-34" on="0"/>
        <pt x="670" y="0" on="1"/>
        <pt x="23" y="0" on="1"/>
        <pt x="100" y="41" on="0"/>
        <pt x="125" y="79" on="1"/>
        <pt x="172" y="150" on="0"/>
        <pt x="172" y="259" on="1"/>
        <pt x="171" y="526" on="0"/>
        <pt x="171" y="742" on="1"/>
        <pt x="171" y="1268" on="1"/>
        <pt x="171" y="1417" on="0"/>
        <pt x="124" y="1484" on="1"/>
        <pt x="106" y="1508" on="0"/>
        <pt x="81" y="1530" on="1"/>
        <pt x="833" y="1530" on="1"/>
        <pt x="901" y="1506" on="0"/>
        <pt x="926" y="1362" on="1"/>
        <pt x="933" y="1322" on="0"/>
        <pt x="933" y="1284" on="1"/>
        <pt x="933" y="1206" on="0"/>
        <pt x="910" y="1160" on="1"/>
        <pt x="856" y="1268" on="1"/>
        <pt x="802" y="1374" on="0"/>
        <pt x="701" y="1410" on="1"/>
        <pt x="645" y="1430" on="0"/>
        <pt x="505" y="1430" on="0"/>
        <pt x="445" y="1421" on="0"/>
        <pt x="429" y="1404" on="1"/>
        <pt x="403" y="1375" on="0"/>
        <pt x="403" y="1212" on="0"/>
        <pt x="411" y="1149" on="0"/>
        <pt x="426" y="1129" on="1"/>
        <pt x="457" y="1090" on="0"/>
        <pt x="557" y="1090" on="1"/>
        <pt x="871" y="1090" on="1"/>
        <pt x="848" y="1032" on="0"/>
        <pt x="824" y="1008" on="1"/>
        <pt x="776" y="960" on="0"/>
        <pt x="694" y="960" on="1"/>
        <pt x="662" y="960" on="0"/>
        <pt x="633" y="967" on="1"/>
        <pt x="579" y="980" on="0"/>
        <pt x="497" y="980" on="0"/>
        <pt x="444" y="965" on="0"/>
        <pt x="429" y="949" on="1"/>
        <pt x="403" y="921" on="0"/>
        <pt x="403" y="848" on="1"/>
        <pt x="403" y="371" on="1"/>
        <pt x="403" y="183" on="0"/>
        <pt x="445" y="113" on="0"/>
        <pt x="505" y="100" on="0"/>
        <pt x="645" y="100" on="0"/>
        <pt x="759" y="140" on="0"/>
        <pt x="836" y="212" on="0"/>
        <pt x="886" y="311" on="0"/>
        <pt x="910" y="370" on="1"/>
        <pt x="937" y="333" on="0"/>
        <pt x="937" y="193" on="0"/>
        <pt x="925" y="110" on="0"/>
        <pt x="912" y="76" on="1"/>
        <pt x="882" y="0" on="0"/>
        <pt x="833" y="0" on="1"/>
        <pt x="832" y="0" on="1"/>
        <pt x="790" y="-50" on="1"/>
        <pt x="710" y="-145" on="0"/>
        <pt x="710" y="-212" on="1"/>
        <pt x="710" y="-361" on="0"/>
      </contour>
    </TTGlyph>
    <TTGlyph name="Eth" xMin="51" yMin="-1" xMax="1125" yMax="1530">
      <contour>
        <pt x="194" y="965" on="1"/>
        <pt x="95" y="960" on="0"/>
        <pt x="51" y="938" on="1"/>
        <pt x="51" y="1113" on="1"/>
        <pt x="93" y="1095" on="0"/>
        <pt x="189" y="1088" on="1"/>
        <pt x="182" y="1268" on="1"/>
        <pt x="178" y="1372" on="0"/>
        <pt x="164" y="1413" on="1"/>
        <pt x="142" y="1478" on="0"/>
        <pt x="92" y="1530" on="1"/>
        <pt x="641" y="1530" on="1"/>
        <pt x="983" y="1530" on="0"/>
        <pt x="1088" y="1261" on="1"/>
        <pt x="1125" y="1166" on="0"/>
        <pt x="1125" y="1031" on="1"/>
        <pt x="1125" y="276" on="0"/>
        <pt x="613" y="69" on="1"/>
        <pt x="440" y="-1" on="0"/>
        <pt x="206" y="-1" on="1"/>
        <pt x="191" y="-1" on="0"/>
        <pt x="161" y="-1" on="0"/>
        <pt x="146" y="0" on="1"/>
        <pt x="178" y="76" on="0"/>
        <pt x="189" y="178" on="0"/>
        <pt x="193" y="237" on="1"/>
        <pt x="201" y="355" on="0"/>
        <pt x="201" y="732" on="0"/>
      </contour>
      <contour>
        <pt x="424" y="965" on="1"/>
        <pt x="425" y="265" on="1"/>
        <pt x="426" y="208" on="0"/>
        <pt x="450" y="150" on="0"/>
        <pt x="488" y="150" on="1"/>
        <pt x="666" y="150" on="0"/>
        <pt x="764" y="376" on="1"/>
        <pt x="861" y="596" on="0"/>
        <pt x="861" y="986" on="1"/>
        <pt x="861" y="1191" on="0"/>
        <pt x="813" y="1297" on="1"/>
        <pt x="748" y="1440" on="0"/>
        <pt x="587" y="1440" on="1"/>
        <pt x="484" y="1440" on="0"/>
        <pt x="437" y="1392" on="0"/>
        <pt x="424" y="1321" on="0"/>
        <pt x="424" y="1261" on="1"/>
        <pt x="424" y="1086" on="1"/>
        <pt x="619" y="1091" on="0"/>
        <pt x="703" y="1113" on="1"/>
        <pt x="703" y="938" on="1"/>
        <pt x="615" y="960" on="0"/>
      </contour>
    </TTGlyph>
    <TTGlyph name="Euro" xMin="48" yMin="-10" xMax="1177" yMax="1600">
      <contour>
        <pt x="1148" y="1600" on="1"/>
        <pt x="1177" y="1559" on="0"/>
        <pt x="1177" y="1390" on="0"/>
        <pt x="1166" y="1285" on="0"/>
        <pt x="1155" y="1236" on="1"/>
        <pt x="1131" y="1126" on="0"/>
        <pt x="1088" y="1070" on="1"/>
        <pt x="1051" y="1263" on="0"/>
        <pt x="992" y="1346" on="1"/>
        <pt x="930" y="1430" on="0"/>
        <pt x="729" y="1430" on="0"/>
        <pt x="614" y="1357" on="0"/>
        <pt x="582" y="1297" on="1"/>
        <pt x="529" y="1195" on="0"/>
        <pt x="529" y="1000" on="1"/>
        <pt x="590" y="1000" on="1"/>
        <pt x="894" y="1000" on="0"/>
        <pt x="1020" y="1030" on="1"/>
        <pt x="980" y="870" on="1"/>
        <pt x="854" y="900" on="0"/>
        <pt x="550" y="900" on="1"/>
        <pt x="531" y="900" on="1"/>
        <pt x="540" y="763" on="0"/>
        <pt x="565" y="662" on="1"/>
        <pt x="830" y="662" on="0"/>
        <pt x="960" y="692" on="1"/>
        <pt x="920" y="532" on="1"/>
        <pt x="815" y="556" on="0"/>
        <pt x="593" y="561" on="1"/>
        <pt x="668" y="338" on="0"/>
        <pt x="819" y="210" on="1"/>
        <pt x="974" y="80" on="0"/>
        <pt x="1175" y="80" on="1"/>
        <pt x="1171" y="35" on="0"/>
        <pt x="1128" y="2" on="1"/>
        <pt x="1115" y="-8" on="0"/>
        <pt x="1100" y="-10" on="1"/>
        <pt x="837" y="-10" on="0"/>
        <pt x="638" y="135" on="1"/>
        <pt x="434" y="285" on="0"/>
        <pt x="337" y="561" on="1"/>
        <pt x="141" y="556" on="0"/>
        <pt x="48" y="532" on="1"/>
        <pt x="88" y="692" on="1"/>
        <pt x="161" y="673" on="0"/>
        <pt x="306" y="666" on="1"/>
        <pt x="281" y="771" on="0"/>
        <pt x="270" y="893" on="1"/>
        <pt x="166" y="886" on="0"/>
        <pt x="108" y="870" on="1"/>
        <pt x="148" y="1030" on="1"/>
        <pt x="184" y="1020" on="0"/>
        <pt x="265" y="1010" on="1"/>
        <pt x="265" y="1031" on="1"/>
        <pt x="265" y="1287" on="0"/>
        <pt x="415" y="1416" on="1"/>
        <pt x="548" y="1530" on="0"/>
        <pt x="779" y="1530" on="1"/>
        <pt x="946" y="1528" on="1"/>
        <pt x="1064" y="1528" on="0"/>
        <pt x="1112" y="1562" on="1"/>
        <pt x="1132" y="1577" on="0"/>
      </contour>
    </TTGlyph>
    <TTGlyph name="F" xMin="29" yMin="0" xMax="939" yMax="1530">
      <contour>
        <pt x="409" y="848" on="1"/>
        <pt x="409" y="641" on="1"/>
        <pt x="409" y="323" on="0"/>
        <pt x="424" y="176" on="0"/>
        <pt x="438" y="112" on="0"/>
        <pt x="452" y="87" on="1"/>
        <pt x="474" y="46" on="0"/>
        <pt x="536" y="0" on="1"/>
        <pt x="29" y="0" on="1"/>
        <pt x="108" y="49" on="0"/>
        <pt x="132" y="85" on="1"/>
        <pt x="178" y="153" on="0"/>
        <pt x="178" y="261" on="1"/>
        <pt x="177" y="527" on="0"/>
        <pt x="177" y="743" on="1"/>
        <pt x="177" y="1268" on="1"/>
        <pt x="177" y="1417" on="0"/>
        <pt x="130" y="1484" on="1"/>
        <pt x="112" y="1508" on="0"/>
        <pt x="87" y="1530" on="1"/>
        <pt x="839" y="1530" on="1"/>
        <pt x="907" y="1506" on="0"/>
        <pt x="932" y="1362" on="1"/>
        <pt x="939" y="1322" on="0"/>
        <pt x="939" y="1284" on="1"/>
        <pt x="939" y="1206" on="0"/>
        <pt x="916" y="1160" on="1"/>
        <pt x="862" y="1268" on="1"/>
        <pt x="808" y="1374" on="0"/>
        <pt x="707" y="1410" on="1"/>
        <pt x="651" y="1430" on="0"/>
        <pt x="511" y="1430" on="0"/>
        <pt x="451" y="1421" on="0"/>
        <pt x="435" y="1404" on="1"/>
        <pt x="409" y="1375" on="0"/>
        <pt x="409" y="1212" on="0"/>
        <pt x="417" y="1149" on="0"/>
        <pt x="432" y="1129" on="1"/>
        <pt x="463" y="1090" on="0"/>
        <pt x="563" y="1090" on="1"/>
        <pt x="877" y="1090" on="1"/>
        <pt x="854" y="1032" on="0"/>
        <pt x="830" y="1008" on="1"/>
        <pt x="782" y="960" on="0"/>
        <pt x="700" y="960" on="1"/>
        <pt x="668" y="960" on="0"/>
        <pt x="639" y="967" on="1"/>
        <pt x="585" y="980" on="0"/>
        <pt x="503" y="980" on="0"/>
        <pt x="450" y="965" on="0"/>
        <pt x="435" y="949" on="1"/>
        <pt x="409" y="921" on="0"/>
      </contour>
    </TTGlyph>
    <TTGlyph name="G" xMin="93" yMin="-21" xMax="1086" yMax="1600">
      <contour>
        <pt x="775" y="489" on="1"/>
        <pt x="774" y="619" on="1"/>
        <pt x="774" y="732" on="0"/>
        <pt x="730" y="807" on="0"/>
        <pt x="682" y="842" on="0"/>
        <pt x="647" y="860" on="1"/>
        <pt x="1086" y="860" on="1"/>
        <pt x="1023" y="802" on="0"/>
        <pt x="1006" y="712" on="1"/>
        <pt x="990" y="626" on="0"/>
        <pt x="990" y="446" on="1"/>
        <pt x="990" y="96" on="0"/>
        <pt x="1032" y="-20" on="1"/>
        <pt x="1018" y="-21" on="0"/>
        <pt x="1004" y="-21" on="1"/>
        <pt x="977" y="-21" on="1"/>
        <pt x="537" y="-21" on="0"/>
        <pt x="310" y="262" on="1"/>
        <pt x="93" y="533" on="0"/>
        <pt x="93" y="1031" on="1"/>
        <pt x="93" y="1277" on="0"/>
        <pt x="238" y="1408" on="1"/>
        <pt x="372" y="1530" on="0"/>
        <pt x="597" y="1530" on="1"/>
        <pt x="773" y="1528" on="1"/>
        <pt x="912" y="1528" on="0"/>
        <pt x="967" y="1562" on="1"/>
        <pt x="990" y="1577" on="0"/>
        <pt x="1006" y="1600" on="1"/>
        <pt x="1031" y="1552" on="0"/>
        <pt x="1031" y="1384" on="0"/>
        <pt x="1021" y="1281" on="0"/>
        <pt x="1011" y="1232" on="1"/>
        <pt x="990" y="1128" on="0"/>
        <pt x="946" y="1070" on="1"/>
        <pt x="908" y="1270" on="0"/>
        <pt x="851" y="1346" on="1"/>
        <pt x="787" y="1430" on="0"/>
        <pt x="651" y="1430" on="1"/>
        <pt x="479" y="1430" on="0"/>
        <pt x="408" y="1292" on="1"/>
        <pt x="357" y="1191" on="0"/>
        <pt x="357" y="986" on="1"/>
        <pt x="357" y="705" on="0"/>
        <pt x="444" y="447" on="1"/>
        <pt x="505" y="266" on="0"/>
        <pt x="596" y="190" on="1"/>
        <pt x="643" y="150" on="0"/>
        <pt x="744" y="150" on="0"/>
        <pt x="772" y="208" on="0"/>
        <pt x="773" y="278" on="1"/>
        <pt x="775" y="416" on="0"/>
      </contour>
    </TTGlyph>
    <TTGlyph name="Gbreve" xMin="93" yMin="-21" xMax="1086" yMax="1980">
      <contour>
        <pt x="775" y="489" on="1"/>
        <pt x="774" y="619" on="1"/>
        <pt x="774" y="732" on="0"/>
        <pt x="730" y="807" on="0"/>
        <pt x="682" y="842" on="0"/>
        <pt x="647" y="860" on="1"/>
        <pt x="1086" y="860" on="1"/>
        <pt x="1023" y="802" on="0"/>
        <pt x="1006" y="712" on="1"/>
        <pt x="990" y="626" on="0"/>
        <pt x="990" y="446" on="1"/>
        <pt x="990" y="96" on="0"/>
        <pt x="1032" y="-20" on="1"/>
        <pt x="1018" y="-21" on="0"/>
        <pt x="1004" y="-21" on="1"/>
        <pt x="977" y="-21" on="1"/>
        <pt x="537" y="-21" on="0"/>
        <pt x="310" y="262" on="1"/>
        <pt x="93" y="533" on="0"/>
        <pt x="93" y="1031" on="1"/>
        <pt x="93" y="1277" on="0"/>
        <pt x="238" y="1408" on="1"/>
        <pt x="372" y="1530" on="0"/>
        <pt x="597" y="1530" on="1"/>
        <pt x="773" y="1528" on="1"/>
        <pt x="912" y="1528" on="0"/>
        <pt x="967" y="1562" on="1"/>
        <pt x="990" y="1577" on="0"/>
        <pt x="1006" y="1600" on="1"/>
        <pt x="1031" y="1552" on="0"/>
        <pt x="1031" y="1384" on="0"/>
        <pt x="1021" y="1281" on="0"/>
        <pt x="1011" y="1232" on="1"/>
        <pt x="990" y="1128" on="0"/>
        <pt x="946" y="1070" on="1"/>
        <pt x="908" y="1270" on="0"/>
        <pt x="851" y="1346" on="1"/>
        <pt x="787" y="1430" on="0"/>
        <pt x="651" y="1430" on="1"/>
        <pt x="479" y="1430" on="0"/>
        <pt x="408" y="1292" on="1"/>
        <pt x="357" y="1191" on="0"/>
        <pt x="357" y="986" on="1"/>
        <pt x="357" y="705" on="0"/>
        <pt x="444" y="447" on="1"/>
        <pt x="505" y="266" on="0"/>
        <pt x="596" y="190" on="1"/>
        <pt x="643" y="150" on="0"/>
        <pt x="744" y="150" on="0"/>
        <pt x="772" y="208" on="0"/>
        <pt x="773" y="278" on="1"/>
        <pt x="775" y="416" on="0"/>
      </contour>
      <contour>
        <pt x="521" y="1790" on="1"/>
        <pt x="560" y="1775" on="0"/>
        <pt x="659" y="1775" on="0"/>
        <pt x="732" y="1806" on="0"/>
        <pt x="759" y="1834" on="1"/>
        <pt x="818" y="1895" on="0"/>
        <pt x="818" y="1980" on="1"/>
        <pt x="942" y="1980" on="1"/>
        <pt x="942" y="1858" on="0"/>
        <pt x="877" y="1752" on="1"/>
        <pt x="791" y="1610" on="0"/>
        <pt x="624" y="1610" on="1"/>
        <pt x="379" y="1610" on="0"/>
        <pt x="301" y="1832" on="1"/>
        <pt x="276" y="1905" on="0"/>
        <pt x="276" y="1980" on="1"/>
        <pt x="410" y="1980" on="1"/>
        <pt x="410" y="1834" on="0"/>
      </contour>
    </TTGlyph>
    <TTGlyph name="Gcircumflex" xMin="93" yMin="-21" xMax="1086" yMax="1981">
      <contour>
        <pt x="775" y="489" on="1"/>
        <pt x="774" y="619" on="1"/>
        <pt x="774" y="732" on="0"/>
        <pt x="730" y="807" on="0"/>
        <pt x="682" y="842" on="0"/>
        <pt x="647" y="860" on="1"/>
        <pt x="1086" y="860" on="1"/>
        <pt x="1023" y="802" on="0"/>
        <pt x="1006" y="712" on="1"/>
        <pt x="990" y="626" on="0"/>
        <pt x="990" y="446" on="1"/>
        <pt x="990" y="96" on="0"/>
        <pt x="1032" y="-20" on="1"/>
        <pt x="1018" y="-21" on="0"/>
        <pt x="1004" y="-21" on="1"/>
        <pt x="977" y="-21" on="1"/>
        <pt x="537" y="-21" on="0"/>
        <pt x="310" y="262" on="1"/>
        <pt x="93" y="533" on="0"/>
        <pt x="93" y="1031" on="1"/>
        <pt x="93" y="1277" on="0"/>
        <pt x="238" y="1408" on="1"/>
        <pt x="372" y="1530" on="0"/>
        <pt x="597" y="1530" on="1"/>
        <pt x="773" y="1528" on="1"/>
        <pt x="912" y="1528" on="0"/>
        <pt x="967" y="1562" on="1"/>
        <pt x="990" y="1577" on="0"/>
        <pt x="1006" y="1600" on="1"/>
        <pt x="1031" y="1552" on="0"/>
        <pt x="1031" y="1384" on="0"/>
        <pt x="1021" y="1281" on="0"/>
        <pt x="1011" y="1232" on="1"/>
        <pt x="990" y="1128" on="0"/>
        <pt x="946" y="1070" on="1"/>
        <pt x="908" y="1270" on="0"/>
        <pt x="851" y="1346" on="1"/>
        <pt x="787" y="1430" on="0"/>
        <pt x="651" y="1430" on="1"/>
        <pt x="479" y="1430" on="0"/>
        <pt x="408" y="1292" on="1"/>
        <pt x="357" y="1191" on="0"/>
        <pt x="357" y="986" on="1"/>
        <pt x="357" y="705" on="0"/>
        <pt x="444" y="447" on="1"/>
        <pt x="505" y="266" on="0"/>
        <pt x="596" y="190" on="1"/>
        <pt x="643" y="150" on="0"/>
        <pt x="744" y="150" on="0"/>
        <pt x="772" y="208" on="0"/>
        <pt x="773" y="278" on="1"/>
        <pt x="775" y="416" on="0"/>
      </contour>
      <contour>
        <pt x="866" y="1681" on="1"/>
        <pt x="742" y="1736" on="0"/>
        <pt x="623" y="1836" on="1"/>
        <pt x="494" y="1731" on="0"/>
        <pt x="382" y="1681" on="1"/>
        <pt x="279" y="1681" on="1"/>
        <pt x="297" y="1698" on="0"/>
        <pt x="322" y="1726" on="1"/>
        <pt x="441" y="1868" on="0"/>
        <pt x="469" y="1903" on="1"/>
        <pt x="510" y="1957" on="1"/>
        <pt x="525" y="1976" on="0"/>
        <pt x="527" y="1981" on="1"/>
        <pt x="721" y="1981" on="1"/>
        <pt x="723" y="1976" on="0"/>
        <pt x="738" y="1957" on="1"/>
        <pt x="929" y="1719" on="0"/>
        <pt x="969" y="1681" on="1"/>
      </contour>
    </TTGlyph>
    <TTGlyph name="Gcommaaccent" xMin="93" yMin="-499" xMax="1086" yMax="1600">
      <contour>
        <pt x="775" y="489" on="1"/>
        <pt x="774" y="619" on="1"/>
        <pt x="774" y="732" on="0"/>
        <pt x="730" y="807" on="0"/>
        <pt x="682" y="842" on="0"/>
        <pt x="647" y="860" on="1"/>
        <pt x="1086" y="860" on="1"/>
        <pt x="1023" y="802" on="0"/>
        <pt x="1006" y="712" on="1"/>
        <pt x="990" y="626" on="0"/>
        <pt x="990" y="446" on="1"/>
        <pt x="990" y="96" on="0"/>
        <pt x="1032" y="-20" on="1"/>
        <pt x="1018" y="-21" on="0"/>
        <pt x="1004" y="-21" on="1"/>
        <pt x="977" y="-21" on="1"/>
        <pt x="537" y="-21" on="0"/>
        <pt x="310" y="262" on="1"/>
        <pt x="93" y="533" on="0"/>
        <pt x="93" y="1031" on="1"/>
        <pt x="93" y="1277" on="0"/>
        <pt x="238" y="1408" on="1"/>
        <pt x="372" y="1530" on="0"/>
        <pt x="597" y="1530" on="1"/>
        <pt x="773" y="1528" on="1"/>
        <pt x="912" y="1528" on="0"/>
        <pt x="967" y="1562" on="1"/>
        <pt x="990" y="1577" on="0"/>
        <pt x="1006" y="1600" on="1"/>
        <pt x="1031" y="1552" on="0"/>
        <pt x="1031" y="1384" on="0"/>
        <pt x="1021" y="1281" on="0"/>
        <pt x="1011" y="1232" on="1"/>
        <pt x="990" y="1128" on="0"/>
        <pt x="946" y="1070" on="1"/>
        <pt x="908" y="1270" on="0"/>
        <pt x="851" y="1346" on="1"/>
        <pt x="787" y="1430" on="0"/>
        <pt x="651" y="1430" on="1"/>
        <pt x="479" y="1430" on="0"/>
        <pt x="408" y="1292" on="1"/>
        <pt x="357" y="1191" on="0"/>
        <pt x="357" y="986" on="1"/>
        <pt x="357" y="705" on="0"/>
        <pt x="444" y="447" on="1"/>
        <pt x="505" y="266" on="0"/>
        <pt x="596" y="190" on="1"/>
        <pt x="643" y="150" on="0"/>
        <pt x="744" y="150" on="0"/>
        <pt x="772" y="208" on="0"/>
        <pt x="773" y="278" on="1"/>
        <pt x="775" y="416" on="0"/>
      </contour>
      <contour>
        <pt x="811" y="-84" on="1"/>
        <pt x="835" y="-128" on="0"/>
        <pt x="835" y="-155" on="1"/>
        <pt x="835" y="-246" on="0"/>
        <pt x="760" y="-358" on="0"/>
        <pt x="719" y="-396" on="1"/>
        <pt x="632" y="-479" on="0"/>
        <pt x="558" y="-499" on="1"/>
        <pt x="525" y="-487" on="0"/>
        <pt x="496" y="-458" on="1"/>
        <pt x="597" y="-374" on="0"/>
        <pt x="597" y="-273" on="1"/>
        <pt x="597" y="-194" on="0"/>
        <pt x="545" y="-116" on="1"/>
        <pt x="530" y="-95" on="0"/>
        <pt x="515" y="-84" on="1"/>
      </contour>
    </TTGlyph>
    <TTGlyph name="Gdotaccent" xMin="93" yMin="-21" xMax="1086" yMax="1964">
      <contour>
        <pt x="775" y="489" on="1"/>
        <pt x="774" y="619" on="1"/>
        <pt x="774" y="732" on="0"/>
        <pt x="730" y="807" on="0"/>
        <pt x="682" y="842" on="0"/>
        <pt x="647" y="860" on="1"/>
        <pt x="1086" y="860" on="1"/>
        <pt x="1023" y="802" on="0"/>
        <pt x="1006" y="712" on="1"/>
        <pt x="990" y="626" on="0"/>
        <pt x="990" y="446" on="1"/>
        <pt x="990" y="96" on="0"/>
        <pt x="1032" y="-20" on="1"/>
        <pt x="1018" y="-21" on="0"/>
        <pt x="1004" y="-21" on="1"/>
        <pt x="977" y="-21" on="1"/>
        <pt x="537" y="-21" on="0"/>
        <pt x="310" y="262" on="1"/>
        <pt x="93" y="533" on="0"/>
        <pt x="93" y="1031" on="1"/>
        <pt x="93" y="1277" on="0"/>
        <pt x="238" y="1408" on="1"/>
        <pt x="372" y="1530" on="0"/>
        <pt x="597" y="1530" on="1"/>
        <pt x="773" y="1528" on="1"/>
        <pt x="912" y="1528" on="0"/>
        <pt x="967" y="1562" on="1"/>
        <pt x="990" y="1577" on="0"/>
        <pt x="1006" y="1600" on="1"/>
        <pt x="1031" y="1552" on="0"/>
        <pt x="1031" y="1384" on="0"/>
        <pt x="1021" y="1281" on="0"/>
        <pt x="1011" y="1232" on="1"/>
        <pt x="990" y="1128" on="0"/>
        <pt x="946" y="1070" on="1"/>
        <pt x="908" y="1270" on="0"/>
        <pt x="851" y="1346" on="1"/>
        <pt x="787" y="1430" on="0"/>
        <pt x="651" y="1430" on="1"/>
        <pt x="479" y="1430" on="0"/>
        <pt x="408" y="1292" on="1"/>
        <pt x="357" y="1191" on="0"/>
        <pt x="357" y="986" on="1"/>
        <pt x="357" y="705" on="0"/>
        <pt x="444" y="447" on="1"/>
        <pt x="505" y="266" on="0"/>
        <pt x="596" y="190" on="1"/>
        <pt x="643" y="150" on="0"/>
        <pt x="744" y="150" on="0"/>
        <pt x="772" y="208" on="0"/>
        <pt x="773" y="278" on="1"/>
        <pt x="775" y="416" on="0"/>
      </contour>
      <contour>
        <pt x="663" y="1684" on="0"/>
        <pt x="611" y="1644" on="0"/>
        <pt x="545" y="1644" on="0"/>
        <pt x="492" y="1684" on="0"/>
        <pt x="474" y="1714" on="1"/>
        <pt x="438" y="1775" on="0"/>
        <pt x="438" y="1843" on="1"/>
        <pt x="438" y="1926" on="0"/>
        <pt x="513" y="1954" on="1"/>
        <pt x="540" y="1964" on="0"/>
        <pt x="579" y="1964" on="1"/>
        <pt x="686" y="1964" on="0"/>
        <pt x="712" y="1888" on="1"/>
        <pt x="720" y="1867" on="0"/>
        <pt x="720" y="1814" on="0"/>
        <pt x="700" y="1744" on="0"/>
      </contour>
    </TTGlyph>
    <TTGlyph name="H" xMin="125" yMin="0" xMax="1133" yMax="1530">
      <contour>
        <pt x="849" y="595" on="1"/>
        <pt x="848" y="869" on="1"/>
        <pt x="848" y="925" on="0"/>
        <pt x="830" y="945" on="1"/>
        <pt x="797" y="982" on="0"/>
        <pt x="708" y="982" on="1"/>
        <pt x="550" y="982" on="1"/>
        <pt x="426" y="982" on="0"/>
        <pt x="414" y="912" on="1"/>
        <pt x="411" y="892" on="0"/>
        <pt x="411" y="869" on="1"/>
        <pt x="410" y="569" on="1"/>
        <pt x="410" y="181" on="0"/>
        <pt x="450" y="83" on="1"/>
        <pt x="466" y="45" on="0"/>
        <pt x="500" y="0" on="1"/>
        <pt x="125" y="0" on="1"/>
        <pt x="157" y="76" on="0"/>
        <pt x="168" y="178" on="0"/>
        <pt x="174" y="253" on="1"/>
        <pt x="185" y="410" on="0"/>
        <pt x="185" y="814" on="0"/>
        <pt x="183" y="967" on="0"/>
        <pt x="182" y="1040" on="1"/>
        <pt x="175" y="1343" on="0"/>
        <pt x="151" y="1464" on="0"/>
        <pt x="143" y="1485" on="1"/>
        <pt x="125" y="1530" on="1"/>
        <pt x="500" y="1530" on="1"/>
        <pt x="428" y="1450" on="0"/>
        <pt x="420" y="1314" on="1"/>
        <pt x="417" y="1273" on="0"/>
        <pt x="417" y="1183" on="0"/>
        <pt x="434" y="1132" on="0"/>
        <pt x="454" y="1120" on="1"/>
        <pt x="481" y="1102" on="0"/>
        <pt x="581" y="1102" on="1"/>
        <pt x="676" y="1102" on="1"/>
        <pt x="778" y="1102" on="0"/>
        <pt x="802" y="1117" on="1"/>
        <pt x="842" y="1143" on="0"/>
        <pt x="842" y="1230" on="1"/>
        <pt x="842" y="1443" on="0"/>
        <pt x="758" y="1530" on="1"/>
        <pt x="1133" y="1530" on="1"/>
        <pt x="1103" y="1464" on="0"/>
        <pt x="1090" y="1352" on="0"/>
        <pt x="1084" y="1249" on="0"/>
        <pt x="1078" y="1113" on="0"/>
        <pt x="1076" y="1040" on="1"/>
        <pt x="1073" y="870" on="0"/>
        <pt x="1073" y="732" on="1"/>
        <pt x="1073" y="171" on="0"/>
        <pt x="1115" y="45" on="1"/>
        <pt x="1122" y="24" on="0"/>
        <pt x="1133" y="0" on="1"/>
        <pt x="758" y="0" on="1"/>
        <pt x="808" y="67" on="0"/>
        <pt x="830" y="164" on="0"/>
        <pt x="836" y="230" on="1"/>
        <pt x="849" y="357" on="0"/>
      </contour>
    </TTGlyph>
    <TTGlyph name="Hbar" xMin="47" yMin="0" xMax="1219" yMax="1530">
      <contour>
        <pt x="173" y="1268" on="1"/>
        <pt x="171" y="1290" on="0"/>
        <pt x="168" y="1352" on="0"/>
        <pt x="161" y="1414" on="0"/>
        <pt x="151" y="1464" on="0"/>
        <pt x="143" y="1485" on="1"/>
        <pt x="125" y="1530" on="1"/>
        <pt x="500" y="1530" on="1"/>
        <pt x="452" y="1482" on="0"/>
        <pt x="432" y="1261" on="1"/>
        <pt x="486" y="1260" on="0"/>
        <pt x="538" y="1260" on="1"/>
        <pt x="634" y="1260" on="0"/>
        <pt x="776" y="1260" on="0"/>
        <pt x="825" y="1261" on="1"/>
        <pt x="800" y="1484" on="0"/>
        <pt x="758" y="1530" on="1"/>
        <pt x="1133" y="1530" on="1"/>
        <pt x="1103" y="1464" on="0"/>
        <pt x="1090" y="1352" on="0"/>
        <pt x="1088" y="1325" on="1"/>
        <pt x="1085" y="1284" on="0"/>
        <pt x="1085" y="1269" on="1"/>
        <pt x="1171" y="1274" on="0"/>
        <pt x="1219" y="1280" on="1"/>
        <pt x="1219" y="1110" on="1"/>
        <pt x="1169" y="1116" on="0"/>
        <pt x="1079" y="1121" on="1"/>
        <pt x="1073" y="939" on="0"/>
        <pt x="1073" y="765" on="1"/>
        <pt x="1073" y="222" on="0"/>
        <pt x="1102" y="90" on="1"/>
        <pt x="1113" y="44" on="0"/>
        <pt x="1133" y="0" on="1"/>
        <pt x="758" y="0" on="1"/>
        <pt x="808" y="67" on="0"/>
        <pt x="830" y="164" on="0"/>
        <pt x="838" y="248" on="0"/>
        <pt x="841" y="276" on="1"/>
        <pt x="846" y="322" on="1"/>
        <pt x="849" y="349" on="0"/>
        <pt x="849" y="389" on="1"/>
        <pt x="848" y="568" on="1"/>
        <pt x="848" y="624" on="0"/>
        <pt x="830" y="644" on="1"/>
        <pt x="797" y="681" on="0"/>
        <pt x="708" y="681" on="1"/>
        <pt x="550" y="681" on="1"/>
        <pt x="426" y="681" on="0"/>
        <pt x="414" y="612" on="1"/>
        <pt x="411" y="591" on="0"/>
        <pt x="411" y="559" on="1"/>
        <pt x="411" y="497" on="1"/>
        <pt x="410" y="408" on="1"/>
        <pt x="410" y="380" on="1"/>
        <pt x="410" y="325" on="0"/>
        <pt x="428" y="164" on="0"/>
        <pt x="441" y="106" on="0"/>
        <pt x="450" y="83" on="1"/>
        <pt x="466" y="45" on="0"/>
        <pt x="500" y="0" on="1"/>
        <pt x="125" y="0" on="1"/>
        <pt x="157" y="76" on="0"/>
        <pt x="168" y="178" on="0"/>
        <pt x="173" y="253" on="1"/>
        <pt x="185" y="433" on="0"/>
        <pt x="185" y="940" on="0"/>
        <pt x="179" y="1122" on="1"/>
        <pt x="100" y="1117" on="0"/>
        <pt x="47" y="1110" on="1"/>
        <pt x="47" y="1280" on="1"/>
        <pt x="97" y="1273" on="0"/>
      </contour>
      <contour>
        <pt x="835" y="1129" on="1"/>
        <pt x="784" y="1130" on="0"/>
        <pt x="734" y="1130" on="1"/>
        <pt x="634" y="1130" on="0"/>
        <pt x="479" y="1130" on="0"/>
        <pt x="422" y="1129" on="1"/>
        <pt x="417" y="1034" on="0"/>
        <pt x="417" y="902" on="0"/>
        <pt x="434" y="851" on="0"/>
        <pt x="454" y="838" on="1"/>
        <pt x="481" y="821" on="0"/>
        <pt x="581" y="821" on="1"/>
        <pt x="676" y="821" on="1"/>
        <pt x="778" y="821" on="0"/>
        <pt x="802" y="836" on="1"/>
        <pt x="842" y="862" on="0"/>
        <pt x="842" y="1029" on="0"/>
      </contour>
    </TTGlyph>
    <TTGlyph name="Hcircumflex" xMin="125" yMin="0" xMax="1133" yMax="1981">
      <contour>
        <pt x="849" y="595" on="1"/>
        <pt x="848" y="869" on="1"/>
        <pt x="848" y="925" on="0"/>
        <pt x="830" y="945" on="1"/>
        <pt x="797" y="982" on="0"/>
        <pt x="708" y="982" on="1"/>
        <pt x="550" y="982" on="1"/>
        <pt x="426" y="982" on="0"/>
        <pt x="414" y="912" on="1"/>
        <pt x="411" y="892" on="0"/>
        <pt x="411" y="869" on="1"/>
        <pt x="410" y="569" on="1"/>
        <pt x="410" y="181" on="0"/>
        <pt x="450" y="83" on="1"/>
        <pt x="466" y="45" on="0"/>
        <pt x="500" y="0" on="1"/>
        <pt x="125" y="0" on="1"/>
        <pt x="157" y="76" on="0"/>
        <pt x="168" y="178" on="0"/>
        <pt x="174" y="253" on="1"/>
        <pt x="185" y="410" on="0"/>
        <pt x="185" y="814" on="0"/>
        <pt x="183" y="967" on="0"/>
        <pt x="182" y="1040" on="1"/>
        <pt x="175" y="1343" on="0"/>
        <pt x="151" y="1464" on="0"/>
        <pt x="143" y="1485" on="1"/>
        <pt x="125" y="1530" on="1"/>
        <pt x="500" y="1530" on="1"/>
        <pt x="428" y="1450" on="0"/>
        <pt x="420" y="1314" on="1"/>
        <pt x="417" y="1273" on="0"/>
        <pt x="417" y="1183" on="0"/>
        <pt x="434" y="1132" on="0"/>
        <pt x="454" y="1120" on="1"/>
        <pt x="481" y="1102" on="0"/>
        <pt x="581" y="1102" on="1"/>
        <pt x="676" y="1102" on="1"/>
        <pt x="778" y="1102" on="0"/>
        <pt x="802" y="1117" on="1"/>
        <pt x="842" y="1143" on="0"/>
        <pt x="842" y="1230" on="1"/>
        <pt x="842" y="1443" on="0"/>
        <pt x="758" y="1530" on="1"/>
        <pt x="1133" y="1530" on="1"/>
        <pt x="1103" y="1464" on="0"/>
        <pt x="1090" y="1352" on="0"/>
        <pt x="1084" y="1249" on="0"/>
        <pt x="1078" y="1113" on="0"/>
        <pt x="1076" y="1040" on="1"/>
        <pt x="1073" y="870" on="0"/>
        <pt x="1073" y="732" on="1"/>
        <pt x="1073" y="171" on="0"/>
        <pt x="1115" y="45" on="1"/>
        <pt x="1122" y="24" on="0"/>
        <pt x="1133" y="0" on="1"/>
        <pt x="758" y="0" on="1"/>
        <pt x="808" y="67" on="0"/>
        <pt x="830" y="164" on="0"/>
        <pt x="836" y="230" on="1"/>
        <pt x="849" y="357" on="0"/>
      </contour>
      <contour>
        <pt x="876" y="1681" on="1"/>
        <pt x="752" y="1736" on="0"/>
        <pt x="633" y="1836" on="1"/>
        <pt x="504" y="1731" on="0"/>
        <pt x="392" y="1681" on="1"/>
        <pt x="289" y="1681" on="1"/>
        <pt x="307" y="1698" on="0"/>
        <pt x="332" y="1726" on="1"/>
        <pt x="451" y="1868" on="0"/>
        <pt x="479" y="1903" on="1"/>
        <pt x="520" y="1957" on="1"/>
        <pt x="535" y="1976" on="0"/>
        <pt x="537" y="1981" on="1"/>
        <pt x="731" y="1981" on="1"/>
        <pt x="733" y="1976" on="0"/>
        <pt x="748" y="1957" on="1"/>
        <pt x="939" y="1719" on="0"/>
        <pt x="979" y="1681" on="1"/>
      </contour>
    </TTGlyph>
    <TTGlyph name="I" xMin="162" yMin="0" xMax="507" yMax="1530">
      <contour>
        <pt x="507" y="1530" on="1"/>
        <pt x="470" y="1437" on="0"/>
        <pt x="458" y="1250" on="0"/>
        <pt x="452" y="1116" on="0"/>
        <pt x="450" y="1044" on="1"/>
        <pt x="447" y="876" on="0"/>
        <pt x="447" y="738" on="1"/>
        <pt x="447" y="172" on="0"/>
        <pt x="489" y="44" on="1"/>
        <pt x="496" y="22" on="0"/>
        <pt x="507" y="0" on="1"/>
        <pt x="162" y="0" on="1"/>
        <pt x="193" y="68" on="0"/>
        <pt x="205" y="178" on="0"/>
        <pt x="210" y="254" on="1"/>
        <pt x="222" y="411" on="0"/>
        <pt x="222" y="821" on="0"/>
        <pt x="220" y="972" on="0"/>
        <pt x="218" y="1044" on="1"/>
        <pt x="211" y="1395" on="0"/>
        <pt x="176" y="1490" on="1"/>
        <pt x="162" y="1530" on="1"/>
      </contour>
    </TTGlyph>
    <TTGlyph name="IJ" xMin="167" yMin="-20" xMax="1462" yMax="1530">
      <contour>
        <pt x="512" y="1530" on="1"/>
        <pt x="475" y="1437" on="0"/>
        <pt x="463" y="1250" on="0"/>
        <pt x="457" y="1116" on="0"/>
        <pt x="455" y="1044" on="1"/>
        <pt x="452" y="876" on="0"/>
        <pt x="452" y="738" on="1"/>
        <pt x="452" y="172" on="0"/>
        <pt x="494" y="44" on="1"/>
        <pt x="501" y="22" on="0"/>
        <pt x="512" y="0" on="1"/>
        <pt x="167" y="0" on="1"/>
        <pt x="198" y="68" on="0"/>
        <pt x="210" y="178" on="0"/>
        <pt x="215" y="254" on="1"/>
        <pt x="227" y="411" on="0"/>
        <pt x="227" y="821" on="0"/>
        <pt x="225" y="972" on="0"/>
        <pt x="223" y="1044" on="1"/>
        <pt x="216" y="1395" on="0"/>
        <pt x="181" y="1490" on="1"/>
        <pt x="167" y="1530" on="1"/>
      </contour>
      <contour>
        <pt x="1406" y="808" on="1"/>
        <pt x="1407" y="430" on="1"/>
        <pt x="1407" y="249" on="0"/>
        <pt x="1316" y="124" on="1"/>
        <pt x="1209" y="-20" on="0"/>
        <pt x="1018" y="-20" on="1"/>
        <pt x="868" y="-20" on="0"/>
        <pt x="778" y="80" on="1"/>
        <pt x="696" y="171" on="0"/>
        <pt x="696" y="300" on="1"/>
        <pt x="741" y="404" on="0"/>
        <pt x="792" y="459" on="1"/>
        <pt x="876" y="550" on="0"/>
        <pt x="932" y="560" on="1"/>
        <pt x="916" y="469" on="0"/>
        <pt x="916" y="317" on="0"/>
        <pt x="929" y="212" on="0"/>
        <pt x="944" y="171" on="1"/>
        <pt x="977" y="80" on="0"/>
        <pt x="1048" y="80" on="1"/>
        <pt x="1110" y="80" on="0"/>
        <pt x="1142" y="160" on="1"/>
        <pt x="1169" y="226" on="0"/>
        <pt x="1169" y="337" on="1"/>
        <pt x="1169" y="577" on="1"/>
        <pt x="1169" y="1011" on="0"/>
        <pt x="1163" y="1308" on="1"/>
        <pt x="1161" y="1387" on="0"/>
        <pt x="1118" y="1490" on="0"/>
        <pt x="1067" y="1530" on="1"/>
        <pt x="1462" y="1530" on="1"/>
        <pt x="1432" y="1476" on="0"/>
        <pt x="1419" y="1352" on="0"/>
        <pt x="1414" y="1278" on="1"/>
        <pt x="1406" y="1137" on="0"/>
      </contour>
    </TTGlyph>
    <TTGlyph name="Iacute" xMin="162" yMin="0" xMax="741" yMax="1992">
      <contour>
        <pt x="507" y="1530" on="1"/>
        <pt x="470" y="1437" on="0"/>
        <pt x="458" y="1250" on="0"/>
        <pt x="452" y="1116" on="0"/>
        <pt x="450" y="1044" on="1"/>
        <pt x="447" y="876" on="0"/>
        <pt x="447" y="738" on="1"/>
        <pt x="447" y="172" on="0"/>
        <pt x="489" y="44" on="1"/>
        <pt x="496" y="22" on="0"/>
        <pt x="507" y="0" on="1"/>
        <pt x="162" y="0" on="1"/>
        <pt x="193" y="68" on="0"/>
        <pt x="205" y="178" on="0"/>
        <pt x="210" y="254" on="1"/>
        <pt x="222" y="411" on="0"/>
        <pt x="222" y="821" on="0"/>
        <pt x="220" y="972" on="0"/>
        <pt x="218" y="1044" on="1"/>
        <pt x="211" y="1395" on="0"/>
        <pt x="176" y="1490" on="1"/>
        <pt x="162" y="1530" on="1"/>
      </contour>
      <contour>
        <pt x="741" y="1992" on="1"/>
        <pt x="644" y="1848" on="0"/>
        <pt x="472" y="1734" on="1"/>
        <pt x="429" y="1706" on="0"/>
        <pt x="402" y="1692" on="1"/>
        <pt x="254" y="1692" on="1"/>
        <pt x="271" y="1708" on="0"/>
        <pt x="294" y="1736" on="1"/>
        <pt x="294" y="1736" on="0"/>
        <pt x="394" y="1860" on="1"/>
        <pt x="484" y="1976" on="0"/>
        <pt x="484" y="1992" on="1"/>
      </contour>
    </TTGlyph>
    <TTGlyph name="Ibreve" xMin="-7" yMin="0" xMax="659" yMax="1980">
      <contour>
        <pt x="507" y="1530" on="1"/>
        <pt x="470" y="1437" on="0"/>
        <pt x="458" y="1250" on="0"/>
        <pt x="452" y="1116" on="0"/>
        <pt x="450" y="1044" on="1"/>
        <pt x="447" y="876" on="0"/>
        <pt x="447" y="738" on="1"/>
        <pt x="447" y="172" on="0"/>
        <pt x="489" y="44" on="1"/>
        <pt x="496" y="22" on="0"/>
        <pt x="507" y="0" on="1"/>
        <pt x="162" y="0" on="1"/>
        <pt x="193" y="68" on="0"/>
        <pt x="205" y="178" on="0"/>
        <pt x="210" y="254" on="1"/>
        <pt x="222" y="411" on="0"/>
        <pt x="222" y="821" on="0"/>
        <pt x="220" y="972" on="0"/>
        <pt x="218" y="1044" on="1"/>
        <pt x="211" y="1395" on="0"/>
        <pt x="176" y="1490" on="1"/>
        <pt x="162" y="1530" on="1"/>
      </contour>
      <contour>
        <pt x="238" y="1790" on="1"/>
        <pt x="277" y="1775" on="0"/>
        <pt x="376" y="1775" on="0"/>
        <pt x="449" y="1806" on="0"/>
        <pt x="476" y="1834" on="1"/>
        <pt x="535" y="1895" on="0"/>
        <pt x="535" y="1980" on="1"/>
        <pt x="659" y="1980" on="1"/>
        <pt x="659" y="1858" on="0"/>
        <pt x="594" y="1752" on="1"/>
        <pt x="508" y="1610" on="0"/>
        <pt x="341" y="1610" on="1"/>
        <pt x="96" y="1610" on="0"/>
        <pt x="18" y="1832" on="1"/>
        <pt x="-7" y="1905" on="0"/>
        <pt x="-7" y="1980" on="1"/>
        <pt x="127" y="1980" on="1"/>
        <pt x="127" y="1834" on="0"/>
      </contour>
    </TTGlyph>
    <TTGlyph name="Icircumflex" xMin="-4" yMin="0" xMax="686" yMax="1981">
      <contour>
        <pt x="507" y="1530" on="1"/>
        <pt x="470" y="1437" on="0"/>
        <pt x="458" y="1250" on="0"/>
        <pt x="452" y="1116" on="0"/>
        <pt x="450" y="1044" on="1"/>
        <pt x="447" y="876" on="0"/>
        <pt x="447" y="738" on="1"/>
        <pt x="447" y="172" on="0"/>
        <pt x="489" y="44" on="1"/>
        <pt x="496" y="22" on="0"/>
        <pt x="507" y="0" on="1"/>
        <pt x="162" y="0" on="1"/>
        <pt x="193" y="68" on="0"/>
        <pt x="205" y="178" on="0"/>
        <pt x="210" y="254" on="1"/>
        <pt x="222" y="411" on="0"/>
        <pt x="222" y="821" on="0"/>
        <pt x="220" y="972" on="0"/>
        <pt x="218" y="1044" on="1"/>
        <pt x="211" y="1395" on="0"/>
        <pt x="176" y="1490" on="1"/>
        <pt x="162" y="1530" on="1"/>
      </contour>
      <contour>
        <pt x="583" y="1681" on="1"/>
        <pt x="459" y="1736" on="0"/>
        <pt x="340" y="1836" on="1"/>
        <pt x="211" y="1731" on="0"/>
        <pt x="99" y="1681" on="1"/>
        <pt x="-4" y="1681" on="1"/>
        <pt x="14" y="1698" on="0"/>
        <pt x="39" y="1726" on="1"/>
        <pt x="158" y="1868" on="0"/>
        <pt x="186" y="1903" on="1"/>
        <pt x="227" y="1957" on="1"/>
        <pt x="242" y="1976" on="0"/>
        <pt x="244" y="1981" on="1"/>
        <pt x="438" y="1981" on="1"/>
        <pt x="440" y="1976" on="0"/>
        <pt x="455" y="1957" on="1"/>
        <pt x="646" y="1719" on="0"/>
        <pt x="686" y="1681" on="1"/>
      </contour>
    </TTGlyph>
    <TTGlyph name="Idieresis" xMin="2" yMin="0" xMax="680" yMax="1960">
      <contour>
        <pt x="507" y="1530" on="1"/>
        <pt x="470" y="1437" on="0"/>
        <pt x="458" y="1250" on="0"/>
        <pt x="452" y="1116" on="0"/>
        <pt x="450" y="1044" on="1"/>
        <pt x="447" y="876" on="0"/>
        <pt x="447" y="738" on="1"/>
        <pt x="447" y="172" on="0"/>
        <pt x="489" y="44" on="1"/>
        <pt x="496" y="22" on="0"/>
        <pt x="507" y="0" on="1"/>
        <pt x="162" y="0" on="1"/>
        <pt x="193" y="68" on="0"/>
        <pt x="205" y="178" on="0"/>
        <pt x="210" y="254" on="1"/>
        <pt x="222" y="411" on="0"/>
        <pt x="222" y="821" on="0"/>
        <pt x="220" y="972" on="0"/>
        <pt x="218" y="1044" on="1"/>
        <pt x="211" y="1395" on="0"/>
        <pt x="176" y="1490" on="1"/>
        <pt x="162" y="1530" on="1"/>
      </contour>
      <contour>
        <pt x="215" y="1696" on="0"/>
        <pt x="165" y="1658" on="0"/>
        <pt x="103" y="1658" on="0"/>
        <pt x="54" y="1696" on="0"/>
        <pt x="37" y="1724" on="1"/>
        <pt x="2" y="1782" on="0"/>
        <pt x="2" y="1869" on="0"/>
        <pt x="16" y="1909" on="0"/>
        <pt x="32" y="1925" on="1"/>
        <pt x="67" y="1960" on="0"/>
        <pt x="172" y="1960" on="0"/>
        <pt x="222" y="1941" on="0"/>
        <pt x="238" y="1925" on="1"/>
        <pt x="268" y="1895" on="0"/>
        <pt x="268" y="1818" on="0"/>
        <pt x="249" y="1752" on="0"/>
      </contour>
      <contour>
        <pt x="627" y="1696" on="0"/>
        <pt x="577" y="1658" on="0"/>
        <pt x="515" y="1658" on="0"/>
        <pt x="466" y="1696" on="0"/>
        <pt x="449" y="1724" on="1"/>
        <pt x="414" y="1782" on="0"/>
        <pt x="414" y="1869" on="0"/>
        <pt x="428" y="1909" on="0"/>
        <pt x="444" y="1925" on="1"/>
        <pt x="477" y="1960" on="0"/>
        <pt x="583" y="1960" on="0"/>
        <pt x="634" y="1941" on="0"/>
        <pt x="650" y="1925" on="1"/>
        <pt x="680" y="1895" on="0"/>
        <pt x="680" y="1818" on="0"/>
        <pt x="661" y="1752" on="0"/>
      </contour>
    </TTGlyph>
    <TTGlyph name="Idotaccent" xMin="162" yMin="0" xMax="507" yMax="1964">
      <contour>
        <pt x="507" y="1530" on="1"/>
        <pt x="470" y="1437" on="0"/>
        <pt x="458" y="1250" on="0"/>
        <pt x="452" y="1116" on="0"/>
        <pt x="450" y="1044" on="1"/>
        <pt x="447" y="876" on="0"/>
        <pt x="447" y="738" on="1"/>
        <pt x="447" y="172" on="0"/>
        <pt x="489" y="44" on="1"/>
        <pt x="496" y="22" on="0"/>
        <pt x="507" y="0" on="1"/>
        <pt x="162" y="0" on="1"/>
        <pt x="193" y="68" on="0"/>
        <pt x="205" y="178" on="0"/>
        <pt x="210" y="254" on="1"/>
        <pt x="222" y="411" on="0"/>
        <pt x="222" y="821" on="0"/>
        <pt x="220" y="972" on="0"/>
        <pt x="218" y="1044" on="1"/>
        <pt x="211" y="1395" on="0"/>
        <pt x="176" y="1490" on="1"/>
        <pt x="162" y="1530" on="1"/>
      </contour>
      <contour>
        <pt x="420" y="1684" on="0"/>
        <pt x="368" y="1644" on="0"/>
        <pt x="302" y="1644" on="0"/>
        <pt x="249" y="1684" on="0"/>
        <pt x="231" y="1714" on="1"/>
        <pt x="195" y="1775" on="0"/>
        <pt x="195" y="1843" on="1"/>
        <pt x="195" y="1926" on="0"/>
        <pt x="270" y="1954" on="1"/>
        <pt x="297" y="1964" on="0"/>
        <pt x="336" y="1964" on="1"/>
        <pt x="443" y="1964" on="0"/>
        <pt x="469" y="1888" on="1"/>
        <pt x="477" y="1867" on="0"/>
        <pt x="477" y="1814" on="0"/>
        <pt x="457" y="1744" on="0"/>
      </contour>
    </TTGlyph>
    <TTGlyph name="Igrave" xMin="-12" yMin="0" xMax="507" yMax="1993">
      <contour>
        <pt x="507" y="1530" on="1"/>
        <pt x="470" y="1437" on="0"/>
        <pt x="458" y="1250" on="0"/>
        <pt x="452" y="1116" on="0"/>
        <pt x="450" y="1044" on="1"/>
        <pt x="447" y="876" on="0"/>
        <pt x="447" y="738" on="1"/>
        <pt x="447" y="172" on="0"/>
        <pt x="489" y="44" on="1"/>
        <pt x="496" y="22" on="0"/>
        <pt x="507" y="0" on="1"/>
        <pt x="162" y="0" on="1"/>
        <pt x="193" y="68" on="0"/>
        <pt x="205" y="178" on="0"/>
        <pt x="210" y="254" on="1"/>
        <pt x="222" y="411" on="0"/>
        <pt x="222" y="821" on="0"/>
        <pt x="220" y="972" on="0"/>
        <pt x="218" y="1044" on="1"/>
        <pt x="211" y="1395" on="0"/>
        <pt x="176" y="1490" on="1"/>
        <pt x="162" y="1530" on="1"/>
      </contour>
      <contour>
        <pt x="245" y="1993" on="1"/>
        <pt x="245" y="1977" on="0"/>
        <pt x="303" y="1902" on="1"/>
        <pt x="441" y="1725" on="0"/>
        <pt x="475" y="1693" on="1"/>
        <pt x="327" y="1693" on="1"/>
        <pt x="201" y="1758" on="0"/>
        <pt x="73" y="1890" on="1"/>
        <pt x="25" y="1938" on="0"/>
        <pt x="-12" y="1993" on="1"/>
      </contour>
    </TTGlyph>
    <TTGlyph name="Imacron" xMin="-5" yMin="0" xMax="687" yMax="1913">
      <contour>
        <pt x="507" y="1530" on="1"/>
        <pt x="470" y="1437" on="0"/>
        <pt x="458" y="1250" on="0"/>
        <pt x="452" y="1116" on="0"/>
        <pt x="450" y="1044" on="1"/>
        <pt x="447" y="876" on="0"/>
        <pt x="447" y="738" on="1"/>
        <pt x="447" y="172" on="0"/>
        <pt x="489" y="44" on="1"/>
        <pt x="496" y="22" on="0"/>
        <pt x="507" y="0" on="1"/>
        <pt x="162" y="0" on="1"/>
        <pt x="193" y="68" on="0"/>
        <pt x="205" y="178" on="0"/>
        <pt x="210" y="254" on="1"/>
        <pt x="222" y="411" on="0"/>
        <pt x="222" y="821" on="0"/>
        <pt x="220" y="972" on="0"/>
        <pt x="218" y="1044" on="1"/>
        <pt x="211" y="1395" on="0"/>
        <pt x="176" y="1490" on="1"/>
        <pt x="162" y="1530" on="1"/>
      </contour>
      <contour>
        <pt x="-5" y="1913" on="1"/>
        <pt x="89" y="1893" on="0"/>
        <pt x="596" y="1893" on="0"/>
        <pt x="687" y="1913" on="1"/>
        <pt x="687" y="1723" on="1"/>
        <pt x="596" y="1743" on="0"/>
        <pt x="89" y="1743" on="0"/>
        <pt x="-5" y="1723" on="1"/>
      </contour>
    </TTGlyph>
    <TTGlyph name="Iogonek" xMin="46" yMin="-482" xMax="507" yMax="1530">
      <contour>
        <pt x="395" y="-361" on="1"/>
        <pt x="434" y="-361" on="0"/>
        <pt x="473" y="-346" on="1"/>
        <pt x="482" y="-392" on="0"/>
        <pt x="467" y="-430" on="1"/>
        <pt x="423" y="-465" on="0"/>
        <pt x="330" y="-478" on="1"/>
        <pt x="302" y="-482" on="0"/>
        <pt x="234" y="-482" on="0"/>
        <pt x="151" y="-457" on="0"/>
        <pt x="118" y="-432" on="1"/>
        <pt x="46" y="-376" on="0"/>
        <pt x="46" y="-284" on="1"/>
        <pt x="46" y="-228" on="0"/>
        <pt x="110" y="-128" on="0"/>
        <pt x="133" y="-98" on="1"/>
        <pt x="177" y="-38" on="1"/>
        <pt x="198" y="9" on="0"/>
        <pt x="205" y="178" on="0"/>
        <pt x="210" y="254" on="1"/>
        <pt x="222" y="411" on="0"/>
        <pt x="222" y="821" on="0"/>
        <pt x="220" y="972" on="0"/>
        <pt x="218" y="1044" on="1"/>
        <pt x="211" y="1395" on="0"/>
        <pt x="176" y="1490" on="1"/>
        <pt x="162" y="1530" on="1"/>
        <pt x="507" y="1530" on="1"/>
        <pt x="470" y="1437" on="0"/>
        <pt x="458" y="1250" on="0"/>
        <pt x="452" y="1116" on="0"/>
        <pt x="450" y="1044" on="1"/>
        <pt x="447" y="876" on="0"/>
        <pt x="447" y="738" on="1"/>
        <pt x="447" y="172" on="0"/>
        <pt x="489" y="44" on="1"/>
        <pt x="496" y="22" on="0"/>
        <pt x="507" y="0" on="1"/>
        <pt x="363" y="0" on="1"/>
        <pt x="322" y="-50" on="1"/>
        <pt x="241" y="-145" on="0"/>
        <pt x="241" y="-212" on="1"/>
        <pt x="241" y="-361" on="0"/>
      </contour>
    </TTGlyph>
    <TTGlyph name="Itilde" xMin="-32" yMin="0" xMax="717" yMax="1995">
      <contour>
        <pt x="507" y="1530" on="1"/>
        <pt x="470" y="1437" on="0"/>
        <pt x="458" y="1250" on="0"/>
        <pt x="452" y="1116" on="0"/>
        <pt x="450" y="1044" on="1"/>
        <pt x="447" y="876" on="0"/>
        <pt x="447" y="738" on="1"/>
        <pt x="447" y="172" on="0"/>
        <pt x="489" y="44" on="1"/>
        <pt x="496" y="22" on="0"/>
        <pt x="507" y="0" on="1"/>
        <pt x="162" y="0" on="1"/>
        <pt x="193" y="68" on="0"/>
        <pt x="205" y="178" on="0"/>
        <pt x="210" y="254" on="1"/>
        <pt x="222" y="411" on="0"/>
        <pt x="222" y="821" on="0"/>
        <pt x="220" y="972" on="0"/>
        <pt x="218" y="1044" on="1"/>
        <pt x="211" y="1395" on="0"/>
        <pt x="176" y="1490" on="1"/>
        <pt x="162" y="1530" on="1"/>
      </contour>
      <contour>
        <pt x="-32" y="1775" on="1"/>
        <pt x="18" y="1881" on="0"/>
        <pt x="160" y="1995" on="0"/>
        <pt x="277" y="1995" on="0"/>
        <pt x="339" y="1976" on="0"/>
        <pt x="386" y="1947" on="0"/>
        <pt x="422" y="1913" on="0"/>
        <pt x="439" y="1898" on="1"/>
        <pt x="478" y="1865" on="0"/>
        <pt x="541" y="1865" on="0"/>
        <pt x="584" y="1884" on="0"/>
        <pt x="618" y="1914" on="0"/>
        <pt x="632" y="1932" on="1"/>
        <pt x="657" y="1965" on="1"/>
        <pt x="717" y="1905" on="1"/>
        <pt x="668" y="1808" on="0"/>
        <pt x="532" y="1705" on="0"/>
        <pt x="418" y="1705" on="0"/>
        <pt x="356" y="1724" on="0"/>
        <pt x="309" y="1753" on="0"/>
        <pt x="273" y="1787" on="0"/>
        <pt x="256" y="1802" on="1"/>
        <pt x="217" y="1835" on="0"/>
        <pt x="154" y="1835" on="0"/>
        <pt x="111" y="1816" on="0"/>
        <pt x="77" y="1786" on="0"/>
        <pt x="64" y="1768" on="1"/>
        <pt x="38" y="1735" on="1"/>
      </contour>
    </TTGlyph>
    <TTGlyph name="J" xMin="26" yMin="-20" xMax="792" yMax="1530">
      <contour>
        <pt x="736" y="808" on="1"/>
        <pt x="737" y="430" on="1"/>
        <pt x="737" y="249" on="0"/>
        <pt x="646" y="124" on="1"/>
        <pt x="539" y="-20" on="0"/>
        <pt x="348" y="-20" on="1"/>
        <pt x="198" y="-20" on="0"/>
        <pt x="108" y="80" on="1"/>
        <pt x="26" y="171" on="0"/>
        <pt x="26" y="300" on="1"/>
        <pt x="71" y="404" on="0"/>
        <pt x="122" y="459" on="1"/>
        <pt x="206" y="550" on="0"/>
        <pt x="262" y="560" on="1"/>
        <pt x="246" y="469" on="0"/>
        <pt x="246" y="317" on="0"/>
        <pt x="259" y="212" on="0"/>
        <pt x="274" y="171" on="1"/>
        <pt x="307" y="80" on="0"/>
        <pt x="378" y="80" on="1"/>
        <pt x="440" y="80" on="0"/>
        <pt x="472" y="160" on="1"/>
        <pt x="499" y="226" on="0"/>
        <pt x="499" y="337" on="1"/>
        <pt x="499" y="577" on="1"/>
        <pt x="499" y="1011" on="0"/>
        <pt x="493" y="1308" on="1"/>
        <pt x="491" y="1387" on="0"/>
        <pt x="448" y="1490" on="0"/>
        <pt x="397" y="1530" on="1"/>
        <pt x="792" y="1530" on="1"/>
        <pt x="762" y="1476" on="0"/>
        <pt x="749" y="1352" on="0"/>
        <pt x="744" y="1278" on="1"/>
        <pt x="736" y="1137" on="0"/>
      </contour>
    </TTGlyph>
    <TTGlyph name="Jcircumflex" xMin="26" yMin="-20" xMax="960" yMax="1981">
      <contour>
        <pt x="736" y="808" on="1"/>
        <pt x="737" y="430" on="1"/>
        <pt x="737" y="249" on="0"/>
        <pt x="646" y="124" on="1"/>
        <pt x="539" y="-20" on="0"/>
        <pt x="348" y="-20" on="1"/>
        <pt x="198" y="-20" on="0"/>
        <pt x="108" y="80" on="1"/>
        <pt x="26" y="171" on="0"/>
        <pt x="26" y="300" on="1"/>
        <pt x="71" y="404" on="0"/>
        <pt x="122" y="459" on="1"/>
        <pt x="206" y="550" on="0"/>
        <pt x="262" y="560" on="1"/>
        <pt x="246" y="469" on="0"/>
        <pt x="246" y="317" on="0"/>
        <pt x="259" y="212" on="0"/>
        <pt x="274" y="171" on="1"/>
        <pt x="307" y="80" on="0"/>
        <pt x="378" y="80" on="1"/>
        <pt x="440" y="80" on="0"/>
        <pt x="472" y="160" on="1"/>
        <pt x="499" y="226" on="0"/>
        <pt x="499" y="337" on="1"/>
        <pt x="499" y="577" on="1"/>
        <pt x="499" y="1011" on="0"/>
        <pt x="493" y="1308" on="1"/>
        <pt x="491" y="1387" on="0"/>
        <pt x="448" y="1490" on="0"/>
        <pt x="397" y="1530" on="1"/>
        <pt x="792" y="1530" on="1"/>
        <pt x="762" y="1476" on="0"/>
        <pt x="749" y="1352" on="0"/>
        <pt x="744" y="1278" on="1"/>
        <pt x="736" y="1137" on="0"/>
      </contour>
      <contour>
        <pt x="857" y="1681" on="1"/>
        <pt x="733" y="1736" on="0"/>
        <pt x="614" y="1836" on="1"/>
        <pt x="485" y="1731" on="0"/>
        <pt x="373" y="1681" on="1"/>
        <pt x="270" y="1681" on="1"/>
        <pt x="288" y="1698" on="0"/>
        <pt x="313" y="1726" on="1"/>
        <pt x="432" y="1868" on="0"/>
        <pt x="460" y="1903" on="1"/>
        <pt x="501" y="1957" on="1"/>
        <pt x="516" y="1976" on="0"/>
        <pt x="518" y="1981" on="1"/>
        <pt x="712" y="1981" on="1"/>
        <pt x="714" y="1976" on="0"/>
        <pt x="729" y="1957" on="1"/>
        <pt x="920" y="1719" on="0"/>
        <pt x="960" y="1681" on="1"/>
      </contour>
    </TTGlyph>
    <TTGlyph name="K" xMin="113" yMin="0" xMax="1232" yMax="1531">
      <contour>
        <pt x="835" y="1351" on="0"/>
        <pt x="856" y="1433" on="0"/>
        <pt x="856" y="1510" on="0"/>
        <pt x="841" y="1531" on="1"/>
        <pt x="1150" y="1531" on="1"/>
        <pt x="1127" y="1498" on="0"/>
        <pt x="1111" y="1458" on="1"/>
        <pt x="1074" y="1367" on="1"/>
        <pt x="983" y="1147" on="0"/>
        <pt x="809" y="1036" on="1"/>
        <pt x="820" y="702" on="0"/>
        <pt x="952" y="406" on="1"/>
        <pt x="1071" y="135" on="0"/>
        <pt x="1232" y="0" on="1"/>
        <pt x="887" y="0" on="1"/>
        <pt x="748" y="148" on="0"/>
        <pt x="690" y="538" on="1"/>
        <pt x="668" y="681" on="0"/>
        <pt x="653" y="874" on="1"/>
        <pt x="649" y="925" on="0"/>
        <pt x="596" y="980" on="0"/>
        <pt x="500" y="980" on="0"/>
        <pt x="462" y="962" on="0"/>
        <pt x="452" y="944" on="1"/>
        <pt x="435" y="913" on="0"/>
        <pt x="435" y="800" on="1"/>
        <pt x="435" y="149" on="0"/>
        <pt x="467" y="42" on="1"/>
        <pt x="473" y="22" on="0"/>
        <pt x="482" y="0" on="1"/>
        <pt x="147" y="0" on="1"/>
        <pt x="179" y="76" on="0"/>
        <pt x="190" y="178" on="0"/>
        <pt x="194" y="236" on="1"/>
        <pt x="202" y="354" on="0"/>
        <pt x="202" y="553" on="1"/>
        <pt x="202" y="792" on="0"/>
        <pt x="194" y="991" on="1"/>
        <pt x="183" y="1266" on="1"/>
        <pt x="177" y="1417" on="0"/>
        <pt x="145" y="1479" on="1"/>
        <pt x="132" y="1504" on="0"/>
        <pt x="113" y="1530" on="1"/>
        <pt x="505" y="1530" on="1"/>
        <pt x="465" y="1478" on="0"/>
        <pt x="453" y="1433" on="1"/>
        <pt x="435" y="1360" on="0"/>
        <pt x="435" y="1215" on="0"/>
        <pt x="441" y="1151" on="0"/>
        <pt x="452" y="1130" on="1"/>
        <pt x="475" y="1090" on="0"/>
        <pt x="593" y="1089" on="0"/>
        <pt x="672" y="1126" on="0"/>
        <pt x="740" y="1188" on="0"/>
        <pt x="796" y="1267" on="0"/>
      </contour>
    </TTGlyph>
    <TTGlyph name="Kcommaaccent" xMin="113" yMin="-499" xMax="1232" yMax="1531">
      <contour>
        <pt x="835" y="1351" on="0"/>
        <pt x="856" y="1433" on="0"/>
        <pt x="856" y="1510" on="0"/>
        <pt x="841" y="1531" on="1"/>
        <pt x="1150" y="1531" on="1"/>
        <pt x="1127" y="1498" on="0"/>
        <pt x="1111" y="1458" on="1"/>
        <pt x="1074" y="1367" on="1"/>
        <pt x="983" y="1147" on="0"/>
        <pt x="809" y="1036" on="1"/>
        <pt x="820" y="702" on="0"/>
        <pt x="952" y="406" on="1"/>
        <pt x="1071" y="135" on="0"/>
        <pt x="1232" y="0" on="1"/>
        <pt x="887" y="0" on="1"/>
        <pt x="748" y="148" on="0"/>
        <pt x="690" y="538" on="1"/>
        <pt x="668" y="681" on="0"/>
        <pt x="653" y="874" on="1"/>
        <pt x="649" y="925" on="0"/>
        <pt x="596" y="980" on="0"/>
        <pt x="500" y="980" on="0"/>
        <pt x="462" y="962" on="0"/>
        <pt x="452" y="944" on="1"/>
        <pt x="435" y="913" on="0"/>
        <pt x="435" y="800" on="1"/>
        <pt x="435" y="149" on="0"/>
        <pt x="467" y="42" on="1"/>
        <pt x="473" y="22" on="0"/>
        <pt x="482" y="0" on="1"/>
        <pt x="147" y="0" on="1"/>
        <pt x="179" y="76" on="0"/>
        <pt x="190" y="178" on="0"/>
        <pt x="194" y="236" on="1"/>
        <pt x="202" y="354" on="0"/>
        <pt x="202" y="553" on="1"/>
        <pt x="202" y="792" on="0"/>
        <pt x="194" y="991" on="1"/>
        <pt x="183" y="1266" on="1"/>
        <pt x="177" y="1417" on="0"/>
        <pt x="145" y="1479" on="1"/>
        <pt x="132" y="1504" on="0"/>
        <pt x="113" y="1530" on="1"/>
        <pt x="505" y="1530" on="1"/>
        <pt x="465" y="1478" on="0"/>
        <pt x="453" y="1433" on="1"/>
        <pt x="435" y="1360" on="0"/>
        <pt x="435" y="1215" on="0"/>
        <pt x="441" y="1151" on="0"/>
        <pt x="452" y="1130" on="1"/>
        <pt x="475" y="1090" on="0"/>
        <pt x="593" y="1089" on="0"/>
        <pt x="672" y="1126" on="0"/>
        <pt x="740" y="1188" on="0"/>
        <pt x="796" y="1267" on="0"/>
      </contour>
      <contour>
        <pt x="768" y="-84" on="1"/>
        <pt x="792" y="-128" on="0"/>
        <pt x="792" y="-155" on="1"/>
        <pt x="792" y="-246" on="0"/>
        <pt x="717" y="-358" on="0"/>
        <pt x="676" y="-396" on="1"/>
        <pt x="589" y="-479" on="0"/>
        <pt x="515" y="-499" on="1"/>
        <pt x="482" y="-487" on="0"/>
        <pt x="453" y="-458" on="1"/>
        <pt x="554" y="-374" on="0"/>
        <pt x="554" y="-273" on="1"/>
        <pt x="554" y="-194" on="0"/>
        <pt x="502" y="-116" on="1"/>
        <pt x="487" y="-95" on="0"/>
        <pt x="472" y="-84" on="1"/>
      </contour>
    </TTGlyph>
    <TTGlyph name="L" xMin="30" yMin="0" xMax="938" yMax="1530">
      <contour>
        <pt x="911" y="370" on="1"/>
        <pt x="938" y="331" on="0"/>
        <pt x="938" y="221" on="0"/>
        <pt x="923" y="141" on="0"/>
        <pt x="910" y="105" on="1"/>
        <pt x="880" y="26" on="0"/>
        <pt x="834" y="0" on="1"/>
        <pt x="30" y="0" on="1"/>
        <pt x="109" y="49" on="0"/>
        <pt x="133" y="85" on="1"/>
        <pt x="179" y="153" on="0"/>
        <pt x="179" y="261" on="1"/>
        <pt x="178" y="527" on="0"/>
        <pt x="178" y="742" on="1"/>
        <pt x="178" y="1266" on="1"/>
        <pt x="178" y="1411" on="0"/>
        <pt x="130" y="1479" on="1"/>
        <pt x="113" y="1504" on="0"/>
        <pt x="88" y="1530" on="1"/>
        <pt x="499" y="1530" on="1"/>
        <pt x="440" y="1445" on="0"/>
        <pt x="432" y="1355" on="1"/>
        <pt x="430" y="1325" on="0"/>
        <pt x="430" y="1289" on="1"/>
        <pt x="430" y="373" on="1"/>
        <pt x="430" y="186" on="0"/>
        <pt x="470" y="113" on="0"/>
        <pt x="526" y="100" on="0"/>
        <pt x="640" y="100" on="0"/>
        <pt x="742" y="140" on="0"/>
        <pt x="782" y="176" on="1"/>
        <pt x="850" y="238" on="0"/>
      </contour>
    </TTGlyph>
    <TTGlyph name="Lacute" xMin="30" yMin="0" xMax="938" yMax="1992">
      <contour>
        <pt x="911" y="370" on="1"/>
        <pt x="938" y="331" on="0"/>
        <pt x="938" y="221" on="0"/>
        <pt x="923" y="141" on="0"/>
        <pt x="910" y="105" on="1"/>
        <pt x="880" y="26" on="0"/>
        <pt x="834" y="0" on="1"/>
        <pt x="30" y="0" on="1"/>
        <pt x="109" y="49" on="0"/>
        <pt x="133" y="85" on="1"/>
        <pt x="179" y="153" on="0"/>
        <pt x="179" y="261" on="1"/>
        <pt x="178" y="527" on="0"/>
        <pt x="178" y="742" on="1"/>
        <pt x="178" y="1266" on="1"/>
        <pt x="178" y="1411" on="0"/>
        <pt x="130" y="1479" on="1"/>
        <pt x="113" y="1504" on="0"/>
        <pt x="88" y="1530" on="1"/>
        <pt x="499" y="1530" on="1"/>
        <pt x="440" y="1445" on="0"/>
        <pt x="432" y="1355" on="1"/>
        <pt x="430" y="1325" on="0"/>
        <pt x="430" y="1289" on="1"/>
        <pt x="430" y="373" on="1"/>
        <pt x="430" y="186" on="0"/>
        <pt x="470" y="113" on="0"/>
        <pt x="526" y="100" on="0"/>
        <pt x="640" y="100" on="0"/>
        <pt x="742" y="140" on="0"/>
        <pt x="782" y="176" on="1"/>
        <pt x="850" y="238" on="0"/>
      </contour>
      <contour>
        <pt x="711" y="1992" on="1"/>
        <pt x="614" y="1848" on="0"/>
        <pt x="442" y="1734" on="1"/>
        <pt x="399" y="1706" on="0"/>
        <pt x="372" y="1692" on="1"/>
        <pt x="224" y="1692" on="1"/>
        <pt x="241" y="1708" on="0"/>
        <pt x="264" y="1736" on="1"/>
        <pt x="264" y="1736" on="0"/>
        <pt x="364" y="1860" on="1"/>
        <pt x="454" y="1976" on="0"/>
        <pt x="454" y="1992" on="1"/>
      </contour>
    </TTGlyph>
    <TTGlyph name="Lcaron" xMin="30" yMin="0" xMax="938" yMax="1533">
      <contour>
        <pt x="911" y="370" on="1"/>
        <pt x="938" y="331" on="0"/>
        <pt x="938" y="221" on="0"/>
        <pt x="923" y="141" on="0"/>
        <pt x="910" y="105" on="1"/>
        <pt x="880" y="26" on="0"/>
        <pt x="834" y="0" on="1"/>
        <pt x="30" y="0" on="1"/>
        <pt x="109" y="49" on="0"/>
        <pt x="133" y="85" on="1"/>
        <pt x="179" y="153" on="0"/>
        <pt x="179" y="261" on="1"/>
        <pt x="178" y="527" on="0"/>
        <pt x="178" y="742" on="1"/>
        <pt x="178" y="1266" on="1"/>
        <pt x="178" y="1411" on="0"/>
        <pt x="130" y="1479" on="1"/>
        <pt x="113" y="1504" on="0"/>
        <pt x="88" y="1530" on="1"/>
        <pt x="499" y="1530" on="1"/>
        <pt x="440" y="1445" on="0"/>
        <pt x="432" y="1355" on="1"/>
        <pt x="430" y="1325" on="0"/>
        <pt x="430" y="1289" on="1"/>
        <pt x="430" y="373" on="1"/>
        <pt x="430" y="186" on="0"/>
        <pt x="470" y="113" on="0"/>
        <pt x="526" y="100" on="0"/>
        <pt x="640" y="100" on="0"/>
        <pt x="742" y="140" on="0"/>
        <pt x="782" y="176" on="1"/>
        <pt x="850" y="238" on="0"/>
      </contour>
      <contour>
        <pt x="889" y="1450" on="0"/>
        <pt x="882" y="1389" on="0"/>
        <pt x="872" y="1276" on="0"/>
        <pt x="828" y="1144" on="0"/>
        <pt x="799" y="1091" on="1"/>
        <pt x="742" y="986" on="0"/>
        <pt x="675" y="947" on="1"/>
        <pt x="665" y="952" on="0"/>
        <pt x="631" y="978" on="0"/>
        <pt x="614" y="989" on="1"/>
        <pt x="675" y="1077" on="0"/>
        <pt x="679" y="1228" on="1"/>
        <pt x="680" y="1267" on="0"/>
        <pt x="680" y="1336" on="0"/>
        <pt x="669" y="1408" on="0"/>
        <pt x="659" y="1439" on="1"/>
        <pt x="639" y="1505" on="0"/>
        <pt x="605" y="1533" on="1"/>
        <pt x="882" y="1533" on="1"/>
        <pt x="889" y="1506" on="0"/>
      </contour>
    </TTGlyph>
    <TTGlyph name="Lcommaaccent" xMin="30" yMin="-499" xMax="938" yMax="1530">
      <contour>
        <pt x="911" y="370" on="1"/>
        <pt x="938" y="331" on="0"/>
        <pt x="938" y="221" on="0"/>
        <pt x="923" y="141" on="0"/>
        <pt x="910" y="105" on="1"/>
        <pt x="880" y="26" on="0"/>
        <pt x="834" y="0" on="1"/>
        <pt x="30" y="0" on="1"/>
        <pt x="109" y="49" on="0"/>
        <pt x="133" y="85" on="1"/>
        <pt x="179" y="153" on="0"/>
        <pt x="179" y="261" on="1"/>
        <pt x="178" y="527" on="0"/>
        <pt x="178" y="742" on="1"/>
        <pt x="178" y="1266" on="1"/>
        <pt x="178" y="1411" on="0"/>
        <pt x="130" y="1479" on="1"/>
        <pt x="113" y="1504" on="0"/>
        <pt x="88" y="1530" on="1"/>
        <pt x="499" y="1530" on="1"/>
        <pt x="440" y="1445" on="0"/>
        <pt x="432" y="1355" on="1"/>
        <pt x="430" y="1325" on="0"/>
        <pt x="430" y="1289" on="1"/>
        <pt x="430" y="373" on="1"/>
        <pt x="430" y="186" on="0"/>
        <pt x="470" y="113" on="0"/>
        <pt x="526" y="100" on="0"/>
        <pt x="640" y="100" on="0"/>
        <pt x="742" y="140" on="0"/>
        <pt x="782" y="176" on="1"/>
        <pt x="850" y="238" on="0"/>
      </contour>
      <contour>
        <pt x="628" y="-84" on="1"/>
        <pt x="652" y="-128" on="0"/>
        <pt x="652" y="-155" on="1"/>
        <pt x="652" y="-246" on="0"/>
        <pt x="577" y="-358" on="0"/>
        <pt x="536" y="-396" on="1"/>
        <pt x="449" y="-479" on="0"/>
        <pt x="375" y="-499" on="1"/>
        <pt x="342" y="-487" on="0"/>
        <pt x="313" y="-458" on="1"/>
        <pt x="414" y="-374" on="0"/>
        <pt x="414" y="-273" on="1"/>
        <pt x="414" y="-194" on="0"/>
        <pt x="362" y="-116" on="1"/>
        <pt x="347" y="-95" on="0"/>
        <pt x="332" y="-84" on="1"/>
      </contour>
    </TTGlyph>
    <TTGlyph name="Ldot" xMin="30" yMin="0" xMax="954" yMax="1530">
      <contour>
        <pt x="911" y="370" on="1"/>
        <pt x="938" y="331" on="0"/>
        <pt x="938" y="221" on="0"/>
        <pt x="923" y="141" on="0"/>
        <pt x="910" y="105" on="1"/>
        <pt x="880" y="26" on="0"/>
        <pt x="834" y="0" on="1"/>
        <pt x="30" y="0" on="1"/>
        <pt x="109" y="49" on="0"/>
        <pt x="133" y="85" on="1"/>
        <pt x="179" y="153" on="0"/>
        <pt x="179" y="261" on="1"/>
        <pt x="178" y="527" on="0"/>
        <pt x="178" y="742" on="1"/>
        <pt x="178" y="1266" on="1"/>
        <pt x="178" y="1411" on="0"/>
        <pt x="130" y="1479" on="1"/>
        <pt x="113" y="1504" on="0"/>
        <pt x="88" y="1530" on="1"/>
        <pt x="499" y="1530" on="1"/>
        <pt x="440" y="1445" on="0"/>
        <pt x="432" y="1355" on="1"/>
        <pt x="430" y="1325" on="0"/>
        <pt x="430" y="1289" on="1"/>
        <pt x="430" y="373" on="1"/>
        <pt x="430" y="186" on="0"/>
        <pt x="470" y="113" on="0"/>
        <pt x="526" y="100" on="0"/>
        <pt x="640" y="100" on="0"/>
        <pt x="742" y="140" on="0"/>
        <pt x="782" y="176" on="1"/>
        <pt x="850" y="238" on="0"/>
      </contour>
      <contour>
        <pt x="897" y="731" on="0"/>
        <pt x="845" y="691" on="0"/>
        <pt x="779" y="691" on="0"/>
        <pt x="726" y="731" on="0"/>
        <pt x="708" y="761" on="1"/>
        <pt x="672" y="822" on="0"/>
        <pt x="672" y="890" on="1"/>
        <pt x="672" y="973" on="0"/>
        <pt x="747" y="1001" on="1"/>
        <pt x="774" y="1011" on="0"/>
        <pt x="813" y="1011" on="1"/>
        <pt x="920" y="1011" on="0"/>
        <pt x="946" y="935" on="1"/>
        <pt x="954" y="914" on="0"/>
        <pt x="954" y="861" on="0"/>
        <pt x="934" y="791" on="0"/>
      </contour>
    </TTGlyph>
    <TTGlyph name="Lslash" xMin="47" yMin="0" xMax="1065" yMax="1530">
      <contour>
        <pt x="305" y="566" on="1"/>
        <pt x="187" y="470" on="0"/>
        <pt x="167" y="433" on="1"/>
        <pt x="47" y="554" on="1"/>
        <pt x="65" y="563" on="0"/>
        <pt x="92" y="580" on="1"/>
        <pt x="248" y="689" on="0"/>
        <pt x="305" y="732" on="1"/>
        <pt x="305" y="1266" on="1"/>
        <pt x="305" y="1411" on="0"/>
        <pt x="258" y="1479" on="1"/>
        <pt x="240" y="1504" on="0"/>
        <pt x="215" y="1530" on="1"/>
        <pt x="626" y="1530" on="1"/>
        <pt x="567" y="1445" on="0"/>
        <pt x="560" y="1355" on="1"/>
        <pt x="557" y="1325" on="0"/>
        <pt x="557" y="1301" on="1"/>
        <pt x="557" y="1244" on="1"/>
        <pt x="556" y="1056" on="1"/>
        <pt x="556" y="928" on="1"/>
        <pt x="770" y="1108" on="0"/>
        <pt x="821" y="1175" on="1"/>
        <pt x="961" y="1034" on="1"/>
        <pt x="643" y="820" on="0"/>
        <pt x="556" y="756" on="1"/>
        <pt x="556" y="572" on="1"/>
        <pt x="557" y="373" on="1"/>
        <pt x="557" y="186" on="0"/>
        <pt x="597" y="113" on="0"/>
        <pt x="653" y="100" on="0"/>
        <pt x="767" y="100" on="0"/>
        <pt x="869" y="140" on="0"/>
        <pt x="909" y="176" on="1"/>
        <pt x="977" y="238" on="0"/>
        <pt x="1038" y="370" on="1"/>
        <pt x="1065" y="331" on="0"/>
        <pt x="1065" y="221" on="0"/>
        <pt x="1050" y="141" on="0"/>
        <pt x="1036" y="105" on="1"/>
        <pt x="1007" y="26" on="0"/>
        <pt x="961" y="0" on="1"/>
        <pt x="157" y="0" on="1"/>
        <pt x="236" y="49" on="0"/>
        <pt x="260" y="85" on="1"/>
        <pt x="306" y="153" on="0"/>
        <pt x="306" y="261" on="1"/>
        <pt x="305" y="302" on="0"/>
        <pt x="305" y="350" on="1"/>
      </contour>
    </TTGlyph>
    <TTGlyph name="M" xMin="87" yMin="0" xMax="1426" yMax="1530">
      <contour>
        <pt x="351" y="1183" on="1"/>
        <pt x="347" y="1037" on="0"/>
        <pt x="347" y="881" on="1"/>
        <pt x="347" y="668" on="0"/>
        <pt x="361" y="176" on="0"/>
        <pt x="368" y="109" on="0"/>
        <pt x="374" y="84" on="1"/>
        <pt x="385" y="38" on="0"/>
        <pt x="410" y="0" on="1"/>
        <pt x="131" y="0" on="1"/>
        <pt x="169" y="54" on="0"/>
        <pt x="184" y="178" on="0"/>
        <pt x="188" y="236" on="1"/>
        <pt x="196" y="354" on="0"/>
        <pt x="196" y="553" on="1"/>
        <pt x="196" y="794" on="0"/>
        <pt x="188" y="993" on="1"/>
        <pt x="177" y="1268" on="1"/>
        <pt x="171" y="1420" on="0"/>
        <pt x="128" y="1484" on="1"/>
        <pt x="112" y="1508" on="0"/>
        <pt x="87" y="1530" on="1"/>
        <pt x="478" y="1530" on="1"/>
        <pt x="517" y="1359" on="0"/>
        <pt x="575" y="1167" on="1"/>
        <pt x="757" y="586" on="1"/>
        <pt x="1036" y="1530" on="1"/>
        <pt x="1426" y="1530" on="1"/>
        <pt x="1377" y="1487" on="0"/>
        <pt x="1362" y="1442" on="1"/>
        <pt x="1340" y="1373" on="0"/>
        <pt x="1337" y="1282" on="1"/>
        <pt x="1330" y="1105" on="1"/>
        <pt x="1317" y="794" on="0"/>
        <pt x="1317" y="553" on="1"/>
        <pt x="1317" y="149" on="0"/>
        <pt x="1354" y="40" on="1"/>
        <pt x="1361" y="20" on="0"/>
        <pt x="1372" y="0" on="1"/>
        <pt x="1057" y="0" on="1"/>
        <pt x="1084" y="53" on="0"/>
        <pt x="1091" y="176" on="0"/>
        <pt x="1094" y="284" on="1"/>
        <pt x="1106" y="639" on="0"/>
        <pt x="1106" y="801" on="1"/>
        <pt x="1106" y="1068" on="0"/>
        <pt x="1101" y="1198" on="1"/>
        <pt x="733" y="0" on="1"/>
        <pt x="538" y="614" on="1"/>
      </contour>
    </TTGlyph>
    <TTGlyph name="N" xMin="94" yMin="0" xMax="1173" yMax="1531">
      <contour>
        <pt x="359" y="1089" on="1"/>
        <pt x="357" y="985" on="0"/>
        <pt x="357" y="852" on="1"/>
        <pt x="357" y="663" on="0"/>
        <pt x="371" y="176" on="0"/>
        <pt x="379" y="109" on="0"/>
        <pt x="385" y="84" on="1"/>
        <pt x="395" y="43" on="0"/>
        <pt x="416" y="0" on="1"/>
        <pt x="148" y="0" on="1"/>
        <pt x="178" y="61" on="0"/>
        <pt x="191" y="178" on="0"/>
        <pt x="195" y="236" on="1"/>
        <pt x="203" y="354" on="0"/>
        <pt x="203" y="553" on="1"/>
        <pt x="203" y="794" on="0"/>
        <pt x="195" y="993" on="1"/>
        <pt x="184" y="1268" on="1"/>
        <pt x="178" y="1420" on="0"/>
        <pt x="136" y="1484" on="1"/>
        <pt x="119" y="1508" on="0"/>
        <pt x="94" y="1530" on="1"/>
        <pt x="405" y="1530" on="1"/>
        <pt x="464" y="1394" on="0"/>
        <pt x="530" y="1260" on="1"/>
        <pt x="666" y="994" on="1"/>
        <pt x="958" y="457" on="1"/>
        <pt x="959" y="520" on="0"/>
        <pt x="959" y="592" on="1"/>
        <pt x="959" y="748" on="1"/>
        <pt x="959" y="1248" on="0"/>
        <pt x="898" y="1470" on="1"/>
        <pt x="886" y="1511" on="0"/>
        <pt x="872" y="1530" on="1"/>
        <pt x="1173" y="1531" on="1"/>
        <pt x="1123" y="1431" on="0"/>
        <pt x="1110" y="968" on="1"/>
        <pt x="1108" y="896" on="0"/>
        <pt x="1108" y="830" on="1"/>
        <pt x="1109" y="746" on="1"/>
        <pt x="1109" y="338" on="1"/>
        <pt x="1109" y="79" on="0"/>
        <pt x="1113" y="0" on="1"/>
        <pt x="951" y="0" on="1"/>
        <pt x="661" y="540" on="1"/>
      </contour>
    </TTGlyph>
    <TTGlyph name="Nacute" xMin="94" yMin="0" xMax="1173" yMax="1992">
      <contour>
        <pt x="359" y="1089" on="1"/>
        <pt x="357" y="985" on="0"/>
        <pt x="357" y="852" on="1"/>
        <pt x="357" y="663" on="0"/>
        <pt x="371" y="176" on="0"/>
        <pt x="379" y="109" on="0"/>
        <pt x="385" y="84" on="1"/>
        <pt x="395" y="43" on="0"/>
        <pt x="416" y="0" on="1"/>
        <pt x="148" y="0" on="1"/>
        <pt x="178" y="61" on="0"/>
        <pt x="191" y="178" on="0"/>
        <pt x="195" y="236" on="1"/>
        <pt x="203" y="354" on="0"/>
        <pt x="203" y="553" on="1"/>
        <pt x="203" y="794" on="0"/>
        <pt x="195" y="993" on="1"/>
        <pt x="184" y="1268" on="1"/>
        <pt x="178" y="1420" on="0"/>
        <pt x="136" y="1484" on="1"/>
        <pt x="119" y="1508" on="0"/>
        <pt x="94" y="1530" on="1"/>
        <pt x="405" y="1530" on="1"/>
        <pt x="464" y="1394" on="0"/>
        <pt x="530" y="1260" on="1"/>
        <pt x="666" y="994" on="1"/>
        <pt x="958" y="457" on="1"/>
        <pt x="959" y="520" on="0"/>
        <pt x="959" y="592" on="1"/>
        <pt x="959" y="748" on="1"/>
        <pt x="959" y="1248" on="0"/>
        <pt x="898" y="1470" on="1"/>
        <pt x="886" y="1511" on="0"/>
        <pt x="872" y="1530" on="1"/>
        <pt x="1173" y="1531" on="1"/>
        <pt x="1123" y="1431" on="0"/>
        <pt x="1110" y="968" on="1"/>
        <pt x="1108" y="896" on="0"/>
        <pt x="1108" y="830" on="1"/>
        <pt x="1109" y="746" on="1"/>
        <pt x="1109" y="338" on="1"/>
        <pt x="1109" y="79" on="0"/>
        <pt x="1113" y="0" on="1"/>
        <pt x="951" y="0" on="1"/>
        <pt x="661" y="540" on="1"/>
      </contour>
      <contour>
        <pt x="1081" y="1992" on="1"/>
        <pt x="984" y="1848" on="0"/>
        <pt x="812" y="1734" on="1"/>
        <pt x="769" y="1706" on="0"/>
        <pt x="742" y="1692" on="1"/>
        <pt x="594" y="1692" on="1"/>
        <pt x="611" y="1708" on="0"/>
        <pt x="634" y="1736" on="1"/>
        <pt x="634" y="1736" on="0"/>
        <pt x="734" y="1860" on="1"/>
        <pt x="824" y="1976" on="0"/>
        <pt x="824" y="1992" on="1"/>
      </contour>
    </TTGlyph>
    <TTGlyph name="Ncaron" xMin="94" yMin="0" xMax="1173" yMax="1980">
      <contour>
        <pt x="359" y="1089" on="1"/>
        <pt x="357" y="985" on="0"/>
        <pt x="357" y="852" on="1"/>
        <pt x="357" y="663" on="0"/>
        <pt x="371" y="176" on="0"/>
        <pt x="379" y="109" on="0"/>
        <pt x="385" y="84" on="1"/>
        <pt x="395" y="43" on="0"/>
        <pt x="416" y="0" on="1"/>
        <pt x="148" y="0" on="1"/>
        <pt x="178" y="61" on="0"/>
        <pt x="191" y="178" on="0"/>
        <pt x="195" y="236" on="1"/>
        <pt x="203" y="354" on="0"/>
        <pt x="203" y="553" on="1"/>
        <pt x="203" y="794" on="0"/>
        <pt x="195" y="993" on="1"/>
        <pt x="184" y="1268" on="1"/>
        <pt x="178" y="1420" on="0"/>
        <pt x="136" y="1484" on="1"/>
        <pt x="119" y="1508" on="0"/>
        <pt x="94" y="1530" on="1"/>
        <pt x="405" y="1530" on="1"/>
        <pt x="464" y="1394" on="0"/>
        <pt x="530" y="1260" on="1"/>
        <pt x="666" y="994" on="1"/>
        <pt x="958" y="457" on="1"/>
        <pt x="959" y="520" on="0"/>
        <pt x="959" y="592" on="1"/>
        <pt x="959" y="748" on="1"/>
        <pt x="959" y="1248" on="0"/>
        <pt x="898" y="1470" on="1"/>
        <pt x="886" y="1511" on="0"/>
        <pt x="872" y="1530" on="1"/>
        <pt x="1173" y="1531" on="1"/>
        <pt x="1123" y="1431" on="0"/>
        <pt x="1110" y="968" on="1"/>
        <pt x="1108" y="896" on="0"/>
        <pt x="1108" y="830" on="1"/>
        <pt x="1109" y="746" on="1"/>
        <pt x="1109" y="338" on="1"/>
        <pt x="1109" y="79" on="0"/>
        <pt x="1113" y="0" on="1"/>
        <pt x="951" y="0" on="1"/>
        <pt x="661" y="540" on="1"/>
      </contour>
      <contour>
        <pt x="408" y="1980" on="1"/>
        <pt x="540" y="1916" on="0"/>
        <pt x="651" y="1824" on="1"/>
        <pt x="775" y="1928" on="0"/>
        <pt x="892" y="1980" on="1"/>
        <pt x="995" y="1980" on="1"/>
        <pt x="977" y="1962" on="0"/>
        <pt x="952" y="1934" on="1"/>
        <pt x="833" y="1794" on="0"/>
        <pt x="806" y="1758" on="1"/>
        <pt x="764" y="1704" on="1"/>
        <pt x="749" y="1684" on="0"/>
        <pt x="747" y="1680" on="1"/>
        <pt x="553" y="1680" on="1"/>
        <pt x="551" y="1684" on="0"/>
        <pt x="536" y="1704" on="1"/>
        <pt x="399" y="1875" on="1"/>
        <pt x="348" y="1934" on="1"/>
        <pt x="323" y="1962" on="0"/>
        <pt x="305" y="1980" on="1"/>
      </contour>
    </TTGlyph>
    <TTGlyph name="Ncommaaccent" xMin="94" yMin="-499" xMax="1173" yMax="1531">
      <contour>
        <pt x="359" y="1089" on="1"/>
        <pt x="357" y="985" on="0"/>
        <pt x="357" y="852" on="1"/>
        <pt x="357" y="663" on="0"/>
        <pt x="371" y="176" on="0"/>
        <pt x="379" y="109" on="0"/>
        <pt x="385" y="84" on="1"/>
        <pt x="395" y="43" on="0"/>
        <pt x="416" y="0" on="1"/>
        <pt x="148" y="0" on="1"/>
        <pt x="178" y="61" on="0"/>
        <pt x="191" y="178" on="0"/>
        <pt x="195" y="236" on="1"/>
        <pt x="203" y="354" on="0"/>
        <pt x="203" y="553" on="1"/>
        <pt x="203" y="794" on="0"/>
        <pt x="195" y="993" on="1"/>
        <pt x="184" y="1268" on="1"/>
        <pt x="178" y="1420" on="0"/>
        <pt x="136" y="1484" on="1"/>
        <pt x="119" y="1508" on="0"/>
        <pt x="94" y="1530" on="1"/>
        <pt x="405" y="1530" on="1"/>
        <pt x="464" y="1394" on="0"/>
        <pt x="530" y="1260" on="1"/>
        <pt x="666" y="994" on="1"/>
        <pt x="958" y="457" on="1"/>
        <pt x="959" y="520" on="0"/>
        <pt x="959" y="592" on="1"/>
        <pt x="959" y="748" on="1"/>
        <pt x="959" y="1248" on="0"/>
        <pt x="898" y="1470" on="1"/>
        <pt x="886" y="1511" on="0"/>
        <pt x="872" y="1530" on="1"/>
        <pt x="1173" y="1531" on="1"/>
        <pt x="1123" y="1431" on="0"/>
        <pt x="1110" y="968" on="1"/>
        <pt x="1108" y="896" on="0"/>
        <pt x="1108" y="830" on="1"/>
        <pt x="1109" y="746" on="1"/>
        <pt x="1109" y="338" on="1"/>
        <pt x="1109" y="79" on="0"/>
        <pt x="1113" y="0" on="1"/>
        <pt x="951" y="0" on="1"/>
        <pt x="661" y="540" on="1"/>
      </contour>
      <contour>
        <pt x="795" y="-84" on="1"/>
        <pt x="819" y="-128" on="0"/>
        <pt x="819" y="-155" on="1"/>
        <pt x="819" y="-246" on="0"/>
        <pt x="744" y="-358" on="0"/>
        <pt x="703" y="-396" on="1"/>
        <pt x="616" y="-479" on="0"/>
        <pt x="542" y="-499" on="1"/>
        <pt x="509" y="-487" on="0"/>
        <pt x="480" y="-458" on="1"/>
        <pt x="581" y="-374" on="0"/>
        <pt x="581" y="-273" on="1"/>
        <pt x="581" y="-194" on="0"/>
        <pt x="529" y="-116" on="1"/>
        <pt x="514" y="-95" on="0"/>
        <pt x="499" y="-84" on="1"/>
      </contour>
    </TTGlyph>
    <TTGlyph name="Ntilde" xMin="94" yMin="0" xMax="1173" yMax="1995">
      <contour>
        <pt x="359" y="1089" on="1"/>
        <pt x="357" y="985" on="0"/>
        <pt x="357" y="852" on="1"/>
        <pt x="357" y="663" on="0"/>
        <pt x="371" y="176" on="0"/>
        <pt x="379" y="109" on="0"/>
        <pt x="385" y="84" on="1"/>
        <pt x="395" y="43" on="0"/>
        <pt x="416" y="0" on="1"/>
        <pt x="148" y="0" on="1"/>
        <pt x="178" y="61" on="0"/>
        <pt x="191" y="178" on="0"/>
        <pt x="195" y="236" on="1"/>
        <pt x="203" y="354" on="0"/>
        <pt x="203" y="553" on="1"/>
        <pt x="203" y="794" on="0"/>
        <pt x="195" y="993" on="1"/>
        <pt x="184" y="1268" on="1"/>
        <pt x="178" y="1420" on="0"/>
        <pt x="136" y="1484" on="1"/>
        <pt x="119" y="1508" on="0"/>
        <pt x="94" y="1530" on="1"/>
        <pt x="405" y="1530" on="1"/>
        <pt x="464" y="1394" on="0"/>
        <pt x="530" y="1260" on="1"/>
        <pt x="666" y="994" on="1"/>
        <pt x="958" y="457" on="1"/>
        <pt x="959" y="520" on="0"/>
        <pt x="959" y="592" on="1"/>
        <pt x="959" y="748" on="1"/>
        <pt x="959" y="1248" on="0"/>
        <pt x="898" y="1470" on="1"/>
        <pt x="886" y="1511" on="0"/>
        <pt x="872" y="1530" on="1"/>
        <pt x="1173" y="1531" on="1"/>
        <pt x="1123" y="1431" on="0"/>
        <pt x="1110" y="968" on="1"/>
        <pt x="1108" y="896" on="0"/>
        <pt x="1108" y="830" on="1"/>
        <pt x="1109" y="746" on="1"/>
        <pt x="1109" y="338" on="1"/>
        <pt x="1109" y="79" on="0"/>
        <pt x="1113" y="0" on="1"/>
        <pt x="951" y="0" on="1"/>
        <pt x="661" y="540" on="1"/>
      </contour>
      <contour>
        <pt x="307" y="1775" on="1"/>
        <pt x="357" y="1881" on="0"/>
        <pt x="499" y="1995" on="0"/>
        <pt x="616" y="1995" on="0"/>
        <pt x="678" y="1976" on="0"/>
        <pt x="725" y="1947" on="0"/>
        <pt x="761" y="1913" on="0"/>
        <pt x="778" y="1898" on="1"/>
        <pt x="817" y="1865" on="0"/>
        <pt x="880" y="1865" on="0"/>
        <pt x="923" y="1884" on="0"/>
        <pt x="957" y="1914" on="0"/>
        <pt x="971" y="1932" on="1"/>
        <pt x="996" y="1965" on="1"/>
        <pt x="1056" y="1905" on="1"/>
        <pt x="1007" y="1808" on="0"/>
        <pt x="871" y="1705" on="0"/>
        <pt x="757" y="1705" on="0"/>
        <pt x="695" y="1724" on="0"/>
        <pt x="648" y="1753" on="0"/>
        <pt x="612" y="1787" on="0"/>
        <pt x="595" y="1802" on="1"/>
        <pt x="556" y="1835" on="0"/>
        <pt x="493" y="1835" on="0"/>
        <pt x="450" y="1816" on="0"/>
        <pt x="416" y="1786" on="0"/>
        <pt x="403" y="1768" on="1"/>
        <pt x="377" y="1735" on="1"/>
      </contour>
    </TTGlyph>
    <TTGlyph name="O" xMin="128" yMin="-20" xMax="1190" yMax="1550">
      <contour>
        <pt x="661" y="80" on="1"/>
        <pt x="853" y="80" on="0"/>
        <pt x="909" y="548" on="1"/>
        <pt x="928" y="706" on="0"/>
        <pt x="928" y="920" on="1"/>
        <pt x="928" y="1450" on="0"/>
        <pt x="659" y="1450" on="1"/>
        <pt x="390" y="1450" on="0"/>
        <pt x="390" y="920" on="1"/>
        <pt x="390" y="295" on="0"/>
        <pt x="551" y="131" on="1"/>
        <pt x="601" y="80" on="0"/>
      </contour>
      <contour>
        <pt x="659" y="-20" on="1"/>
        <pt x="393" y="-20" on="0"/>
        <pt x="258" y="230" on="1"/>
        <pt x="128" y="471" on="0"/>
        <pt x="128" y="920" on="1"/>
        <pt x="128" y="1387" on="0"/>
        <pt x="415" y="1508" on="1"/>
        <pt x="516" y="1550" on="0"/>
        <pt x="659" y="1550" on="1"/>
        <pt x="1069" y="1550" on="0"/>
        <pt x="1160" y="1186" on="1"/>
        <pt x="1190" y="1069" on="0"/>
        <pt x="1190" y="701" on="0"/>
        <pt x="1126" y="352" on="0"/>
        <pt x="1060" y="230" on="1"/>
        <pt x="925" y="-20" on="0"/>
      </contour>
    </TTGlyph>
    <TTGlyph name="OE" xMin="128" yMin="-20" xMax="1679" yMax="1550">
      <contour>
        <pt x="1652" y="370" on="1"/>
        <pt x="1679" y="333" on="0"/>
        <pt x="1679" y="193" on="0"/>
        <pt x="1667" y="110" on="0"/>
        <pt x="1654" y="76" on="1"/>
        <pt x="1624" y="0" on="0"/>
        <pt x="1575" y="0" on="1"/>
        <pt x="796" y="0" on="1"/>
        <pt x="731" y="-20" on="0"/>
        <pt x="659" y="-20" on="1"/>
        <pt x="393" y="-20" on="0"/>
        <pt x="258" y="230" on="1"/>
        <pt x="128" y="471" on="0"/>
        <pt x="128" y="920" on="1"/>
        <pt x="128" y="1387" on="0"/>
        <pt x="415" y="1508" on="1"/>
        <pt x="516" y="1550" on="0"/>
        <pt x="753" y="1550" on="0"/>
        <pt x="833" y="1530" on="1"/>
        <pt x="1575" y="1530" on="1"/>
        <pt x="1643" y="1506" on="0"/>
        <pt x="1668" y="1362" on="1"/>
        <pt x="1675" y="1322" on="0"/>
        <pt x="1675" y="1284" on="1"/>
        <pt x="1675" y="1206" on="0"/>
        <pt x="1652" y="1160" on="1"/>
        <pt x="1598" y="1268" on="1"/>
        <pt x="1544" y="1374" on="0"/>
        <pt x="1443" y="1410" on="1"/>
        <pt x="1387" y="1430" on="0"/>
        <pt x="1247" y="1430" on="0"/>
        <pt x="1187" y="1421" on="0"/>
        <pt x="1171" y="1404" on="1"/>
        <pt x="1145" y="1375" on="0"/>
        <pt x="1145" y="1212" on="0"/>
        <pt x="1153" y="1149" on="0"/>
        <pt x="1168" y="1129" on="1"/>
        <pt x="1199" y="1090" on="0"/>
        <pt x="1299" y="1090" on="1"/>
        <pt x="1613" y="1090" on="1"/>
        <pt x="1590" y="1032" on="0"/>
        <pt x="1566" y="1008" on="1"/>
        <pt x="1518" y="960" on="0"/>
        <pt x="1436" y="960" on="1"/>
        <pt x="1404" y="960" on="0"/>
        <pt x="1375" y="967" on="1"/>
        <pt x="1321" y="980" on="0"/>
        <pt x="1239" y="980" on="0"/>
        <pt x="1186" y="965" on="0"/>
        <pt x="1171" y="949" on="1"/>
        <pt x="1145" y="921" on="0"/>
        <pt x="1145" y="848" on="1"/>
        <pt x="1145" y="371" on="1"/>
        <pt x="1145" y="183" on="0"/>
        <pt x="1187" y="113" on="0"/>
        <pt x="1247" y="100" on="0"/>
        <pt x="1387" y="100" on="0"/>
        <pt x="1501" y="140" on="0"/>
        <pt x="1578" y="212" on="0"/>
        <pt x="1628" y="311" on="0"/>
      </contour>
      <contour>
        <pt x="661" y="80" on="1"/>
        <pt x="853" y="80" on="0"/>
        <pt x="909" y="548" on="1"/>
        <pt x="928" y="706" on="0"/>
        <pt x="928" y="920" on="1"/>
        <pt x="928" y="1450" on="0"/>
        <pt x="659" y="1450" on="1"/>
        <pt x="390" y="1450" on="0"/>
        <pt x="390" y="920" on="1"/>
        <pt x="390" y="295" on="0"/>
        <pt x="551" y="131" on="1"/>
        <pt x="601" y="80" on="0"/>
      </contour>
    </TTGlyph>
    <TTGlyph name="Oacute" xMin="128" yMin="-20" xMax="1190" yMax="1992">
      <contour>
        <pt x="661" y="80" on="1"/>
        <pt x="853" y="80" on="0"/>
        <pt x="909" y="548" on="1"/>
        <pt x="928" y="706" on="0"/>
        <pt x="928" y="920" on="1"/>
        <pt x="928" y="1450" on="0"/>
        <pt x="659" y="1450" on="1"/>
        <pt x="390" y="1450" on="0"/>
        <pt x="390" y="920" on="1"/>
        <pt x="390" y="295" on="0"/>
        <pt x="551" y="131" on="1"/>
        <pt x="601" y="80" on="0"/>
      </contour>
      <contour>
        <pt x="659" y="-20" on="1"/>
        <pt x="393" y="-20" on="0"/>
        <pt x="258" y="230" on="1"/>
        <pt x="128" y="471" on="0"/>
        <pt x="128" y="920" on="1"/>
        <pt x="128" y="1387" on="0"/>
        <pt x="415" y="1508" on="1"/>
        <pt x="516" y="1550" on="0"/>
        <pt x="659" y="1550" on="1"/>
        <pt x="1069" y="1550" on="0"/>
        <pt x="1160" y="1186" on="1"/>
        <pt x="1190" y="1069" on="0"/>
        <pt x="1190" y="701" on="0"/>
        <pt x="1126" y="352" on="0"/>
        <pt x="1060" y="230" on="1"/>
        <pt x="925" y="-20" on="0"/>
      </contour>
      <contour>
        <pt x="1081" y="1992" on="1"/>
        <pt x="984" y="1848" on="0"/>
        <pt x="812" y="1734" on="1"/>
        <pt x="769" y="1706" on="0"/>
        <pt x="742" y="1692" on="1"/>
        <pt x="594" y="1692" on="1"/>
        <pt x="611" y="1708" on="0"/>
        <pt x="634" y="1736" on="1"/>
        <pt x="634" y="1736" on="0"/>
        <pt x="734" y="1860" on="1"/>
        <pt x="824" y="1976" on="0"/>
        <pt x="824" y="1992" on="1"/>
      </contour>
    </TTGlyph>
    <TTGlyph name="Obreve" xMin="128" yMin="-20" xMax="1190" yMax="1980">
      <contour>
        <pt x="661" y="80" on="1"/>
        <pt x="853" y="80" on="0"/>
        <pt x="909" y="548" on="1"/>
        <pt x="928" y="706" on="0"/>
        <pt x="928" y="920" on="1"/>
        <pt x="928" y="1450" on="0"/>
        <pt x="659" y="1450" on="1"/>
        <pt x="390" y="1450" on="0"/>
        <pt x="390" y="920" on="1"/>
        <pt x="390" y="295" on="0"/>
        <pt x="551" y="131" on="1"/>
        <pt x="601" y="80" on="0"/>
      </contour>
      <contour>
        <pt x="659" y="-20" on="1"/>
        <pt x="393" y="-20" on="0"/>
        <pt x="258" y="230" on="1"/>
        <pt x="128" y="471" on="0"/>
        <pt x="128" y="920" on="1"/>
        <pt x="128" y="1387" on="0"/>
        <pt x="415" y="1508" on="1"/>
        <pt x="516" y="1550" on="0"/>
        <pt x="659" y="1550" on="1"/>
        <pt x="1069" y="1550" on="0"/>
        <pt x="1160" y="1186" on="1"/>
        <pt x="1190" y="1069" on="0"/>
        <pt x="1190" y="701" on="0"/>
        <pt x="1126" y="352" on="0"/>
        <pt x="1060" y="230" on="1"/>
        <pt x="925" y="-20" on="0"/>
      </contour>
      <contour>
        <pt x="577" y="1790" on="1"/>
        <pt x="616" y="1775" on="0"/>
        <pt x="715" y="1775" on="0"/>
        <pt x="788" y="1806" on="0"/>
        <pt x="815" y="1834" on="1"/>
        <pt x="874" y="1895" on="0"/>
        <pt x="874" y="1980" on="1"/>
        <pt x="998" y="1980" on="1"/>
        <pt x="998" y="1858" on="0"/>
        <pt x="933" y="1752" on="1"/>
        <pt x="847" y="1610" on="0"/>
        <pt x="680" y="1610" on="1"/>
        <pt x="435" y="1610" on="0"/>
        <pt x="357" y="1832" on="1"/>
        <pt x="332" y="1905" on="0"/>
        <pt x="332" y="1980" on="1"/>
        <pt x="466" y="1980" on="1"/>
        <pt x="466" y="1834" on="0"/>
      </contour>
    </TTGlyph>
    <TTGlyph name="Ocircumflex" xMin="128" yMin="-20" xMax="1190" yMax="1981">
      <contour>
        <pt x="661" y="80" on="1"/>
        <pt x="853" y="80" on="0"/>
        <pt x="909" y="548" on="1"/>
        <pt x="928" y="706" on="0"/>
        <pt x="928" y="920" on="1"/>
        <pt x="928" y="1450" on="0"/>
        <pt x="659" y="1450" on="1"/>
        <pt x="390" y="1450" on="0"/>
        <pt x="390" y="920" on="1"/>
        <pt x="390" y="295" on="0"/>
        <pt x="551" y="131" on="1"/>
        <pt x="601" y="80" on="0"/>
      </contour>
      <contour>
        <pt x="659" y="-20" on="1"/>
        <pt x="393" y="-20" on="0"/>
        <pt x="258" y="230" on="1"/>
        <pt x="128" y="471" on="0"/>
        <pt x="128" y="920" on="1"/>
        <pt x="128" y="1387" on="0"/>
        <pt x="415" y="1508" on="1"/>
        <pt x="516" y="1550" on="0"/>
        <pt x="659" y="1550" on="1"/>
        <pt x="1069" y="1550" on="0"/>
        <pt x="1160" y="1186" on="1"/>
        <pt x="1190" y="1069" on="0"/>
        <pt x="1190" y="701" on="0"/>
        <pt x="1126" y="352" on="0"/>
        <pt x="1060" y="230" on="1"/>
        <pt x="925" y="-20" on="0"/>
      </contour>
      <contour>
        <pt x="922" y="1681" on="1"/>
        <pt x="798" y="1736" on="0"/>
        <pt x="679" y="1836" on="1"/>
        <pt x="550" y="1731" on="0"/>
        <pt x="438" y="1681" on="1"/>
        <pt x="335" y="1681" on="1"/>
        <pt x="353" y="1698" on="0"/>
        <pt x="378" y="1726" on="1"/>
        <pt x="497" y="1868" on="0"/>
        <pt x="525" y="1903" on="1"/>
        <pt x="566" y="1957" on="1"/>
        <pt x="581" y="1976" on="0"/>
        <pt x="583" y="1981" on="1"/>
        <pt x="777" y="1981" on="1"/>
        <pt x="779" y="1976" on="0"/>
        <pt x="794" y="1957" on="1"/>
        <pt x="985" y="1719" on="0"/>
        <pt x="1025" y="1681" on="1"/>
      </contour>
    </TTGlyph>
    <TTGlyph name="Odieresis" xMin="128" yMin="-20" xMax="1190" yMax="1960">
      <contour>
        <pt x="661" y="80" on="1"/>
        <pt x="853" y="80" on="0"/>
        <pt x="909" y="548" on="1"/>
        <pt x="928" y="706" on="0"/>
        <pt x="928" y="920" on="1"/>
        <pt x="928" y="1450" on="0"/>
        <pt x="659" y="1450" on="1"/>
        <pt x="390" y="1450" on="0"/>
        <pt x="390" y="920" on="1"/>
        <pt x="390" y="295" on="0"/>
        <pt x="551" y="131" on="1"/>
        <pt x="601" y="80" on="0"/>
      </contour>
      <contour>
        <pt x="659" y="-20" on="1"/>
        <pt x="393" y="-20" on="0"/>
        <pt x="258" y="230" on="1"/>
        <pt x="128" y="471" on="0"/>
        <pt x="128" y="920" on="1"/>
        <pt x="128" y="1387" on="0"/>
        <pt x="415" y="1508" on="1"/>
        <pt x="516" y="1550" on="0"/>
        <pt x="659" y="1550" on="1"/>
        <pt x="1069" y="1550" on="0"/>
        <pt x="1160" y="1186" on="1"/>
        <pt x="1190" y="1069" on="0"/>
        <pt x="1190" y="701" on="0"/>
        <pt x="1126" y="352" on="0"/>
        <pt x="1060" y="230" on="1"/>
        <pt x="925" y="-20" on="0"/>
      </contour>
      <contour>
        <pt x="554" y="1696" on="0"/>
        <pt x="504" y="1658" on="0"/>
        <pt x="442" y="1658" on="0"/>
        <pt x="393" y="1696" on="0"/>
        <pt x="376" y="1724" on="1"/>
        <pt x="341" y="1782" on="0"/>
        <pt x="341" y="1869" on="0"/>
        <pt x="355" y="1909" on="0"/>
        <pt x="371" y="1925" on="1"/>
        <pt x="406" y="1960" on="0"/>
        <pt x="511" y="1960" on="0"/>
        <pt x="561" y="1941" on="0"/>
        <pt x="577" y="1925" on="1"/>
        <pt x="607" y="1895" on="0"/>
        <pt x="607" y="1818" on="0"/>
        <pt x="588" y="1752" on="0"/>
      </contour>
      <contour>
        <pt x="966" y="1696" on="0"/>
        <pt x="916" y="1658" on="0"/>
        <pt x="854" y="1658" on="0"/>
        <pt x="805" y="1696" on="0"/>
        <pt x="788" y="1724" on="1"/>
        <pt x="753" y="1782" on="0"/>
        <pt x="753" y="1869" on="0"/>
        <pt x="767" y="1909" on="0"/>
        <pt x="783" y="1925" on="1"/>
        <pt x="816" y="1960" on="0"/>
        <pt x="922" y="1960" on="0"/>
        <pt x="973" y="1941" on="0"/>
        <pt x="989" y="1925" on="1"/>
        <pt x="1019" y="1895" on="0"/>
        <pt x="1019" y="1818" on="0"/>
        <pt x="1000" y="1752" on="0"/>
      </contour>
    </TTGlyph>
    <TTGlyph name="Ograve" xMin="128" yMin="-20" xMax="1190" yMax="1993">
      <contour>
        <pt x="661" y="80" on="1"/>
        <pt x="853" y="80" on="0"/>
        <pt x="909" y="548" on="1"/>
        <pt x="928" y="706" on="0"/>
        <pt x="928" y="920" on="1"/>
        <pt x="928" y="1450" on="0"/>
        <pt x="659" y="1450" on="1"/>
        <pt x="390" y="1450" on="0"/>
        <pt x="390" y="920" on="1"/>
        <pt x="390" y="295" on="0"/>
        <pt x="551" y="131" on="1"/>
        <pt x="601" y="80" on="0"/>
      </contour>
      <contour>
        <pt x="659" y="-20" on="1"/>
        <pt x="393" y="-20" on="0"/>
        <pt x="258" y="230" on="1"/>
        <pt x="128" y="471" on="0"/>
        <pt x="128" y="920" on="1"/>
        <pt x="128" y="1387" on="0"/>
        <pt x="415" y="1508" on="1"/>
        <pt x="516" y="1550" on="0"/>
        <pt x="659" y="1550" on="1"/>
        <pt x="1069" y="1550" on="0"/>
        <pt x="1160" y="1186" on="1"/>
        <pt x="1190" y="1069" on="0"/>
        <pt x="1190" y="701" on="0"/>
        <pt x="1126" y="352" on="0"/>
        <pt x="1060" y="230" on="1"/>
        <pt x="925" y="-20" on="0"/>
      </contour>
      <contour>
        <pt x="584" y="1993" on="1"/>
        <pt x="584" y="1977" on="0"/>
        <pt x="642" y="1902" on="1"/>
        <pt x="780" y="1725" on="0"/>
        <pt x="814" y="1693" on="1"/>
        <pt x="666" y="1693" on="1"/>
        <pt x="540" y="1758" on="0"/>
        <pt x="412" y="1890" on="1"/>
        <pt x="364" y="1938" on="0"/>
        <pt x="327" y="1993" on="1"/>
      </contour>
    </TTGlyph>
    <TTGlyph name="Ohungarumlaut" xMin="128" yMin="-20" xMax="1190" yMax="1992">
      <contour>
        <pt x="661" y="80" on="1"/>
        <pt x="853" y="80" on="0"/>
        <pt x="909" y="548" on="1"/>
        <pt x="928" y="706" on="0"/>
        <pt x="928" y="920" on="1"/>
        <pt x="928" y="1450" on="0"/>
        <pt x="659" y="1450" on="1"/>
        <pt x="390" y="1450" on="0"/>
        <pt x="390" y="920" on="1"/>
        <pt x="390" y="295" on="0"/>
        <pt x="551" y="131" on="1"/>
        <pt x="601" y="80" on="0"/>
      </contour>
      <contour>
        <pt x="659" y="-20" on="1"/>
        <pt x="393" y="-20" on="0"/>
        <pt x="258" y="230" on="1"/>
        <pt x="128" y="471" on="0"/>
        <pt x="128" y="920" on="1"/>
        <pt x="128" y="1387" on="0"/>
        <pt x="415" y="1508" on="1"/>
        <pt x="516" y="1550" on="0"/>
        <pt x="659" y="1550" on="1"/>
        <pt x="1069" y="1550" on="0"/>
        <pt x="1160" y="1186" on="1"/>
        <pt x="1190" y="1069" on="0"/>
        <pt x="1190" y="701" on="0"/>
        <pt x="1126" y="352" on="0"/>
        <pt x="1060" y="230" on="1"/>
        <pt x="925" y="-20" on="0"/>
      </contour>
      <contour>
        <pt x="790" y="1992" on="1"/>
        <pt x="704" y="1805" on="0"/>
        <pt x="568" y="1670" on="1"/>
        <pt x="534" y="1637" on="0"/>
        <pt x="513" y="1622" on="1"/>
        <pt x="399" y="1622" on="1"/>
        <pt x="411" y="1643" on="0"/>
        <pt x="428" y="1677" on="1"/>
        <pt x="477" y="1778" on="0"/>
        <pt x="498" y="1824" on="1"/>
        <pt x="498" y="1824" on="0"/>
        <pt x="532" y="1904" on="1"/>
        <pt x="564" y="1982" on="0"/>
        <pt x="564" y="1992" on="1"/>
      </contour>
      <contour>
        <pt x="1187" y="1992" on="1"/>
        <pt x="1103" y="1809" on="0"/>
        <pt x="956" y="1670" on="1"/>
        <pt x="921" y="1637" on="0"/>
        <pt x="900" y="1622" on="1"/>
        <pt x="786" y="1622" on="1"/>
        <pt x="798" y="1643" on="0"/>
        <pt x="815" y="1677" on="1"/>
        <pt x="864" y="1778" on="0"/>
        <pt x="885" y="1824" on="1"/>
        <pt x="885" y="1824" on="0"/>
        <pt x="919" y="1904" on="1"/>
        <pt x="951" y="1982" on="0"/>
        <pt x="951" y="1992" on="1"/>
      </contour>
    </TTGlyph>
    <TTGlyph name="Omacron" xMin="128" yMin="-20" xMax="1190" yMax="1913">
      <contour>
        <pt x="661" y="80" on="1"/>
        <pt x="853" y="80" on="0"/>
        <pt x="909" y="548" on="1"/>
        <pt x="928" y="706" on="0"/>
        <pt x="928" y="920" on="1"/>
        <pt x="928" y="1450" on="0"/>
        <pt x="659" y="1450" on="1"/>
        <pt x="390" y="1450" on="0"/>
        <pt x="390" y="920" on="1"/>
        <pt x="390" y="295" on="0"/>
        <pt x="551" y="131" on="1"/>
        <pt x="601" y="80" on="0"/>
      </contour>
      <contour>
        <pt x="659" y="-20" on="1"/>
        <pt x="393" y="-20" on="0"/>
        <pt x="258" y="230" on="1"/>
        <pt x="128" y="471" on="0"/>
        <pt x="128" y="920" on="1"/>
        <pt x="128" y="1387" on="0"/>
        <pt x="415" y="1508" on="1"/>
        <pt x="516" y="1550" on="0"/>
        <pt x="659" y="1550" on="1"/>
        <pt x="1069" y="1550" on="0"/>
        <pt x="1160" y="1186" on="1"/>
        <pt x="1190" y="1069" on="0"/>
        <pt x="1190" y="701" on="0"/>
        <pt x="1126" y="352" on="0"/>
        <pt x="1060" y="230" on="1"/>
        <pt x="925" y="-20" on="0"/>
      </contour>
      <contour>
        <pt x="334" y="1913" on="1"/>
        <pt x="428" y="1893" on="0"/>
        <pt x="935" y="1893" on="0"/>
        <pt x="1026" y="1913" on="1"/>
        <pt x="1026" y="1723" on="1"/>
        <pt x="935" y="1743" on="0"/>
        <pt x="428" y="1743" on="0"/>
        <pt x="334" y="1723" on="1"/>
      </contour>
    </TTGlyph>
    <TTGlyph name="Omega" xMin="99" yMin="-25" xMax="1260" yMax="1550">
      <contour>
        <pt x="1260" y="-25" on="1"/>
        <pt x="1164" y="4" on="0"/>
        <pt x="858" y="4" on="1"/>
        <pt x="810" y="4" on="1"/>
        <pt x="810" y="166" on="1"/>
        <pt x="928" y="319" on="0"/>
        <pt x="928" y="920" on="1"/>
        <pt x="928" y="1450" on="0"/>
        <pt x="659" y="1450" on="1"/>
        <pt x="390" y="1450" on="0"/>
        <pt x="390" y="920" on="1"/>
        <pt x="390" y="305" on="0"/>
        <pt x="539" y="166" on="1"/>
        <pt x="539" y="4" on="1"/>
        <pt x="492" y="4" on="1"/>
        <pt x="195" y="4" on="0"/>
        <pt x="99" y="-25" on="1"/>
        <pt x="99" y="195" on="1"/>
        <pt x="172" y="176" on="0"/>
        <pt x="376" y="168" on="1"/>
        <pt x="186" y="303" on="0"/>
        <pt x="143" y="650" on="1"/>
        <pt x="128" y="769" on="0"/>
        <pt x="128" y="1069" on="0"/>
        <pt x="186" y="1303" on="0"/>
        <pt x="250" y="1384" on="1"/>
        <pt x="381" y="1550" on="0"/>
        <pt x="659" y="1550" on="1"/>
        <pt x="1069" y="1550" on="0"/>
        <pt x="1160" y="1186" on="1"/>
        <pt x="1190" y="1069" on="0"/>
        <pt x="1190" y="774" on="0"/>
        <pt x="1162" y="539" on="0"/>
        <pt x="1133" y="446" on="1"/>
        <pt x="1077" y="266" on="0"/>
        <pt x="958" y="168" on="1"/>
        <pt x="1172" y="173" on="0"/>
        <pt x="1260" y="195" on="1"/>
      </contour>
    </TTGlyph>
    <TTGlyph name="Oslash" xMin="87" yMin="-20" xMax="1267" yMax="1577">
      <contour>
        <pt x="1111" y="1316" on="1"/>
        <pt x="1190" y="1168" on="0"/>
        <pt x="1190" y="701" on="0"/>
        <pt x="1126" y="352" on="0"/>
        <pt x="1060" y="230" on="1"/>
        <pt x="925" y="-20" on="0"/>
        <pt x="659" y="-20" on="1"/>
        <pt x="448" y="-20" on="0"/>
        <pt x="317" y="140" on="1"/>
        <pt x="273" y="59" on="0"/>
        <pt x="256" y="-20" on="1"/>
        <pt x="87" y="108" on="1"/>
        <pt x="99" y="118" on="0"/>
        <pt x="137" y="145" on="0"/>
        <pt x="159" y="163" on="1"/>
        <pt x="204" y="202" on="1"/>
        <pt x="228" y="223" on="0"/>
        <pt x="249" y="248" on="1"/>
        <pt x="128" y="484" on="0"/>
        <pt x="128" y="920" on="1"/>
        <pt x="128" y="1387" on="0"/>
        <pt x="415" y="1508" on="1"/>
        <pt x="516" y="1550" on="0"/>
        <pt x="659" y="1550" on="1"/>
        <pt x="907" y="1550" on="0"/>
        <pt x="1037" y="1418" on="1"/>
        <pt x="1082" y="1500" on="0"/>
        <pt x="1098" y="1577" on="1"/>
        <pt x="1267" y="1449" on="1"/>
        <pt x="1198" y="1396" on="1"/>
        <pt x="1145" y="1355" on="0"/>
      </contour>
      <contour>
        <pt x="661" y="80" on="1"/>
        <pt x="853" y="80" on="0"/>
        <pt x="909" y="548" on="1"/>
        <pt x="928" y="706" on="0"/>
        <pt x="928" y="920" on="1"/>
        <pt x="928" y="1450" on="0"/>
        <pt x="659" y="1450" on="1"/>
        <pt x="390" y="1450" on="0"/>
        <pt x="390" y="920" on="1"/>
        <pt x="390" y="295" on="0"/>
        <pt x="551" y="131" on="1"/>
        <pt x="601" y="80" on="0"/>
      </contour>
    </TTGlyph>
    <TTGlyph name="Otilde" xMin="128" yMin="-20" xMax="1190" yMax="1995">
      <contour>
        <pt x="661" y="80" on="1"/>
        <pt x="853" y="80" on="0"/>
        <pt x="909" y="548" on="1"/>
        <pt x="928" y="706" on="0"/>
        <pt x="928" y="920" on="1"/>
        <pt x="928" y="1450" on="0"/>
        <pt x="659" y="1450" on="1"/>
        <pt x="390" y="1450" on="0"/>
        <pt x="390" y="920" on="1"/>
        <pt x="390" y="295" on="0"/>
        <pt x="551" y="131" on="1"/>
        <pt x="601" y="80" on="0"/>
      </contour>
      <contour>
        <pt x="659" y="-20" on="1"/>
        <pt x="393" y="-20" on="0"/>
        <pt x="258" y="230" on="1"/>
        <pt x="128" y="471" on="0"/>
        <pt x="128" y="920" on="1"/>
        <pt x="128" y="1387" on="0"/>
        <pt x="415" y="1508" on="1"/>
        <pt x="516" y="1550" on="0"/>
        <pt x="659" y="1550" on="1"/>
        <pt x="1069" y="1550" on="0"/>
        <pt x="1160" y="1186" on="1"/>
        <pt x="1190" y="1069" on="0"/>
        <pt x="1190" y="701" on="0"/>
        <pt x="1126" y="352" on="0"/>
        <pt x="1060" y="230" on="1"/>
        <pt x="925" y="-20" on="0"/>
      </contour>
      <contour>
        <pt x="307" y="1775" on="1"/>
        <pt x="357" y="1881" on="0"/>
        <pt x="499" y="1995" on="0"/>
        <pt x="616" y="1995" on="0"/>
        <pt x="678" y="1976" on="0"/>
        <pt x="725" y="1947" on="0"/>
        <pt x="761" y="1913" on="0"/>
        <pt x="778" y="1898" on="1"/>
        <pt x="817" y="1865" on="0"/>
        <pt x="880" y="1865" on="0"/>
        <pt x="923" y="1884" on="0"/>
        <pt x="957" y="1914" on="0"/>
        <pt x="971" y="1932" on="1"/>
        <pt x="996" y="1965" on="1"/>
        <pt x="1056" y="1905" on="1"/>
        <pt x="1007" y="1808" on="0"/>
        <pt x="871" y="1705" on="0"/>
        <pt x="757" y="1705" on="0"/>
        <pt x="695" y="1724" on="0"/>
        <pt x="648" y="1753" on="0"/>
        <pt x="612" y="1787" on="0"/>
        <pt x="595" y="1802" on="1"/>
        <pt x="556" y="1835" on="0"/>
        <pt x="493" y="1835" on="0"/>
        <pt x="450" y="1816" on="0"/>
        <pt x="416" y="1786" on="0"/>
        <pt x="403" y="1768" on="1"/>
        <pt x="377" y="1735" on="1"/>
      </contour>
    </TTGlyph>
    <TTGlyph name="P" xMin="66" yMin="0" xMax="1059" yMax="1530">
      <contour>
        <pt x="484" y="950" on="1"/>
        <pt x="408" y="950" on="0"/>
        <pt x="408" y="813" on="1"/>
        <pt x="408" y="687" on="1"/>
        <pt x="408" y="339" on="0"/>
        <pt x="423" y="176" on="0"/>
        <pt x="438" y="112" on="0"/>
        <pt x="451" y="87" on="1"/>
        <pt x="472" y="46" on="0"/>
        <pt x="535" y="0" on="1"/>
        <pt x="110" y="0" on="1"/>
        <pt x="147" y="74" on="0"/>
        <pt x="163" y="178" on="0"/>
        <pt x="167" y="236" on="1"/>
        <pt x="175" y="354" on="0"/>
        <pt x="175" y="553" on="1"/>
        <pt x="175" y="794" on="0"/>
        <pt x="167" y="993" on="1"/>
        <pt x="156" y="1268" on="1"/>
        <pt x="152" y="1372" on="0"/>
        <pt x="138" y="1413" on="1"/>
        <pt x="116" y="1478" on="0"/>
        <pt x="66" y="1530" on="1"/>
        <pt x="625" y="1530" on="1"/>
        <pt x="851" y="1530" on="0"/>
        <pt x="952" y="1482" on="1"/>
        <pt x="1059" y="1432" on="0"/>
        <pt x="1059" y="1311" on="1"/>
        <pt x="1059" y="1163" on="0"/>
        <pt x="932" y="1066" on="1"/>
        <pt x="782" y="950" on="0"/>
      </contour>
      <contour>
        <pt x="765" y="1165" on="0"/>
        <pt x="795" y="1236" on="0"/>
        <pt x="795" y="1297" on="0"/>
        <pt x="778" y="1357" on="0"/>
        <pt x="753" y="1380" on="1"/>
        <pt x="697" y="1430" on="0"/>
        <pt x="561" y="1430" on="1"/>
        <pt x="479" y="1430" on="0"/>
        <pt x="454" y="1410" on="1"/>
        <pt x="408" y="1372" on="0"/>
        <pt x="408" y="1261" on="1"/>
        <pt x="408" y="1136" on="0"/>
        <pt x="448" y="1077" on="0"/>
        <pt x="500" y="1060" on="0"/>
        <pt x="607" y="1060" on="0"/>
        <pt x="702" y="1102" on="0"/>
      </contour>
    </TTGlyph>
    <TTGlyph name="Q" xMin="128" yMin="-340" xMax="1212" yMax="1550">
      <contour>
        <pt x="1190" y="920" on="1"/>
        <pt x="1190" y="307" on="0"/>
        <pt x="951" y="88" on="1"/>
        <pt x="1064" y="-194" on="0"/>
        <pt x="1212" y="-340" on="1"/>
        <pt x="857" y="-340" on="1"/>
        <pt x="808" y="-266" on="0"/>
        <pt x="754" y="-11" on="1"/>
        <pt x="709" y="-20" on="0"/>
        <pt x="659" y="-20" on="1"/>
        <pt x="393" y="-20" on="0"/>
        <pt x="258" y="230" on="1"/>
        <pt x="128" y="471" on="0"/>
        <pt x="128" y="920" on="1"/>
        <pt x="128" y="1387" on="0"/>
        <pt x="415" y="1508" on="1"/>
        <pt x="516" y="1550" on="0"/>
        <pt x="659" y="1550" on="1"/>
        <pt x="1069" y="1550" on="0"/>
        <pt x="1160" y="1186" on="1"/>
        <pt x="1190" y="1069" on="0"/>
      </contour>
      <contour>
        <pt x="870" y="337" on="1"/>
        <pt x="928" y="552" on="0"/>
        <pt x="928" y="920" on="1"/>
        <pt x="928" y="1450" on="0"/>
        <pt x="659" y="1450" on="1"/>
        <pt x="390" y="1450" on="0"/>
        <pt x="390" y="920" on="1"/>
        <pt x="390" y="634" on="0"/>
        <pt x="427" y="437" on="1"/>
        <pt x="451" y="524" on="0"/>
        <pt x="562" y="620" on="0"/>
        <pt x="681" y="620" on="0"/>
        <pt x="751" y="578" on="0"/>
        <pt x="779" y="540" on="1"/>
        <pt x="831" y="471" on="0"/>
      </contour>
      <contour>
        <pt x="661" y="80" on="1"/>
        <pt x="698" y="80" on="0"/>
        <pt x="732" y="100" on="1"/>
        <pt x="726" y="140" on="1"/>
        <pt x="723" y="161" on="0"/>
        <pt x="708" y="253" on="0"/>
        <pt x="682" y="367" on="0"/>
        <pt x="666" y="406" on="1"/>
        <pt x="633" y="488" on="0"/>
        <pt x="587" y="488" on="1"/>
        <pt x="543" y="488" on="0"/>
        <pt x="516" y="438" on="1"/>
        <pt x="490" y="393" on="0"/>
        <pt x="490" y="337" on="1"/>
        <pt x="490" y="236" on="0"/>
        <pt x="525" y="162" on="1"/>
        <pt x="583" y="80" on="0"/>
      </contour>
    </TTGlyph>
</ttFont>
